<?xml version="1.0" standalone="no"?>
<!DOCTYPE svg PUBLIC "-//W3C//DTD SVG 20010904//EN"
 "http://www.w3.org/TR/2001/REC-SVG-20010904/DTD/svg10.dtd">
<svg version="1.0" xmlns="http://www.w3.org/2000/svg"
 width="512.000000pt" height="512.000000pt" viewBox="0 0 512.000000 512.000000"
 preserveAspectRatio="xMidYMid meet">

<g transform="translate(0.000000,512.000000) scale(0.100000,-0.100000)"
fill="#000000" stroke="none">
<path d="M2803 4900 c-71 -8 -125 -28 -120 -44 12 -38 183 -58 303 -36 93 17
99 21 77 49 -28 34 -128 46 -260 31z"/>
<path d="M3140 4776 c0 -19 4 -23 20 -19 24 6 26 28 4 37 -23 9 -24 8 -24 -18z"/>
<path d="M2680 4746 l0 -46 68 0 c60 0 233 21 305 36 20 4 27 12 27 29 0 22 0
23 -42 7 -73 -26 -258 -18 -344 15 -11 4 -14 -5 -14 -41z"/>
<path d="M2526 4760 c-44 -9 -76 -19 -70 -22 5 -3 36 -11 69 -17 118 -20 115
-20 115 5 0 32 -10 54 -24 53 -6 -1 -47 -9 -90 -19z"/>
<path d="M3165 4701 c-44 -23 -50 -29 -47 -54 l3 -28 37 22 c43 25 72 55 72
75 0 18 -4 17 -65 -15z"/>
<path d="M2950 4654 c-41 -7 -114 -13 -162 -13 l-88 -1 0 -62 c1 -81 27 -140
72 -164 43 -24 137 -22 203 3 43 16 52 24 63 58 7 22 16 75 19 117 7 90 17 84
-107 62z m-80 -62 c0 -14 -30 -51 -61 -72 -24 -18 -33 -19 -44 -10 -18 15 -13
24 37 61 40 28 68 37 68 21z m138 -26 c3 -22 -6 -36 -38 -67 -54 -52 -93 -71
-138 -67 -46 4 -50 28 -5 40 18 5 58 34 93 69 34 33 67 58 73 56 7 -2 13 -16
15 -31z"/>
<path d="M2554 4626 c23 -30 31 -56 42 -134 7 -53 14 -143 14 -199 0 -57 2
-103 5 -103 3 0 23 9 43 19 66 33 150 44 326 39 l166 -4 0 46 c0 25 5 63 10
84 6 26 5 46 -2 60 -6 11 -11 51 -12 88 0 92 -22 101 -31 12 -14 -128 -65
-181 -193 -204 -123 -21 -219 17 -262 104 -18 39 -22 59 -18 126 l3 79 -40 6
c-22 4 -49 9 -60 12 -17 5 -16 1 9 -31z"/>
<path d="M3206 4374 c-12 -30 -6 -140 8 -159 12 -17 19 -18 53 -9 136 39 131
39 180 26 85 -23 165 -100 199 -193 11 -29 17 -77 17 -139 0 -198 -99 -374
-242 -426 -69 -26 -74 -32 -68 -87 3 -33 11 -55 27 -70 22 -21 22 -21 15 -2
-17 47 -17 101 0 115 15 12 19 12 31 -5 8 -10 14 -25 14 -33 0 -23 31 -82 44
-82 6 0 17 4 25 9 12 8 12 14 -2 44 -21 43 -22 87 -3 87 8 0 25 -19 38 -42 13
-23 28 -43 35 -45 7 -3 41 25 77 61 76 76 144 205 171 326 22 98 23 241 1 299
-37 102 -155 213 -291 277 -120 55 -315 84 -329 48z"/>
<path d="M2795 4179 c-44 -5 -96 -13 -115 -17 l-35 -8 45 -24 c39 -21 62 -25
167 -28 125 -4 239 9 283 33 l24 13 -34 21 c-30 18 -49 21 -145 20 -60 -1
-146 -6 -190 -10z"/>
<path d="M2607 4005 c-14 -242 -63 -424 -157 -585 -21 -36 -101 -150 -179
-255 -77 -104 -161 -226 -186 -270 -94 -166 -130 -343 -123 -614 l4 -176 42
-63 c24 -34 44 -62 46 -62 2 0 0 17 -5 38 -5 20 -14 107 -21 193 -10 132 -10
164 3 210 11 42 19 55 35 57 28 4 34 -27 34 -187 0 -69 5 -184 11 -254 10
-104 15 -127 26 -122 8 3 26 5 39 5 l24 0 -6 95 c-7 93 0 125 28 125 19 0 38
-71 38 -143 l0 -74 49 -6 c75 -9 145 -44 194 -96 51 -55 70 -104 70 -181 l0
-56 78 -28 c47 -16 91 -40 111 -59 18 -17 38 -30 43 -28 290 90 355 93 355 17
0 -57 -59 -96 -270 -176 l-95 -36 1 -65 c0 -50 7 -79 32 -133 l32 -69 93 6
c227 14 464 129 602 292 89 106 186 362 236 629 30 159 38 487 15 644 -35 234
-96 385 -207 510 -38 42 -76 91 -85 108 -16 31 -18 32 -73 27 -69 -5 -110 17
-141 76 -26 52 -27 144 -2 186 l19 30 -53 95 c-67 119 -84 183 -91 338 -3 67
-9 122 -12 122 -3 0 -28 -7 -56 -16 -62 -19 -301 -23 -360 -6 -22 6 -61 25
-86 41 l-46 29 -6 -113z m84 -77 c9 -152 -50 -430 -116 -544 -25 -43 -63 -74
-90 -74 -22 0 -19 16 19 84 70 127 125 312 141 479 6 57 9 67 26 67 10 0 19
-6 20 -12z m17 -516 c-8 -114 -87 -253 -133 -236 -19 8 -19 22 1 59 52 97 83
165 93 203 8 27 17 42 28 42 13 0 15 -10 11 -68z m846 -432 c106 -206 161
-500 136 -730 -19 -176 -76 -365 -111 -365 -20 0 -17 40 10 165 32 144 40 403
17 548 -17 111 -63 262 -126 416 -22 54 -37 103 -33 109 10 16 59 -48 107
-143z m-26 -527 c14 -31 17 -68 16 -198 0 -175 -15 -259 -60 -352 -25 -53 -42
-67 -63 -53 -10 6 -6 36 18 135 42 172 56 298 43 400 -9 78 -4 105 20 105 5 0
17 -17 26 -37z m59 -839 c9 -24 -22 -112 -64 -182 -73 -120 -187 -213 -281
-228 -63 -10 -55 17 21 67 136 92 210 174 258 285 33 75 53 92 66 58z"/>
<path d="M1413 2299 c-18 -5 -40 -21 -49 -34 -15 -24 -15 -28 11 -82 40 -81
180 -217 363 -351 83 -61 152 -110 152 -108 0 1 -27 50 -60 107 -63 108 -70
129 -45 129 16 0 161 -198 197 -270 23 -44 75 -110 89 -110 4 0 -6 39 -21 88
-37 118 -37 115 -19 119 18 4 91 -141 112 -226 13 -50 21 -61 93 -120 l78 -66
-59 110 c-254 477 -373 650 -505 735 -99 63 -263 102 -337 79z"/>
<path d="M1218 1909 c-10 -5 -21 -25 -27 -44 -22 -81 32 -177 189 -335 76 -77
150 -140 220 -187 163 -109 163 -110 72 22 -74 108 -87 135 -62 135 5 0 54
-54 109 -120 56 -66 101 -115 101 -110 0 19 -67 173 -102 235 -59 104 -136
212 -199 280 -97 103 -238 161 -301 124z"/>
<path d="M2181 1743 c73 -138 75 -141 84 -114 8 25 33 28 42 4 3 -9 1 -35 -5
-59 -12 -43 -8 -74 9 -74 5 0 21 18 35 40 19 29 28 57 32 105 5 71 17 89 39
60 32 -45 7 -169 -48 -238 -21 -26 -27 -42 -21 -52 7 -13 16 -9 53 24 25 21
54 55 64 76 19 34 19 37 3 46 -26 14 -22 29 7 29 23 0 25 3 25 48 0 51 -26
117 -56 144 -37 33 -110 57 -206 67 -54 6 -102 11 -108 11 -6 0 17 -53 51
-117z"/>
<path d="M1914 1585 c19 -77 106 -163 191 -190 102 -32 93 -14 -55 103 -120
95 -141 109 -136 87z"/>
<path d="M2531 1485 c-23 -44 -71 -93 -120 -126 -16 -10 -22 -21 -18 -31 5
-14 31 -6 171 50 l165 67 -82 42 c-45 23 -84 42 -87 42 -3 1 -16 -19 -29 -44z"/>
<path d="M2995 1464 c-148 -40 -302 -93 -445 -154 -74 -32 -236 -91 -359 -131
l-225 -74 59 -6 c41 -5 68 -2 93 8 19 8 63 19 96 24 34 6 129 37 211 69 83 33
224 86 315 118 273 98 290 105 323 133 18 15 30 29 27 32 -3 2 -45 -6 -95 -19z"/>
<path d="M2102 1279 c12 -30 23 -56 24 -58 4 -4 167 49 177 58 4 4 -3 17 -16
29 -21 20 -27 21 -56 11 -31 -11 -97 -8 -134 7 -15 5 -14 0 5 -47z"/>
<path d="M1057 1280 c-85 -22 -117 -52 -117 -109 0 -40 46 -85 112 -108 80
-27 493 -26 663 2 l120 20 -150 7 c-82 4 -163 11 -180 16 -37 10 -41 38 -5 35
14 -2 70 -5 125 -8 l100 -6 -61 29 c-180 86 -308 122 -459 127 -60 3 -127 0
-148 -5z"/>
<path d="M2625 1222 l-110 -37 -42 -75 c-43 -74 -43 -75 -20 -83 12 -5 56 -5
97 -1 41 4 86 6 100 5 23 -2 27 5 58 101 19 57 36 109 39 116 6 16 4 16 -122
-26z"/>
<path d="M3445 1137 c-61 -45 -191 -104 -280 -127 -44 -12 -128 -24 -186 -27
l-106 -6 35 -81 c19 -45 36 -83 38 -85 2 -2 13 4 25 15 27 24 113 24 186 0 62
-21 137 -85 183 -156 18 -27 34 -50 37 -50 2 0 26 10 54 21 40 18 48 25 44 43
-2 11 -14 62 -26 113 -23 104 -19 126 17 92 30 -28 55 -94 57 -148 2 -43 27
-60 27 -18 0 13 6 45 14 71 13 44 13 52 -10 118 -13 39 -24 80 -24 90 0 51 56
-20 66 -85 8 -48 16 -52 44 -21 l24 24 -23 78 c-24 83 -69 169 -80 155 -4 -4
-26 -34 -50 -65 -24 -32 -50 -58 -58 -58 -26 0 -24 27 7 80 17 29 30 54 28 55
-2 1 -21 -11 -43 -28z"/>
<path d="M773 1130 c-45 -27 -46 -75 -3 -124 63 -71 194 -106 401 -106 151 0
256 18 449 79 141 45 141 48 2 25 -119 -20 -397 -23 -501 -6 -40 7 -96 22
-122 34 -50 21 -109 77 -109 103 0 23 -78 19 -117 -5z"/>
<path d="M2330 1105 l-55 -23 39 -17 c21 -9 39 -15 40 -13 21 29 46 78 39 77
-4 0 -33 -11 -63 -24z"/>
<path d="M2752 1053 c-12 -40 -5 -53 29 -53 15 0 15 5 5 39 -16 55 -21 57 -34
14z"/>
<path d="M2182 1071 c-16 -4 -37 -32 -68 -91 -53 -101 -56 -153 -10 -199 l27
-26 17 22 c90 113 172 223 171 230 0 9 -95 73 -106 72 -5 -1 -18 -4 -31 -8z"/>
<path d="M1975 979 c-157 -76 -363 -159 -570 -229 -228 -78 -321 -121 -384
-179 -131 -121 86 -168 357 -79 166 55 441 224 559 345 89 91 154 185 126 182
-5 0 -44 -18 -88 -40z m-244 -217 c-40 -75 -231 -181 -383 -212 -167 -35 -248
-18 -104 22 117 32 217 75 351 153 124 71 160 81 136 37z m-111 14 c0 -27
-125 -85 -143 -67 -14 14 5 35 56 60 48 24 87 27 87 7z"/>
<path d="M2599 967 c-110 -41 -212 -182 -240 -331 -26 -145 34 -228 165 -229
146 -1 265 116 302 296 21 100 7 165 -50 224 -35 38 -48 44 -91 48 -29 3 -65
0 -86 -8z m-92 -229 c-30 -132 -30 -138 -13 -200 9 -33 15 -63 12 -65 -3 -3
-17 -2 -31 1 -33 8 -65 61 -65 108 0 44 31 132 56 159 24 27 48 25 41 -3z"/>
<path d="M3874 920 c-96 -14 -165 -45 -207 -94 -35 -41 -77 -135 -77 -173 0
-91 102 -207 209 -237 116 -32 324 -19 438 29 136 57 181 173 113 291 -83 146
-262 215 -476 184z m-152 -282 c40 -73 84 -90 267 -102 143 -10 156 -13 156
-30 0 -51 -201 -61 -318 -16 -93 35 -157 103 -157 165 0 39 26 30 52 -17z
m381 -13 c50 -7 63 -26 28 -45 -49 -25 -161 4 -161 42 0 21 -7 20 133 3z"/>
<path d="M2303 862 c-22 -31 -85 -108 -139 -170 -225 -258 -265 -307 -294
-365 -36 -72 -38 -102 -8 -110 36 -10 74 19 165 129 114 137 185 239 237 344
43 84 92 217 84 225 -2 3 -23 -21 -45 -53z"/>
<path d="M2988 774 c-9 -3 -26 -30 -37 -59 -63 -168 -39 -340 59 -429 92 -83
215 -64 287 46 25 37 28 50 28 127 0 74 -4 94 -28 143 -31 63 -90 129 -139
154 -32 16 -137 28 -170 18z m34 -272 c5 -77 31 -112 108 -146 33 -15 60 -31
60 -36 0 -22 -42 -32 -81 -21 -100 30 -163 146 -129 235 17 47 37 31 42 -32z
m157 -85 c53 -39 60 -52 30 -60 -51 -14 -144 74 -113 106 8 7 21 0 83 -46z"/>
</g>
</svg>
