<?xml version="1.0" standalone="no"?>
<!DOCTYPE svg PUBLIC "-//W3C//DTD SVG 20010904//EN"
 "http://www.w3.org/TR/2001/REC-SVG-20010904/DTD/svg10.dtd">
<svg version="1.0" xmlns="http://www.w3.org/2000/svg"
 width="626.000000pt" height="626.000000pt" viewBox="0 0 626.000000 626.000000"
 preserveAspectRatio="xMidYMid meet">

<g transform="translate(0.000000,626.000000) scale(0.100000,-0.100000)"
fill="#000000" stroke="none">
<path d="M2822 5928 c-9 -9 -12 -109 -12 -389 l0 -377 -102 -4 c-89 -3 -107
-6 -137 -27 -57 -41 -61 -62 -61 -344 l0 -254 -117 -6 c-65 -4 -145 -14 -178
-23 -189 -50 -358 -209 -404 -379 -5 -22 -33 -305 -60 -630 -28 -324 -71 -828
-96 -1120 -87 -1011 -115 -1360 -115 -1423 0 -90 26 -194 72 -291 73 -154 230
-283 394 -325 55 -14 187 -16 1124 -16 937 0 1069 2 1124 16 164 42 321 171
394 325 46 97 72 201 72 292 0 61 -55 733 -140 1717 -22 256 -58 679 -80 940
-23 261 -45 493 -51 515 -46 171 -213 328 -404 380 -33 8 -113 19 -177 22
l-118 6 0 254 c0 282 -4 303 -64 346 -26 19 -47 23 -133 25 l-103 4 0 199 0
198 324 3 324 3 39 31 c57 45 86 107 79 172 -6 66 -36 115 -90 147 l-43 25
-624 0 c-473 0 -628 -3 -637 -12z m1250 -99 c11 -6 26 -26 34 -45 13 -31 13
-39 -1 -68 -9 -18 -27 -38 -41 -45 -17 -7 -131 -11 -359 -11 -320 0 -335 -1
-345 -19 -6 -12 -10 -110 -10 -250 l0 -231 -220 0 -220 0 0 340 0 340 571 0
c389 0 577 -3 591 -11z m-432 -798 c6 -12 10 -114 10 -260 l0 -241 -520 0
-520 0 0 241 c0 146 4 248 10 260 10 18 27 19 510 19 483 0 500 -1 510 -19z
m373 -626 c132 -34 253 -129 308 -240 27 -56 32 -81 45 -217 7 -84 15 -172 18
-196 l4 -42 -1256 2 -1256 3 3 55 c1 30 8 117 16 194 12 119 18 148 44 201 54
109 176 205 304 240 80 21 1687 22 1770 0z m382 -807 c2 -7 22 -229 44 -493
103 -1216 141 -1661 141 -1672 0 -10 -297 -13 -1450 -13 -1094 0 -1450 3
-1450 12 0 14 91 1088 131 1548 16 190 34 404 40 475 6 72 12 136 14 143 6 18
2524 18 2530 0z m195 -2283 c0 -2 7 -80 16 -172 17 -189 13 -265 -21 -365 -56
-166 -190 -294 -354 -340 -62 -17 -128 -18 -1101 -18 -973 0 -1039 1 -1101 18
-164 46 -298 174 -354 339 -39 117 -41 192 -9 491 l5 52 1460 0 c802 0 1459
-2 1459 -5z"/>
<path d="M3998 3409 c-14 -8 -18 -23 -18 -65 0 -31 27 -418 60 -861 33 -444
60 -815 60 -825 0 -9 11 -25 25 -34 21 -14 31 -15 50 -6 21 10 25 19 25 54 0
24 -27 419 -61 878 -64 872 -64 871 -108 870 -9 0 -24 -5 -33 -11z"/>
<path d="M2386 884 c-9 -8 -16 -24 -16 -34 0 -10 7 -26 16 -34 14 -14 95 -16
744 -16 649 0 730 2 744 16 9 8 16 24 16 34 0 10 -7 26 -16 34 -14 14 -95 16
-744 16 -649 0 -730 -2 -744 -16z"/>
</g>
</svg>
