<?xml version="1.0" standalone="no"?>
<!DOCTYPE svg PUBLIC "-//W3C//DTD SVG 20010904//EN"
 "http://www.w3.org/TR/2001/REC-SVG-20010904/DTD/svg10.dtd">
<svg version="1.0" xmlns="http://www.w3.org/2000/svg"
 width="980.000000pt" height="980.000000pt" viewBox="0 0 980.000000 980.000000"
 preserveAspectRatio="xMidYMid meet">
<metadata>
Created by potrace 1.16, written by Peter Selinger 2001-2019
</metadata>
<g transform="translate(0.000000,980.000000) scale(0.100000,-0.100000)"
fill="#000000" stroke="none">
<path d="M4580 8933 c-256 -25 -379 -47 -535 -94 -201 -62 -317 -144 -371
-262 -24 -54 -28 -78 -32 -178 -9 -228 72 -493 264 -869 41 -80 89 -167 107
-195 l32 -50 68 -3 67 -3 0 -37 c0 -32 -7 -45 -52 -88 -172 -164 -584 -449
-900 -623 -43 -23 -87 -54 -98 -68 -67 -85 -122 -452 -150 -1008 -36 -701 -30
-2168 16 -3825 7 -263 11 -278 81 -341 224 -203 871 -372 1603 -420 230 -15
709 -7 908 16 554 61 997 214 1176 405 26 28 53 65 60 83 23 55 28 597 17
1792 -13 1329 -28 1951 -61 2550 -23 403 -62 721 -98 795 -31 63 -140 133
-432 277 -151 74 -361 177 -466 229 -181 89 -349 190 -386 230 -9 11 -18 32
-20 48 -3 27 0 30 37 38 22 4 51 10 63 13 19 5 36 32 82 129 141 299 255 632
289 846 16 98 14 258 -5 319 -47 159 -269 252 -694 291 -105 9 -486 12 -570 3z
m660 -48 c331 -41 517 -120 565 -237 71 -177 -16 -572 -238 -1073 -79 -179
-88 -194 -119 -200 -15 -3 -41 -8 -58 -11 -22 -4 -30 -2 -30 9 0 8 -3 34 -6
59 l-6 45 47 7 c25 4 55 16 65 26 23 23 34 101 34 235 0 172 -34 260 -111 283
-202 60 -1122 50 -1284 -14 -29 -12 -38 -22 -43 -47 -14 -85 -27 -236 -29
-341 -2 -139 0 -144 96 -153 l67 -6 0 -73 c0 -40 -4 -75 -8 -78 -5 -3 -34 -2
-65 1 l-57 6 -44 76 c-124 216 -255 518 -301 695 -73 284 -52 463 68 573 129
119 420 202 812 233 150 12 493 4 645 -15z m-229 -855 c275 -11 365 -25 400
-59 38 -38 53 -133 46 -285 -3 -67 -8 -129 -12 -138 -9 -23 -25 -27 -150 -41
-131 -13 -1104 -14 -1180 -1 l-50 9 -3 65 c-3 61 12 279 25 362 5 33 9 37 47
47 95 24 235 34 636 49 19 1 128 -3 241 -8z m303 -577 c2 -10 8 -37 11 -60 6
-37 4 -43 -12 -43 -10 -1 -81 -7 -158 -16 -192 -20 -919 -32 -930 -15 -4 7 -4
42 0 78 l7 66 256 -5 c142 -3 354 -3 472 1 373 13 348 13 354 -6z m30 -172
c13 -83 168 -179 706 -434 434 -206 568 -285 605 -357 44 -85 90 -597 110
-1215 3 -99 8 -221 11 -271 l6 -92 -74 -16 c-288 -62 -748 -113 -1223 -136
-272 -13 -1181 -13 -1490 0 -518 22 -982 53 -995 67 -9 9 3 452 20 743 28 480
79 807 137 872 9 10 83 56 166 103 297 170 675 436 823 579 70 67 74 74 74
115 l0 43 143 -7 c163 -8 669 10 832 29 61 7 117 14 126 15 12 1 18 -10 23
-38z m1440 -2618 c10 -319 26 -1402 26 -1740 l0 -281 -92 -22 c-397 -93 -770
-152 -1218 -192 -197 -18 -1014 -18 -1210 0 -232 21 -510 58 -720 97 -205 37
-548 119 -563 134 -5 5 -11 489 -15 1077 l-5 1067 69 -6 c96 -9 507 -35 759
-47 332 -18 1264 -24 1572 -11 484 20 905 62 1218 121 83 15 155 28 161 29 8
1 13 -68 18 -226z m-3626 -2067 c874 -220 1865 -265 2837 -130 209 29 488 81
669 124 70 16 131 30 137 30 5 0 9 -233 9 -597 0 -684 5 -638 -92 -730 -114
-107 -288 -192 -538 -263 -675 -191 -1693 -181 -2475 25 -327 85 -560 195
-639 298 -30 39 -30 35 -46 657 -11 412 -13 620 -4 620 3 0 67 -15 142 -34z"/>
<path d="M6290 6394 c-105 -26 -416 -83 -595 -108 -727 -103 -1421 -102 -2064
5 -173 28 -240 33 -155 10 153 -41 560 -87 905 -102 570 -25 1162 25 1779 150
186 38 200 41 200 52 0 11 -1 11 -70 -7z"/>
<path d="M5514 4041 c-6 -7 -5 -489 2 -588 l7 -91 81 -6 c111 -8 230 4 234 24
2 14 -17 16 -140 15 l-143 0 -3 118 -3 117 83 1 c103 0 160 10 166 28 4 11
-18 12 -120 6 l-125 -7 -6 47 c-4 26 -7 106 -7 176 l0 128 128 3 c105 3 127 6
127 18 0 13 -22 15 -138 15 -76 0 -141 -2 -143 -4z"/>
<path d="M6010 4043 c-49 -19 -50 -24 -50 -242 0 -113 3 -257 7 -319 5 -96 9
-112 22 -110 14 3 15 22 11 153 -3 83 -5 222 -5 310 l0 160 29 14 c42 20 102
-2 133 -48 28 -41 31 -116 7 -167 -18 -37 -91 -108 -129 -126 -14 -6 -25 -16
-25 -21 0 -6 24 -35 53 -66 28 -31 83 -91 120 -134 63 -71 97 -94 97 -66 0 6
-50 67 -112 136 -101 114 -110 126 -92 135 10 6 42 34 69 62 77 78 95 163 53
246 -13 24 -35 53 -50 63 -27 20 -109 32 -138 20z"/>
<path d="M4540 4029 c-35 -14 -69 -48 -91 -90 -27 -53 -123 -569 -109 -583 17
-17 25 4 49 139 l23 124 65 7 c87 9 214 -1 224 -18 5 -7 9 -63 9 -124 0 -86 3
-114 15 -124 26 -22 28 13 16 214 -20 315 -39 404 -93 440 -33 21 -78 28 -108
15z m95 -53 c28 -28 40 -70 55 -186 17 -145 32 -130 -130 -130 -77 0 -140 2
-140 4 0 22 45 217 57 247 32 81 110 113 158 65z"/>
<path d="M4875 4031 c-11 -18 18 -24 123 -22 l105 1 -4 -322 c-3 -282 -2 -323
11 -323 13 0 16 44 20 320 l5 320 73 3 c55 2 72 6 72 17 0 13 -31 15 -199 15
-113 0 -202 -4 -206 -9z"/>
<path d="M4126 3998 c-3 -18 -17 -105 -31 -193 -23 -138 -54 -295 -72 -359 -3
-10 -9 -14 -13 -10 -15 16 -78 228 -116 392 -48 204 -60 209 -85 37 -31 -208
-91 -451 -110 -439 -15 9 -85 244 -119 402 -25 109 -38 152 -48 152 -19 0 -11
-63 30 -230 54 -223 120 -414 142 -407 18 5 85 221 115 372 16 77 31 133 34
125 3 -8 17 -62 32 -120 27 -109 99 -335 114 -359 20 -31 38 0 64 106 40 165
97 484 97 546 0 31 -29 19 -34 -15z"/>
</g>
</svg>
