<?xml version="1.0" standalone="no"?>
<!DOCTYPE svg PUBLIC "-//W3C//DTD SVG 20010904//EN"
 "http://www.w3.org/TR/2001/REC-SVG-20010904/DTD/svg10.dtd">
<svg version="1.0" xmlns="http://www.w3.org/2000/svg"
 width="360.000000pt" height="292.000000pt" viewBox="0 0 360.000000 292.000000"
 preserveAspectRatio="xMidYMid meet">

<g transform="translate(0.000000,292.000000) scale(0.100000,-0.100000)"
fill="#000000" stroke="none">
<path d="M2422 2868 c-21 -29 -177 -250 -347 -492 -170 -241 -315 -440 -322
-443 -22 -9 -91 27 -117 61 -40 53 -60 71 -97 94 -49 30 -147 30 -224 1 -52
-19 -58 -20 -90 -5 -43 21 -143 21 -192 0 -21 -8 -56 -37 -77 -63 -48 -59 -89
-71 -237 -71 -79 0 -108 -4 -138 -19 -50 -26 -62 -42 -75 -102 l-12 -51 -69
-22 c-171 -54 -293 -144 -374 -272 -61 -100 -63 -208 -4 -384 77 -229 193
-425 348 -588 47 -49 111 -109 142 -133 32 -23 69 -53 83 -65 14 -12 58 -39
98 -59 l72 -38 0 -58 0 -57 67 -25 c153 -55 240 -69 443 -70 186 0 265 11 395
57 l90 31 5 60 c5 59 5 60 47 75 89 33 213 117 294 200 67 70 72 75 147 174
52 69 192 339 192 371 0 6 14 46 30 90 27 68 31 92 31 175 1 67 -4 109 -15
135 -13 31 -14 41 -4 50 11 10 192 113 1016 578 80 45 84 56 56 127 -15 38
-59 80 -83 80 -6 0 -261 -147 -567 -326 l-555 -326 -27 25 c-15 14 -58 42 -97
63 -38 21 -72 43 -74 49 -2 5 -21 26 -42 47 -27 26 -61 44 -121 63 -46 15 -85
29 -87 31 -2 2 23 41 56 86 348 482 627 875 630 889 8 27 -32 75 -77 93 -63
25 -76 21 -118 -36z m109 -27 l23 -18 -121 -169 c-67 -93 -327 -452 -577 -799
-250 -346 -456 -633 -456 -637 0 -4 12 -14 28 -22 l27 -14 219 304 c156 217
222 302 230 295 6 -5 45 -19 85 -30 94 -26 116 -41 141 -96 25 -54 25 -62 1
-115 -26 -59 -19 -78 33 -82 l41 -3 -50 -29 c-27 -16 -64 -37 -81 -47 l-31
-18 -32 45 -32 46 -24 -22 c-20 -19 -22 -25 -11 -34 8 -6 21 -23 31 -38 19
-31 44 -12 -205 -158 -96 -56 -177 -104 -179 -106 -3 -3 4 -14 15 -25 20 -20
20 -19 957 527 984 573 967 564 967 499 0 -19 -127 -94 -927 -545 -511 -288
-935 -529 -943 -537 -13 -11 -12 -16 5 -33 20 -19 22 -18 335 159 l315 179 8
-27 c4 -14 5 -56 2 -94 -8 -84 -3 -101 40 -126 l35 -20 -33 -33 c-129 -129
-388 -235 -717 -293 -148 -26 -389 -33 -535 -15 -44 5 -102 12 -130 15 -114
14 -363 83 -475 132 -125 54 -240 124 -308 187 -37 35 -43 81 -16 135 16 32
72 81 92 81 17 0 15 15 -6 33 -11 10 -26 14 -40 10 -54 -14 -34 83 31 146 41
41 117 83 208 115 40 14 46 20 42 41 -3 13 6 47 21 79 15 31 26 72 26 96 0 43
20 84 48 96 9 4 71 10 137 14 66 4 128 11 138 15 14 6 17 2 17 -19 0 -21 5
-26 24 -26 19 0 27 8 37 38 23 72 47 107 89 131 49 27 94 25 164 -9 l44 -21
61 26 c117 49 200 30 263 -60 22 -30 50 -54 84 -71 l52 -26 -156 -221 c-86
-122 -180 -256 -209 -297 l-52 -74 26 -17 c26 -17 26 -17 53 19 14 20 270 385
569 810 299 424 547 772 551 772 4 0 18 -8 31 -19z m-2061 -1150 c-5 -11 -10
-30 -10 -43 0 -19 -11 -27 -62 -47 -67 -26 -159 -84 -194 -122 -60 -66 -77
-129 -53 -196 8 -25 6 -38 -9 -69 -11 -22 -22 -46 -25 -54 -3 -9 -13 4 -27 34
-30 66 -25 178 11 251 46 93 151 178 296 239 74 31 87 32 73 7z m1848 -159 c5
-16 -51 -42 -69 -31 -8 5 -27 9 -43 9 -23 0 -27 3 -21 18 5 9 10 31 13 49 l4
31 56 -33 c31 -18 58 -38 60 -43z m140 -181 c17 -54 13 -158 -6 -213 l-17 -47
-32 27 c-31 26 -32 29 -22 71 6 29 6 61 -1 99 -5 30 -8 58 -5 60 8 9 60 40 66
41 3 1 11 -16 17 -38z m-2261 -393 c20 -31 209 -137 308 -173 28 -10 55 -22
60 -25 37 -26 315 -95 440 -109 444 -52 860 6 1190 165 87 42 102 51 166 102
16 13 29 21 29 18 0 -7 -73 -145 -98 -185 -167 -275 -322 -406 -587 -497 -153
-53 -426 -79 -566 -54 -30 5 -72 12 -94 15 -91 13 -216 55 -288 97 -26 15 -50
28 -53 28 -5 0 -106 74 -144 106 -111 92 -213 210 -275 319 -16 28 -32 52 -36
55 -7 5 -46 77 -66 123 -12 27 -1 38 14 15z m748 -789 c219 -55 515 -53 723 4
l53 14 -3 -25 c-3 -23 -12 -29 -63 -45 -196 -60 -466 -64 -685 -9 -72 18 -110
40 -110 63 0 17 4 20 23 14 12 -3 40 -11 62 -16z"/>
<path d="M1016 1976 c-15 -24 -15 -25 20 -36 39 -13 39 -14 48 17 5 16 2 25
-13 32 -29 16 -37 14 -55 -13z"/>
<path d="M977 1894 c-5 -28 16 -47 66 -59 24 -6 27 -4 27 19 0 20 -9 30 -42
46 -23 11 -43 20 -44 20 -1 0 -4 -12 -7 -26z"/>
<path d="M580 1779 c0 -19 5 -29 15 -30 8 -1 23 -2 33 -3 12 -1 17 6 17 24 0
19 -6 25 -32 31 -31 6 -33 5 -33 -22z"/>
<path d="M1313 1735 c-44 -19 -75 -81 -67 -135 6 -36 10 -40 35 -40 26 0 27 2
19 29 -16 58 30 109 88 94 21 -5 62 19 62 37 0 8 -70 30 -91 30 -8 -1 -28 -7
-46 -15z"/>
<path d="M560 1701 c-17 -33 -12 -41 29 -41 32 0 40 4 45 23 9 35 8 37 -29 37
-24 0 -37 -6 -45 -19z"/>
<path d="M530 1616 c0 -29 3 -31 53 -40 35 -6 37 -5 37 18 0 20 -6 27 -27 32
-16 3 -36 8 -45 11 -14 3 -18 -2 -18 -21z"/>
<path d="M808 1599 c-21 -10 -42 -28 -48 -38 -15 -29 -12 -87 5 -101 21 -18
54 12 48 43 -7 35 28 60 76 55 29 -2 42 1 50 14 15 24 15 25 -20 37 -44 15
-68 13 -111 -10z"/>
<path d="M481 1546 l-24 -13 37 -13 c31 -10 43 -10 62 0 22 12 22 14 6 26 -22
17 -51 17 -81 0z"/>
<path d="M375 1503 l-30 -16 48 -14 c40 -12 51 -12 74 0 l27 15 -32 16 c-38
20 -49 20 -87 -1z"/>
<path d="M277 1443 c-16 -16 -14 -18 30 -35 44 -17 47 -17 70 2 l24 19 -30 15
c-39 21 -73 20 -94 -1z"/>
<path d="M226 1374 c-3 -9 -6 -20 -6 -24 0 -9 90 -53 96 -48 1 2 5 15 9 29 6
23 2 27 -37 42 -53 21 -54 21 -62 1z"/>
<path d="M218 1196 c-17 -24 -17 -25 15 -45 l32 -21 18 21 c23 28 22 32 -12
52 -36 21 -32 21 -53 -7z"/>
<path d="M542 1173 c-40 -20 -60 -52 -41 -64 21 -13 45 -11 59 6 29 34 118 -2
135 -55 6 -19 44 -28 58 -14 9 9 -14 67 -37 92 -47 52 -113 66 -174 35z"/>
<path d="M190 1101 c0 -16 9 -36 23 -48 41 -37 47 -37 47 0 0 29 -6 38 -35 56
l-35 20 0 -28z"/>
<path d="M1275 951 c-22 -10 -46 -25 -54 -34 -12 -15 -10 -19 20 -31 27 -12
35 -12 46 0 17 16 68 27 114 22 27 -2 39 -11 59 -41 20 -32 28 -37 50 -32 14
4 26 8 28 10 6 6 -26 60 -50 82 -49 46 -142 57 -213 24z"/>
<path d="M260 860 c0 -3 13 -27 29 -52 27 -42 36 -49 97 -67 38 -11 70 -18 73
-15 16 15 -34 59 -112 97 -48 24 -87 40 -87 37z"/>
<path d="M360 703 c0 -5 13 -25 30 -45 25 -30 39 -37 95 -48 36 -7 69 -10 72
-6 4 3 -8 21 -26 40 -25 26 -44 35 -84 40 -28 4 -59 12 -69 17 -10 5 -18 6
-18 2z"/>
<path d="M508 528 c38 -35 46 -38 97 -38 30 0 55 4 55 8 0 5 -12 20 -27 34
-23 21 -40 27 -97 30 l-68 4 40 -38z"/>
<path d="M628 420 c26 -24 41 -30 77 -30 55 0 62 11 25 38 -21 16 -43 22 -82
22 l-53 -1 33 -29z"/>
<path d="M726 351 c20 -20 131 -69 168 -74 44 -7 43 -6 -32 46 -42 30 -61 37
-99 37 -29 0 -43 -4 -37 -9z"/>
</g>
</svg>
