<?xml version="1.0" standalone="no"?>
<!DOCTYPE svg PUBLIC "-//W3C//DTD SVG 20010904//EN"
 "http://www.w3.org/TR/2001/REC-SVG-20010904/DTD/svg10.dtd">
<svg version="1.0" xmlns="http://www.w3.org/2000/svg"
 width="920.000000pt" height="512.000000pt" viewBox="0 0 920.000000 512.000000"
 preserveAspectRatio="xMidYMid meet">
<metadata>
Created by potrace 1.16, written by Peter Selinger 2001-2019
</metadata>
<g transform="translate(0.000000,512.000000) scale(0.100000,-0.100000)"
fill="#000000" stroke="none">
<path d="M4280 5100 c-11 -11 -22 -30 -25 -42 -4 -13 -41 -151 -83 -308 l-77
-285 -105 -5 c-99 -5 -105 -6 -117 -30 -10 -19 -13 -80 -11 -243 3 -216 3
-219 27 -238 13 -10 38 -19 57 -19 l34 0 -57 -69 c-392 -467 -638 -1137 -694
-1889 -13 -179 -13 -577 1 -739 34 -409 112 -856 169 -980 36 -77 125 -169
197 -206 27 -14 76 -30 109 -36 81 -15 1689 -15 1770 0 177 33 317 188 359
399 8 41 26 154 40 250 161 1113 14 2129 -417 2875 -53 93 -169 267 -223 335
l-43 54 32 11 c54 17 58 36 55 278 -4 262 5 247 -138 247 l-96 0 -84 316 c-65
247 -88 318 -104 330 -17 11 -72 14 -288 14 -254 0 -269 -1 -288 -20z m569
-366 c40 -146 70 -268 68 -270 -2 -2 -159 -3 -349 -2 l-344 3 58 215 c32 118
65 239 73 268 l16 52 203 0 203 0 72 -266z m311 -539 l0 -145 -587 2 -588 3 0
142 0 143 588 0 587 0 0 -145z m-55 -361 c481 -609 723 -1439 707 -2416 l-2
-98 -39 0 c-80 0 -187 31 -321 94 -166 78 -178 83 -265 101 -91 19 -303 19
-393 0 -82 -17 -138 -38 -292 -110 -146 -68 -223 -86 -370 -86 -154 0 -225 18
-400 101 -151 71 -227 96 -329 106 l-61 7 0 111 c0 143 24 433 49 606 95 634
349 1225 690 1600 l72 80 439 0 439 0 76 -96z m-1605 -2451 c30 -9 103 -40
162 -69 146 -73 233 -101 361 -114 201 -22 346 7 577 116 155 72 244 94 385
94 148 0 232 -22 415 -109 145 -69 249 -101 332 -101 72 0 71 2 58 -166 -12
-162 -62 -531 -85 -632 -28 -121 -88 -203 -183 -249 l-57 -28 -880 0 c-879 0
-880 0 -926 21 -62 29 -125 94 -155 159 -52 113 -136 644 -159 1009 l-6 99 53
-7 c29 -4 78 -14 108 -23z"/>
<path d="M4910 3291 c-49 -10 -75 -26 -103 -64 -76 -100 -102 -211 -101 -422
2 -255 57 -499 157 -696 151 -296 339 -371 464 -186 138 205 84 793 -103 1132
-65 117 -155 210 -224 229 -44 13 -54 14 -90 7z m133 -184 c32 -33 65 -85 102
-161 96 -197 145 -417 145 -650 -1 -363 -110 -462 -258 -233 -121 187 -195
466 -196 737 -1 161 10 231 45 302 40 79 88 81 162 5z"/>
<path d="M6492 4389 c-109 -15 -226 -98 -277 -198 -75 -148 -47 -319 70 -436
167 -167 437 -143 570 50 47 69 66 128 66 210 1 228 -202 405 -429 374z m162
-134 c91 -43 146 -130 146 -230 0 -71 -23 -128 -72 -177 -101 -100 -249 -103
-354 -6 -134 124 -90 349 82 418 60 24 141 22 198 -5z"/>
<path d="M6459 4167 c-69 -47 -106 -135 -75 -182 28 -43 106 -26 106 24 0 29
26 54 66 66 49 14 66 50 40 89 -22 35 -88 36 -137 3z"/>
<path d="M2669 4335 c-173 -47 -325 -197 -374 -368 -38 -132 -13 -296 63 -413
97 -150 235 -232 408 -241 159 -9 286 39 399 152 285 284 154 767 -236 870
-66 18 -197 18 -260 0z m232 -121 c81 -24 122 -48 177 -103 181 -181 150 -480
-63 -617 -267 -170 -614 20 -615 337 0 259 256 455 501 383z"/>
<path d="M2700 4099 c-50 -23 -105 -70 -126 -111 -8 -15 -19 -50 -25 -78 -14
-66 4 -100 55 -100 41 0 53 13 62 69 8 50 58 107 102 116 61 13 77 21 86 47
15 44 -14 78 -67 78 -23 0 -62 -10 -87 -21z"/>
<path d="M6151 3576 c-89 -32 -152 -123 -152 -220 0 -177 175 -287 337 -212
179 83 172 344 -11 427 -46 21 -124 23 -174 5z m149 -125 c30 -21 53 -82 44
-117 -11 -44 -61 -84 -104 -84 -77 0 -120 43 -120 118 0 32 7 47 30 71 44 44
98 48 150 12z"/>
<path d="M2690 2796 c-54 -28 -105 -92 -121 -149 -39 -146 82 -297 237 -297
85 0 188 75 214 155 20 61 9 155 -26 211 -60 97 -201 135 -304 80z m153 -100
c43 -18 67 -56 67 -107 0 -33 -6 -47 -34 -75 -102 -102 -253 38 -164 151 35
44 76 54 131 31z"/>
</g>
</svg>
