<?xml version="1.0" standalone="no"?>
<!DOCTYPE svg PUBLIC "-//W3C//DTD SVG 20010904//EN"
 "http://www.w3.org/TR/2001/REC-SVG-20010904/DTD/svg10.dtd">
<svg version="1.0" xmlns="http://www.w3.org/2000/svg"
 width="590.000000pt" height="600.000000pt" viewBox="0 0 590.000000 600.000000"
 preserveAspectRatio="xMidYMid meet">

<g transform="translate(0.000000,600.000000) scale(0.100000,-0.100000)"
fill="#000000" stroke="none">
<path d="M2820 5353 c-156 -26 -388 -166 -682 -410 l-87 -73 -188 -24 c-312
-41 -343 -57 -446 -224 -194 -314 -285 -601 -232 -730 20 -46 85 -113 150
-154 28 -18 51 -33 53 -34 2 -1 -11 -46 -28 -100 -95 -297 -150 -761 -150
-1275 l0 -146 -74 -36 c-157 -78 -194 -178 -139 -379 l16 -58 260 0 c212 0
281 -4 376 -20 746 -126 1247 -173 1517 -141 43 6 129 15 189 21 142 15 548
74 740 107 130 23 189 27 439 32 l289 6 14 40 c8 22 17 81 20 132 5 80 3 97
-16 137 -25 50 -89 103 -164 135 l-45 20 -6 63 c-3 35 -8 126 -11 203 -13 337
-76 736 -171 1079 -19 70 -34 129 -32 131 2 1 21 12 43 23 99 49 137 121 143
267 7 163 -37 356 -121 538 -84 181 -189 236 -539 282 l-190 25 -88 74 c-258
217 -601 445 -724 481 -49 15 -68 16 -116 8z m143 -159 c249 -126 744 -515
871 -685 65 -86 63 -94 -31 -108 -450 -68 -997 -79 -1358 -25 -195 28 -571
108 -588 124 -16 15 393 374 583 511 275 199 403 243 523 183z m-1139 -532
c-44 -42 -87 -87 -95 -100 l-14 -22 -51 24 c-48 22 -108 82 -98 97 12 19 239
76 309 78 29 0 27 -3 -51 -77z m2226 -23 c63 -11 116 -22 118 -23 8 -9 -104
-159 -125 -167 -32 -12 -30 -12 -37 14 -5 22 -62 113 -106 170 l-22 27 29 0
c16 0 81 -9 143 -21z m313 -167 c83 -158 146 -418 132 -548 -9 -83 -35 -121
-106 -157 -168 -84 -721 -199 -1199 -248 -185 -20 -538 -18 -685 4 -665 97
-1139 250 -1212 391 -36 70 -9 217 73 394 29 63 117 226 130 241 3 3 17 -7 32
-22 88 -84 479 -193 937 -262 380 -57 962 -36 1398 49 140 27 254 59 280 78 9
7 36 42 60 78 46 70 80 95 107 80 10 -5 33 -40 53 -78z m-2746 -862 c217 -75
536 -144 908 -196 363 -51 1025 14 1595 156 85 21 163 42 173 45 9 4 17 5 17
2 0 -3 16 -63 35 -133 106 -385 175 -893 175 -1286 l0 -97 42 -12 c49 -13 135
-54 161 -77 25 -22 39 -84 31 -142 l-7 -50 -213 0 c-195 0 -231 -3 -426 -34
-294 -48 -595 -92 -773 -113 -182 -21 -623 -24 -790 -5 -171 19 -516 69 -783
112 -229 38 -256 40 -457 40 -242 0 -225 -7 -225 92 0 58 2 63 39 99 27 25 66
46 119 65 l79 28 6 336 c9 522 45 836 129 1100 31 98 36 110 44 110 2 0 57
-18 121 -40z"/>
<path d="M2987 5074 c-14 -14 -7 -35 11 -32 9 2 17 10 17 17 0 16 -18 25 -28
15z"/>
<path d="M2480 4840 c0 -15 5 -20 18 -18 9 2 17 10 17 18 0 8 -8 16 -17 18
-13 2 -18 -3 -18 -18z"/>
<path d="M3365 4790 c-8 -14 3 -30 21 -30 8 0 14 9 14 20 0 21 -24 28 -35 10z"/>
<path d="M2262 4713 c2 -10 10 -18 18 -18 8 0 16 8 18 18 2 12 -3 17 -18 17
-15 0 -20 -5 -18 -17z"/>
<path d="M3480 4710 c0 -15 5 -20 18 -18 9 2 17 10 17 18 0 8 -8 16 -17 18
-13 2 -18 -3 -18 -18z"/>
<path d="M3270 4680 c0 -15 5 -20 18 -18 9 2 17 10 17 18 0 8 -8 16 -17 18
-13 2 -18 -3 -18 -18z"/>
<path d="M3572 4623 c2 -10 10 -18 18 -18 8 0 16 8 18 18 2 12 -3 17 -18 17
-15 0 -20 -5 -18 -17z"/>
<path d="M3347 4594 c-14 -15 -6 -34 14 -34 14 0 19 5 17 17 -3 18 -20 27 -31
17z"/>
<path d="M3444 4589 c-3 -6 -2 -15 4 -21 13 -13 32 -2 32 18 0 16 -26 19 -36
3z"/>
<path d="M2203 4574 c-8 -21 13 -42 28 -27 13 13 5 43 -11 43 -6 0 -13 -7 -17
-16z"/>
<path d="M2075 4570 c-8 -14 3 -30 21 -30 8 0 14 9 14 20 0 21 -24 28 -35 10z"/>
<path d="M3603 4543 c-18 -6 -16 -50 2 -57 8 -3 21 2 29 10 24 24 1 58 -31 47z"/>
<path d="M2357 4526 c-8 -21 16 -39 31 -24 8 8 9 15 1 25 -15 17 -25 17 -32
-1z"/>
<path d="M3212 4473 c2 -10 10 -18 18 -18 8 0 16 8 18 18 2 12 -3 17 -18 17
-15 0 -20 -5 -18 -17z"/>
<path d="M3464 4475 c-9 -23 3 -45 25 -45 23 0 35 28 20 46 -15 18 -38 18 -45
-1z"/>
<path d="M3835 3246 c-88 -19 -304 -68 -480 -109 -532 -126 -711 -152 -1035
-151 -250 0 -363 12 -557 59 -54 13 -99 23 -100 22 0 -1 13 -192 30 -425 l31
-423 61 -18 c192 -60 389 -84 670 -84 306 1 615 37 990 118 264 57 753 198
761 219 2 6 -38 193 -89 416 -68 298 -97 405 -107 407 -8 1 -87 -13 -175 -31z
m217 -391 c43 -187 78 -345 78 -351 0 -7 -8 -14 -17 -17 -10 -3 -85 -26 -168
-52 -367 -113 -746 -192 -1140 -237 -164 -19 -594 -16 -725 5 -179 29 -281 58
-289 81 -10 27 -56 684 -49 691 3 3 34 -1 69 -9 153 -35 303 -49 519 -49 319
1 547 36 1104 169 328 79 487 113 516 111 24 -2 26 -11 102 -342z"/>
<path d="M3576 2951 c-55 -14 -101 -31 -103 -37 -3 -10 92 -372 100 -380 2 -2
20 1 40 7 41 11 41 8 11 109 -20 66 -19 70 25 70 34 0 50 -9 110 -60 l70 -61
46 12 46 12 -38 39 c-21 22 -59 53 -84 69 l-46 30 34 34 c37 37 43 77 18 125
-35 67 -77 73 -229 31z m144 -61 c40 -40 18 -71 -65 -96 -30 -8 -59 -13 -64
-10 -5 3 -11 20 -15 38 -3 18 -7 37 -8 43 -3 8 90 43 120 44 6 1 21 -8 32 -19z"/>
<path d="M3215 2861 c-18 -7 -24 -33 -51 -219 -30 -211 -30 -212 -10 -211 45
1 60 15 71 65 l10 48 75 18 c75 17 75 17 90 -4 40 -57 44 -60 83 -53 20 4 37
12 37 17 0 5 -53 86 -117 178 -124 178 -130 183 -188 161z m89 -156 c20 -30
36 -57 36 -59 0 -6 -69 -26 -88 -26 -9 0 -11 15 -6 58 6 60 11 82 17 82 2 0
21 -25 41 -55z"/>
<path d="M2855 2795 c-5 -2 -22 -6 -37 -9 -39 -9 -88 -54 -109 -101 -48 -105
6 -257 104 -294 54 -21 129 -13 194 19 86 43 86 44 72 139 -14 91 -6 86 -114
68 -43 -8 -70 -17 -69 -25 1 -6 2 -21 3 -33 1 -18 6 -20 49 -17 46 3 47 2 47
-26 0 -54 -105 -86 -161 -50 -52 35 -78 137 -49 197 31 66 133 87 169 36 13
-19 18 -20 50 -9 20 6 36 17 36 24 0 19 -45 65 -75 76 -25 9 -88 12 -110 5z"/>
<path d="M2070 2774 c-62 -23 -90 -58 -90 -114 0 -43 51 -92 125 -120 74 -29
85 -37 85 -64 0 -34 -19 -46 -71 -46 -39 0 -51 5 -68 26 -12 15 -21 33 -21 40
0 10 -13 14 -40 14 -34 0 -40 -3 -40 -21 0 -12 7 -36 16 -55 23 -48 82 -74
168 -74 64 0 70 2 102 34 30 30 34 40 34 84 0 68 -24 94 -125 135 -69 28 -80
36 -80 57 0 52 93 52 123 0 14 -25 23 -30 56 -30 38 0 38 0 32 32 -12 59 -60
93 -142 102 -27 3 -56 3 -64 0z"/>
<path d="M2570 2753 c-1 -4 -1 -72 0 -150 1 -140 0 -144 -24 -168 -33 -33 -79
-33 -111 0 -24 23 -25 28 -25 170 l0 146 -42 -3 -41 -3 2 -150 c2 -170 13
-205 72 -237 27 -15 48 -18 101 -15 131 8 150 41 146 260 l-3 152 -37 3 c-21
2 -38 0 -38 -5z"/>
</g>
</svg>
