<?xml version="1.0" standalone="no"?>
<!DOCTYPE svg PUBLIC "-//W3C//DTD SVG 20010904//EN"
 "http://www.w3.org/TR/2001/REC-SVG-20010904/DTD/svg10.dtd">
<svg version="1.0" xmlns="http://www.w3.org/2000/svg"
 width="360.000000pt" height="426.000000pt" viewBox="0 0 360.000000 426.000000"
 preserveAspectRatio="xMidYMid meet">
<metadata>
Created by potrace 1.16, written by Peter Selinger 2001-2019
</metadata>
<g transform="translate(0.000000,426.000000) scale(0.100000,-0.100000)"
fill="#000000" stroke="none">
<path d="M3325 4121 c-11 -5 -30 -19 -41 -32 -12 -13 -216 -301 -454 -639
-567 -805 -586 -833 -902 -1280 -145 -205 -357 -508 -402 -572 -22 -32 -45
-58 -50 -58 -6 0 -81 50 -166 111 -85 60 -184 129 -220 152 l-64 42 -117 -2
c-198 -3 -300 -32 -339 -96 -24 -38 -25 -91 -4 -132 19 -36 17 -38 -106 -100
-81 -40 -154 -68 -264 -98 -28 -8 -52 -19 -54 -25 -2 -6 19 -26 47 -44 45 -29
50 -37 53 -73 3 -36 6 -40 27 -37 33 3 80 -19 74 -35 -3 -7 0 -20 7 -27 20
-25 112 -68 132 -62 17 4 19 1 15 -22 -8 -40 9 -70 48 -89 33 -16 40 -16 79
-2 l44 16 6 -51 c7 -64 22 -78 84 -79 45 -1 50 -3 49 -24 0 -27 29 -63 50 -63
7 0 13 -4 13 -10 0 -24 46 -7 82 30 48 51 50 38 3 -21 -41 -52 -42 -55 -14
-69 30 -17 63 -5 111 38 l41 37 -18 -35 c-21 -40 -24 -115 -6 -133 10 -9 21
-2 52 33 l39 45 -27 -53 c-20 -40 -24 -58 -17 -70 17 -26 29 -25 65 5 l33 28
-7 -24 c-8 -31 15 -86 42 -101 12 -6 21 -7 21 -3 1 4 8 -5 16 -20 11 -20 22
-27 37 -25 19 3 25 17 46 101 13 54 25 96 27 94 2 -2 -3 -43 -12 -91 -13 -79
-12 -122 5 -136 3 -3 11 -14 17 -25 8 -14 22 -20 45 -20 21 0 42 -8 58 -23 51
-46 56 -50 71 -52 32 -5 41 1 54 31 l13 31 6 -31 c4 -20 16 -35 31 -42 15 -7
26 -22 28 -37 7 -57 67 -54 79 4 l6 29 10 -25 c6 -14 32 -49 59 -78 45 -49 48
-51 66 -36 10 10 18 24 18 32 0 12 3 12 20 -3 14 -12 27 -16 47 -10 15 3 53
10 83 15 61 9 129 32 139 47 3 6 23 16 44 22 30 10 37 18 37 37 0 19 4 24 18
20 77 -21 112 -15 112 23 0 11 10 16 35 17 32 0 75 26 75 46 0 5 -26 34 -59
66 -57 56 -127 154 -170 240 -21 41 -21 45 -6 62 22 25 29 81 15 124 -16 49
-55 81 -394 320 -163 114 -296 210 -296 212 0 2 40 59 88 126 48 68 131 184
183 258 53 74 195 275 316 445 121 171 320 452 443 625 123 173 345 486 493
695 148 209 276 394 285 411 18 39 11 74 -26 114 -29 32 -74 45 -107 31z m63
-73 c7 -7 12 -21 12 -31 0 -14 -1596 -2279 -1842 -2615 -40 -54 -41 -54 -87
-24 -10 7 60 114 299 453 478 679 506 718 672 954 85 121 312 443 503 715 191
272 358 510 372 528 25 33 50 41 71 20z m-2373 -2278 c14 -5 116 -73 225 -150
177 -125 199 -143 190 -160 -6 -10 -15 -22 -20 -25 -13 -8 -13 -61 0 -85 15
-28 73 -60 109 -60 30 0 59 20 78 55 9 15 40 -4 249 -151 363 -255 423 -301
430 -328 13 -53 2 -69 -71 -108 -83 -44 -95 -46 -95 -14 0 13 -9 35 -21 50
-11 14 -318 239 -682 499 l-662 472 55 6 c93 10 187 9 215 -1z m-263 -93 c61
-42 861 -612 1145 -815 78 -56 145 -111 148 -123 10 -31 -21 -72 -48 -63 -25
8 -19 3 -267 179 -102 72 -378 268 -615 435 -236 167 -445 317 -462 334 -31
28 -44 72 -26 89 17 18 67 4 125 -36z m-84 -153 c2 -1 -36 -27 -84 -59 -76
-51 -251 -132 -261 -121 -2 2 31 23 74 46 84 45 110 64 96 73 -5 3 -51 -21
-103 -53 -52 -32 -104 -61 -115 -64 -12 -3 -35 3 -59 18 l-38 23 48 12 c103
25 272 98 348 150 l30 20 30 -21 c17 -12 32 -22 34 -24z m122 -93 c0 -8 -143
-129 -205 -173 -61 -43 -149 -80 -178 -76 -29 4 -36 38 -7 38 11 0 40 10 63
21 58 30 213 152 199 157 -7 2 -45 -21 -85 -52 -39 -30 -88 -61 -107 -69 -49
-20 -130 -31 -130 -18 0 6 5 11 11 11 16 0 132 77 243 162 l99 76 48 -35 c27
-19 49 -38 49 -42z m48 -74 c-110 -93 -171 -140 -221 -170 -60 -36 -136 -54
-163 -39 -12 7 7 20 88 60 80 40 122 69 188 131 l85 79 28 -16 28 -17 -33 -28z
m24 -13 c-5 -9 -50 -62 -100 -118 -128 -144 -256 -221 -223 -133 6 14 25 34
43 43 18 9 88 63 156 120 68 57 126 104 128 104 3 0 1 -7 -4 -16z m84 -16 l33
-22 -93 -96 c-63 -65 -107 -121 -136 -173 -23 -42 -44 -77 -47 -77 -3 0 -3 18
0 39 3 26 21 60 56 106 28 36 51 71 51 77 0 6 -33 -23 -72 -65 -44 -46 -81
-77 -93 -77 -11 0 -30 -3 -42 -6 -30 -8 -30 10 0 23 47 22 148 115 219 203 40
49 77 90 82 90 6 0 24 -10 42 -22z m94 -69 c0 -3 -14 -18 -31 -35 -72 -67
-127 -192 -136 -306 -8 -100 -25 -103 -35 -8 -3 26 -11 28 -62 15 -28 -8 -29
-7 -22 21 14 53 100 185 174 265 65 70 75 77 93 66 10 -6 19 -14 19 -18z m134
-92 c18 -13 16 -18 -42 -114 -33 -55 -74 -127 -91 -159 -34 -65 -39 -56 -15
25 8 29 13 55 10 58 -2 3 -16 -17 -30 -44 -26 -53 -91 -117 -107 -108 -14 9
-11 91 4 102 6 6 28 16 48 22 23 7 63 39 108 85 101 104 96 120 -7 22 -74 -72
-154 -112 -138 -70 3 9 6 20 6 25 0 5 5 9 11 9 23 0 108 72 148 125 44 58 46
59 95 22z m152 -108 l44 -30 -22 -32 c-80 -114 -236 -297 -254 -297 -8 0 9 56
32 101 12 25 52 83 89 129 36 47 62 86 56 88 -5 2 -60 -49 -122 -112 -116
-120 -187 -165 -83 -53 33 35 91 102 129 150 39 47 74 86 78 87 5 0 28 -14 53
-31z m43 -234 c-38 -85 -77 -185 -87 -222 -18 -64 -20 -66 -32 -44 -8 16 -10
42 -6 78 5 47 4 53 -12 53 -11 0 -27 -9 -37 -20 -10 -11 -20 -18 -22 -16 -6 5
78 153 127 226 20 30 47 74 59 98 l22 43 28 -20 29 -21 -69 -155z m163 88 l68
-46 -37 -66 c-73 -131 -143 -274 -143 -292 0 -10 -4 -21 -10 -24 -13 -8 -13 0
5 120 8 55 28 140 44 190 27 78 32 109 16 94 -11 -11 -126 -294 -136 -335 -14
-53 -26 -56 -35 -9 -4 25 0 54 16 98 28 79 132 317 138 317 3 0 36 -21 74 -47z
m126 -89 c2 -1 -11 -24 -27 -51 -48 -78 -118 -232 -135 -297 -14 -55 -28 -75
-50 -76 -25 0 22 152 96 310 58 124 74 145 97 128 9 -7 17 -13 19 -14z m85
-58 c17 -13 17 -17 -3 -101 -26 -109 -44 -248 -37 -298 4 -26 2 -37 -6 -34
-17 5 -24 49 -26 142 0 63 5 95 25 150 31 83 41 124 27 110 -14 -15 -64 -171
-79 -245 -7 -36 -21 -85 -32 -109 -19 -41 -20 -43 -32 -22 -9 17 -8 39 5 102
14 67 84 283 101 311 8 12 37 9 57 -6z m63 -47 c21 -19 21 -26 17 -147 -5
-123 5 -196 43 -332 7 -23 6 -24 -11 -10 -10 8 -27 34 -37 58 -22 50 -32 53
-44 11 -5 -17 -13 -31 -19 -32 -15 -3 -27 126 -20 218 6 90 34 255 43 255 3 0
16 -9 28 -21z m488 -101 c15 -51 47 -134 72 -185 48 -100 49 -103 34 -103 -30
0 -106 127 -156 263 -19 49 -33 91 -32 92 9 7 44 24 49 25 3 0 18 -42 33 -92z
m72 -48 c23 -36 65 -89 93 -119 28 -30 48 -58 45 -63 -7 -11 -42 -10 -49 2 -4
6 -16 10 -28 8 -26 -4 -61 56 -105 177 -44 120 -48 137 -21 95 12 -19 41 -64
65 -100z m-477 90 c28 -19 28 -19 35 -177 3 -87 11 -181 18 -210 9 -45 9 -56
-7 -79 l-18 -27 -12 24 c-17 33 -42 146 -55 254 -10 81 -6 235 7 235 3 0 17
-9 32 -20z m335 -59 c14 -44 41 -112 59 -153 26 -58 31 -77 22 -95 -5 -13 -12
-23 -15 -23 -10 0 -77 134 -93 185 -23 75 -30 152 -15 158 7 3 14 6 15 6 1 1
13 -35 27 -78z m-59 2 c10 -94 35 -179 71 -239 39 -64 40 -70 18 -78 -35 -13
-38 -9 -96 149 -24 68 -28 73 -22 35 10 -69 42 -164 64 -193 26 -33 25 -47 -3
-47 -32 0 -83 65 -98 124 -14 55 -3 220 13 210 8 -5 9 6 4 34 -5 33 -3 43 11
51 29 17 31 14 38 -46z"/>
</g>
</svg>
