<?xml version="1.0" standalone="no"?>
<!DOCTYPE svg PUBLIC "-//W3C//DTD SVG 20010904//EN"
 "http://www.w3.org/TR/2001/REC-SVG-20010904/DTD/svg10.dtd">
<svg version="1.0" xmlns="http://www.w3.org/2000/svg"
 width="360.000000pt" height="282.000000pt" viewBox="0 0 360.000000 282.000000"
 preserveAspectRatio="xMidYMid meet">
<metadata>
Created by potrace 1.16, written by Peter Selinger 2001-2019
</metadata>
<g transform="translate(0.000000,282.000000) scale(0.100000,-0.100000)"
fill="#000000" stroke="none">
<path d="M1920 2463 c-49 -8 -146 -46 -188 -75 -24 -16 -70 -64 -103 -106
-105 -135 -139 -171 -207 -225 -84 -67 -164 -103 -392 -177 -263 -85 -378
-158 -435 -274 -55 -112 -81 -542 -41 -685 63 -230 233 -373 546 -460 134 -37
463 -101 550 -108 218 -15 337 62 517 335 52 79 113 165 136 190 86 93 196
143 407 182 198 37 282 92 330 216 22 54 24 78 28 290 7 405 -15 503 -142 621
-126 118 -410 224 -718 268 -96 14 -230 18 -288 8z m412 -76 c233 -51 447
-137 551 -221 62 -51 117 -146 117 -203 0 -106 -139 -206 -337 -243 -54 -10
-147 -27 -207 -38 -237 -44 -349 -136 -486 -400 -55 -106 -114 -173 -182 -203
-77 -35 -247 -33 -408 4 -63 15 -203 44 -311 65 -275 54 -374 103 -434 214
-24 43 -29 65 -29 118 0 168 129 276 443 370 73 22 167 52 209 67 133 47 252
142 374 296 88 112 109 132 170 163 75 38 113 43 268 40 107 -3 176 -11 262
-29z m687 -959 c-15 -163 -59 -242 -157 -284 -20 -8 -102 -29 -182 -45 -309
-65 -373 -109 -541 -376 -109 -171 -187 -256 -274 -299 -56 -27 -68 -29 -170
-28 -116 1 -326 39 -575 105 -232 61 -407 173 -478 307 -56 105 -79 262 -66
454 6 106 7 110 22 82 22 -44 91 -112 147 -144 69 -39 191 -75 375 -109 85
-17 207 -41 270 -55 362 -79 493 -27 640 254 117 224 225 307 455 350 291 55
311 60 381 94 41 21 87 53 110 78 l39 43 7 -165 c4 -91 2 -208 -3 -262z"/>
<path d="M1984 1796 c-35 -15 -64 -51 -64 -78 0 -29 37 -58 74 -58 44 0 66 9
66 26 0 10 -13 14 -45 14 -38 0 -45 3 -45 19 0 27 37 51 77 51 26 0 33 -4 33
-20 0 -13 7 -20 20 -20 34 0 37 30 6 57 -31 26 -75 29 -122 9z"/>
</g>
</svg>
