<?xml version="1.0" standalone="no"?>
<!DOCTYPE svg PUBLIC "-//W3C//DTD SVG 20010904//EN"
 "http://www.w3.org/TR/2001/REC-SVG-20010904/DTD/svg10.dtd">
<svg version="1.0" xmlns="http://www.w3.org/2000/svg"
 width="900.000000pt" height="512.000000pt" viewBox="0 0 900.000000 512.000000"
 preserveAspectRatio="xMidYMid meet">
<metadata>
Created by potrace 1.16, written by Peter Selinger 2001-2019
</metadata>
<g transform="translate(0.000000,512.000000) scale(0.100000,-0.100000)"
fill="#000000" stroke="none">
<path d="M4335 5114 c-282 -28 -268 -25 -297 -55 l-28 -27 0 -232 0 -232 29
-29 c16 -16 39 -29 50 -29 26 0 27 -21 6 -117 -25 -120 -52 -182 -229 -518
-186 -352 -216 -428 -235 -580 -7 -55 -11 -304 -11 -647 l0 -557 77 -313 c77
-309 78 -315 78 -443 l0 -130 -61 -195 c-82 -260 -88 -286 -81 -389 8 -118 59
-341 91 -395 59 -100 167 -159 296 -159 41 0 92 5 113 11 34 10 42 8 86 -19
71 -44 139 -59 276 -59 146 1 193 10 267 56 55 33 59 34 100 23 24 -7 77 -12
118 -12 136 0 249 66 303 175 29 59 77 267 84 369 7 92 -9 173 -79 399 -56
177 -62 205 -66 305 l-4 110 81 333 81 334 0 561 c0 322 -5 592 -10 632 -26
178 -53 243 -263 637 -167 313 -196 385 -215 526 -8 60 -8 62 14 62 13 0 36
11 51 24 l28 24 0 242 0 242 -26 22 c-20 18 -49 26 -118 35 -94 12 -435 22
-506 15z m420 -173 l60 -6 3 -127 3 -128 -321 0 -320 0 0 125 c0 141 -7 131
95 138 91 6 419 5 480 -2z m-35 -463 c0 -57 38 -215 70 -296 17 -42 106 -218
198 -391 113 -215 173 -339 189 -394 13 -44 23 -86 23 -93 0 -12 -110 -14
-700 -14 l-700 0 0 26 c0 56 57 190 174 409 245 458 277 536 301 733 l7 52
219 0 219 0 0 -32z m490 -1823 l0 -465 -712 0 -713 0 0 465 0 465 713 0 712 0
0 -465z m-25 -647 c-2 -7 -32 -128 -65 -268 -95 -394 -94 -460 12 -790 57
-181 62 -202 62 -290 1 -107 -39 -317 -68 -362 -38 -58 -127 -78 -234 -54
-100 23 -109 21 -192 -29 l-75 -45 -128 0 c-141 0 -175 9 -233 60 -40 35 -62
37 -163 14 -112 -25 -201 -2 -234 63 -29 56 -62 244 -62 353 0 94 4 116 37
215 101 301 122 418 99 572 -6 44 -36 181 -66 304 -30 123 -57 234 -60 247
l-5 22 689 0 c548 0 690 -3 686 -12z"/>
</g>
</svg>
