<?xml version="1.0" standalone="no"?>
<!DOCTYPE svg PUBLIC "-//W3C//DTD SVG 20010904//EN"
 "http://www.w3.org/TR/2001/REC-SVG-20010904/DTD/svg10.dtd">
<svg version="1.0" xmlns="http://www.w3.org/2000/svg"
 width="800.000000pt" height="781.000000pt" viewBox="0 0 800.000000 781.000000"
 preserveAspectRatio="xMidYMid meet">
<metadata>
Created by potrace 1.16, written by Peter Selinger 2001-2019
</metadata>
<g transform="translate(0.000000,781.000000) scale(0.100000,-0.100000)"
fill="#000000" stroke="none">
<path d="M2480 6753 c-64 -22 -97 -48 -121 -96 -20 -38 -21 -52 -16 -207 3
-99 21 -299 46 -500 22 -184 38 -336 36 -339 -15 -15 -50 122 -100 389 -61
324 -79 392 -120 446 -56 73 -171 96 -265 53 -116 -52 -143 -134 -116 -345 13
-100 97 -538 160 -832 19 -86 20 -102 6 -102 -15 0 -36 58 -106 299 -70 240
-86 281 -131 323 -38 36 -73 48 -144 48 -102 0 -180 -48 -200 -124 -23 -86 25
-424 115 -799 81 -338 203 -725 369 -1167 150 -401 171 -489 171 -710 0 -106
-7 -194 -26 -325 -15 -99 -48 -362 -73 -583 -40 -345 -45 -411 -35 -455 21
-102 74 -149 182 -166 121 -20 1006 37 1482 94 353 42 444 34 623 -60 93 -49
111 -55 165 -55 74 0 137 28 182 81 47 56 290 493 451 809 88 172 172 323 212
380 100 140 317 353 492 480 472 345 606 449 848 658 265 227 530 486 708 692
106 123 122 224 47 303 -70 74 -168 88 -268 37 -33 -16 -138 -97 -240 -182
-226 -191 -214 -181 -214 -175 0 18 122 152 366 403 414 426 414 426 414 519
0 113 -102 205 -226 205 -88 0 -131 -33 -433 -333 -340 -338 -343 -322 -13 65
257 301 347 414 362 452 19 50 12 126 -15 172 -46 79 -161 132 -252 115 -98
-19 -126 -45 -458 -444 -99 -118 -181 -214 -183 -213 -4 5 77 147 181 319 100
164 113 198 104 274 -16 141 -202 231 -340 164 -62 -30 -113 -88 -247 -281
-134 -192 -241 -336 -555 -740 -293 -379 -278 -360 -290 -360 -39 1 -38 16 18
211 107 372 117 434 85 509 -59 137 -253 173 -356 67 -31 -33 -88 -141 -194
-372 -137 -296 -264 -645 -404 -1104 -76 -249 -113 -327 -198 -415 -63 -65
-194 -160 -183 -134 40 106 387 1520 387 1580 0 96 -56 158 -163 180 -96 20
-187 -17 -243 -100 -33 -48 -84 -176 -154 -387 -35 -104 -66 -194 -70 -198 -8
-9 -42 102 -65 208 -23 107 -33 304 -45 850 -6 275 -12 519 -15 543 -7 66 -39
118 -92 149 -39 22 -61 28 -134 31 -76 4 -94 1 -134 -18 -27 -13 -56 -38 -70
-59 -48 -72 -57 -136 -62 -418 -5 -245 -7 -263 -23 -263 -16 0 -19 12 -25 78
-14 172 -56 592 -66 666 -16 119 -52 177 -131 211 -47 19 -140 19 -198 -2z
m168 -119 c27 -22 45 -48 51 -72 11 -41 36 -277 81 -762 34 -364 56 -558 70
-610 5 -20 25 -50 43 -68 l34 -33 28 32 c15 18 31 42 35 54 4 11 13 225 19
475 16 662 18 697 42 747 49 101 221 97 255 -6 7 -20 14 -172 18 -370 9 -470
24 -870 36 -976 16 -137 70 -386 91 -421 10 -17 27 -38 37 -48 19 -16 21 -15
63 17 24 18 51 48 60 67 9 19 51 145 93 279 43 134 88 265 101 292 28 54 67
86 142 117 l52 21 26 -46 c14 -26 28 -56 31 -67 5 -20 -60 -306 -162 -710 -25
-100 -74 -305 -109 -456 -35 -151 -75 -302 -90 -335 -73 -163 -189 -284 -391
-410 -157 -97 -465 -326 -517 -384 -49 -54 -67 -97 -67 -159 0 -79 37 -137
164 -259 116 -112 404 -362 514 -448 l64 -49 -29 -8 c-57 -16 -332 -58 -458
-69 -174 -16 -562 -16 -760 0 -88 7 -162 15 -164 17 -5 5 28 310 69 644 71
569 60 718 -75 1051 -144 351 -200 528 -305 953 -102 415 -240 1026 -240 1063
0 47 16 72 55 89 57 23 93 18 129 -18 28 -29 44 -73 131 -357 l100 -324 83
-75 c45 -41 84 -73 85 -71 12 17 37 124 37 160 0 47 -32 222 -136 744 -93 464
-92 544 10 569 76 20 145 -47 173 -167 8 -34 55 -262 104 -507 109 -542 127
-611 177 -663 60 -63 66 -63 96 -8 17 32 26 64 26 93 0 78 -46 528 -115 1121
-14 119 -25 228 -25 241 0 46 109 145 161 146 8 0 34 -16 57 -36z m3667 -509
c18 -58 10 -94 -38 -165 -238 -351 -578 -862 -591 -887 -16 -32 -21 -88 -10
-117 8 -20 44 -21 87 -2 49 20 139 121 568 641 218 264 408 491 422 504 33 30
103 39 144 17 75 -38 101 -107 65 -173 -9 -17 -206 -251 -437 -519 -548 -635
-535 -618 -535 -703 l0 -41 48 7 c106 13 127 31 650 549 217 214 409 397 428
407 44 25 85 15 130 -29 25 -26 34 -43 34 -67 -1 -60 16 -41 -535 -597 -421
-425 -408 -408 -430 -517 l-7 -33 49 0 c26 0 65 4 86 9 42 10 200 126 475 348
213 173 243 186 301 132 20 -19 23 -28 18 -72 -4 -27 -18 -69 -32 -93 -32 -55
-388 -419 -560 -573 -271 -243 -511 -436 -835 -670 -246 -179 -357 -269 -466
-383 -181 -188 -272 -332 -619 -986 -105 -199 -120 -222 -139 -216 -12 3 -104
46 -205 95 -399 194 -700 401 -990 684 -134 131 -341 361 -341 379 0 3 22 17
48 30 27 13 127 82 223 152 96 70 228 162 294 205 269 174 364 258 475 419 89
131 148 263 243 545 46 138 107 310 135 383 91 236 325 796 340 815 9 10 44
33 78 51 l63 33 29 -46 c57 -87 58 -92 33 -183 -12 -46 -48 -164 -79 -263 -56
-176 -57 -183 -57 -297 0 -64 3 -119 6 -123 12 -12 143 62 180 102 39 40 261
319 499 623 79 102 208 266 285 365 78 99 160 208 183 242 47 70 69 84 169
111 l68 19 17 -31 c10 -17 24 -53 33 -81z m-3251 -3261 c359 -431 799 -754
1402 -1029 41 -19 74 -40 74 -47 0 -19 -52 -98 -81 -124 -58 -53 -116 -39
-316 72 -436 244 -826 529 -1159 846 -147 140 -178 203 -139 278 14 28 107
110 124 110 4 0 47 -47 95 -106z m574 -946 c50 -19 127 -72 165 -115 17 -20
17 -21 -75 -38 -329 -60 -435 -72 -943 -99 -638 -35 -669 -34 -722 19 -35 35
-41 71 -27 144 l6 31 382 0 c479 0 759 19 921 62 117 31 202 30 293 -4z"/>
</g>
</svg>
