<?xml version="1.0" standalone="no"?>
<!DOCTYPE svg PUBLIC "-//W3C//DTD SVG 20010904//EN"
 "http://www.w3.org/TR/2001/REC-SVG-20010904/DTD/svg10.dtd">
<svg version="1.0" xmlns="http://www.w3.org/2000/svg"
 width="225.000000pt" height="225.000000pt" viewBox="0 0 225.000000 225.000000"
 preserveAspectRatio="xMidYMid meet">

<g transform="translate(0.000000,225.000000) scale(0.100000,-0.100000)"
fill="#000000" stroke="none">
<path d="M983 2009 c-12 -4 -24 -17 -28 -28 -3 -12 -11 -21 -16 -21 -6 0 -9
-17 -7 -37 l3 -38 55 0 c51 0 55 2 58 25 5 31 -15 97 -31 103 -6 2 -22 1 -34
-4z m35 -46 c21 -46 16 -59 -24 -60 -39 -1 -58 22 -33 41 9 6 18 19 22 29 9
24 20 21 35 -10z"/>
<path d="M746 1874 c-9 -8 -16 -20 -16 -26 0 -5 -9 -21 -20 -35 -25 -32 -26
-85 -2 -106 20 -18 67 -23 76 -8 3 5 23 7 44 4 36 -5 40 -3 51 26 17 41 2 83
-45 127 -39 37 -64 42 -88 18z m58 -37 c-1 -10 5 -17 16 -17 20 0 35 -16 42
-46 11 -44 -30 -73 -51 -36 -9 16 -11 15 -26 -5 -30 -43 -79 -20 -73 34 2 17
11 32 26 38 14 6 22 18 22 33 0 19 5 23 23 20 14 -2 21 -9 21 -21z"/>
<path d="M1022 1788 c-7 -7 -12 -19 -12 -27 0 -8 -9 -25 -21 -37 -40 -43 4
-129 55 -106 13 6 33 8 45 5 16 -4 23 1 31 23 13 34 7 63 -26 115 -25 39 -50
49 -72 27z m46 -42 c2 -10 13 -27 24 -38 24 -24 20 -53 -9 -53 -12 0 -25 -3
-29 -7 -29 -29 -81 25 -54 57 7 8 19 15 26 15 10 0 13 7 8 26 -6 22 -4 25 12
22 10 -2 20 -11 22 -22z"/>
<path d="M809 1585 c-20 -22 -24 -23 -43 -10 -11 8 -32 15 -47 15 -33 0 -79
-35 -79 -60 0 -14 -7 -18 -36 -17 -41 1 -71 -27 -81 -75 -4 -21 -11 -28 -30
-28 -75 0 -132 -63 -119 -133 7 -40 41 -87 62 -87 19 0 18 -6 -11 -97 -34
-110 -114 -260 -197 -372 -105 -143 -119 -171 -119 -234 0 -56 20 -118 48
-149 8 -9 36 -25 62 -34 25 -9 68 -27 95 -40 66 -32 189 -33 294 -4 l73 20 66
-20 c96 -29 195 -27 261 6 l53 26 63 -17 c47 -13 89 -16 153 -13 107 5 153 27
176 87 9 21 27 45 40 54 65 42 43 117 -146 496 -106 214 -147 306 -138 309 73
24 64 147 -14 193 -19 12 -35 25 -35 29 0 5 -8 11 -18 15 -11 3 -24 17 -30 30
-7 14 -20 29 -29 32 -10 4 -30 20 -46 36 -24 26 -32 29 -65 24 -31 -5 -41 -2
-61 18 -31 33 -74 33 -102 0z m101 -46 c21 -28 23 -29 41 -13 24 22 67 11 79
-21 5 -13 19 -25 31 -27 43 -6 29 -23 -20 -25 -28 -1 -70 -10 -94 -21 -40 -18
-48 -18 -108 -5 -80 17 -153 9 -201 -22 -31 -21 -41 -23 -67 -14 -35 12 -41
41 -15 77 16 23 58 30 69 12 12 -19 22 -10 34 30 19 65 57 76 101 29 l28 -31
16 30 c31 59 65 60 106 1z m220 -129 c15 -16 35 -30 43 -30 24 0 57 -49 57
-84 0 -46 -13 -59 -51 -54 -22 3 -44 -1 -64 -13 -37 -23 -55 -24 -99 -3 -33
16 -35 16 -68 -10 -42 -31 -90 -34 -134 -7 -29 18 -31 18 -53 0 -29 -24 -110
-25 -157 -3 -27 13 -39 14 -68 4 -41 -13 -71 -6 -105 24 -50 45 -47 108 5 137
33 17 118 15 148 -4 22 -15 25 -15 42 5 45 49 139 63 228 33 42 -14 47 -14 83
4 54 27 63 29 116 30 42 1 53 -3 77 -29z m-55 -219 c11 -1 33 6 49 14 16 9 30
14 31 13 2 -2 70 -136 152 -298 194 -386 224 -476 163 -495 -11 -4 -30 -27
-43 -53 -33 -69 -71 -87 -177 -86 -49 1 -104 8 -130 18 -60 21 -71 20 -127
-10 -44 -23 -56 -25 -138 -22 -62 3 -102 11 -130 24 l-40 20 -75 -24 c-53 -17
-100 -24 -160 -25 -77 -1 -90 2 -144 31 -32 18 -66 32 -75 32 -49 0 -101 81
-101 155 0 51 17 91 65 150 103 128 208 319 253 460 23 72 30 85 49 85 12 0
33 4 48 10 19 7 34 6 55 -5 37 -19 139 -19 163 -1 16 12 24 12 52 0 50 -21 96
-17 133 10 30 22 35 23 70 10 20 -7 46 -13 57 -13z"/>
<path d="M1105 940 c-12 -4 -27 -15 -34 -24 -9 -11 -18 -13 -30 -6 -26 13 -43
-3 -35 -33 9 -37 -9 -34 -23 3 -14 37 -53 43 -53 8 0 -21 -1 -21 -28 5 -65 63
-119 18 -137 -115 -6 -44 -7 -46 -32 -39 -25 7 -27 10 -24 64 1 32 6 71 11 87
12 41 -3 47 -130 49 l-105 2 -39 -151 c-21 -83 -37 -152 -35 -154 15 -13 51
-26 58 -21 5 2 14 28 21 56 12 50 13 51 46 45 27 -6 35 -3 44 14 17 32 8 63
-20 70 -16 4 -25 13 -25 25 0 16 8 21 35 23 58 4 60 -1 40 -116 l-17 -104 26
-10 c14 -5 51 -10 81 -11 47 -2 55 1 58 18 1 11 5 31 8 45 l6 25 14 -27 c17
-32 43 -48 79 -48 40 0 61 16 79 59 l15 40 30 -29 c48 -48 77 -37 96 36 l12
49 9 -55 c9 -55 9 -55 48 -58 l39 -3 -6 35 c-3 20 -2 36 2 36 4 0 22 -18 40
-41 l33 -40 24 22 c33 31 30 49 -16 94 -36 35 -39 42 -34 76 7 44 -7 74 -46
94 -32 17 -54 18 -85 5z m-475 -44 l0 -33 -51 5 c-57 5 -69 -3 -69 -50 0 -19
5 -28 16 -28 8 0 24 -5 35 -10 16 -9 17 -15 9 -31 -9 -16 -17 -19 -45 -13 -36
6 -36 6 -50 -64 -5 -24 -12 -32 -23 -30 -24 5 -21 42 13 170 l28 107 36 4 c99
10 101 10 101 -27z m560 19 c39 -20 49 -54 22 -75 -20 -17 -20 -18 33 -70 51
-51 54 -55 38 -72 -15 -17 -18 -16 -64 27 -27 25 -50 45 -53 45 -3 0 -3 -21 1
-46 6 -44 5 -46 -17 -42 -20 3 -26 15 -48 107 l-25 105 23 18 c27 22 52 23 90
3z m-490 -40 c-2 -22 -4 -65 -5 -95 0 -53 1 -55 30 -60 28 -5 30 -8 27 -45 -2
-22 -7 -44 -12 -48 -6 -7 -117 7 -126 16 -5 5 35 223 46 252 7 17 16 25 27 23
15 -3 17 -11 13 -43z m200 -3 c77 -78 50 -232 -40 -232 -75 0 -107 160 -48
235 25 33 53 32 88 -3z m75 -14 c6 -18 17 -33 25 -33 10 0 16 12 18 33 4 43
16 40 36 -8 20 -51 21 -133 2 -150 -26 -21 -60 -8 -78 30 -22 47 -39 160 -23
160 6 0 15 -15 20 -32z"/>
<path d="M1126 875 c-9 -25 5 -46 28 -43 15 2 20 9 18 23 -6 33 -36 46 -46 20z"/>
<path d="M834 793 c-8 -32 6 -58 32 -58 21 0 29 24 20 61 -9 34 -44 32 -52 -3z
m41 -14 c8 -23 1 -34 -14 -24 -13 8 -15 45 -2 45 5 0 13 -9 16 -21z"/>
<path d="M869 495 c-15 -8 -30 -22 -33 -31 -11 -29 3 -28 25 0 19 24 28 27 65
24 27 -2 43 1 41 7 -5 16 -69 16 -98 0z"/>
<path d="M1123 499 c-34 -13 -28 -21 11 -14 27 5 36 3 45 -12 11 -17 12 -17 9
1 -4 24 -36 36 -65 25z"/>
<path d="M305 460 c-4 -6 7 -10 25 -10 17 0 45 -7 61 -16 43 -22 49 -10 8 15
-36 22 -84 28 -94 11z"/>
<path d="M1802 535 c-11 -13 -25 -38 -32 -54 -10 -24 -19 -30 -48 -33 -26 -2
-40 -9 -46 -24 -5 -12 -24 -27 -42 -33 -36 -13 -61 -64 -49 -101 6 -19 15 -20
129 -20 68 0 157 -3 198 -6 l76 -7 11 35 c15 45 1 85 -33 94 -22 5 -24 12 -28
71 -3 54 -8 69 -27 84 -34 27 -85 25 -109 -6z m98 -22 c19 -24 21 -36 16 -84
l-5 -55 32 -10 c28 -8 32 -13 32 -44 l0 -35 -60 5 c-33 3 -115 5 -182 5 -118
0 -122 1 -126 22 -5 28 21 53 56 53 21 0 26 5 29 28 4 32 37 42 61 18 13 -13
15 -11 21 26 7 45 53 98 85 98 11 0 29 -12 41 -27z"/>
<path d="M2058 319 c-21 -12 -23 -40 -6 -57 7 -7 29 -12 50 -12 37 0 38 1 38
34 0 44 -39 61 -82 35z m62 -33 c0 -10 -9 -14 -27 -12 -36 5 -35 4 -28 16 10
16 55 12 55 -4z"/>
</g>
</svg>
