<?xml version="1.0" standalone="no"?>
<!DOCTYPE svg PUBLIC "-//W3C//DTD SVG 20010904//EN"
 "http://www.w3.org/TR/2001/REC-SVG-20010904/DTD/svg10.dtd">
<svg version="1.0" xmlns="http://www.w3.org/2000/svg"
 width="800.000000pt" height="800.000000pt" viewBox="0 0 800.000000 800.000000"
 preserveAspectRatio="xMidYMid meet">
<metadata>
Created by potrace 1.16, written by Peter Selinger 2001-2019
</metadata>
<g transform="translate(0.000000,800.000000) scale(0.100000,-0.100000)"
fill="#000000" stroke="none">
<path d="M3695 7314 c-63 -20 -147 -76 -184 -122 -77 -99 -91 -166 -91 -442 0
-186 2 -210 20 -245 11 -22 20 -41 20 -42 0 -2 -154 -126 -342 -277 -189 -150
-373 -305 -410 -344 -80 -85 -146 -194 -188 -310 -64 -176 -61 -73 -58 -2307
l3 -2030 28 -80 c71 -201 209 -340 409 -413 l73 -27 1025 0 1025 0 73 27 c201
73 338 212 410 417 l27 76 0 2070 c0 2293 5 2112 -65 2292 -56 146 -200 337
-279 370 -80 34 -171 -29 -171 -120 0 -37 15 -60 99 -159 30 -35 71 -99 92
-143 64 -134 69 -176 69 -611 l0 -384 -1280 0 -1280 0 0 388 c0 300 4 403 15
457 21 101 92 239 162 313 32 34 202 176 378 317 l320 255 405 0 405 0 143
-114 c78 -63 156 -118 172 -121 68 -15 130 25 151 95 19 62 -7 100 -146 212
-66 54 -135 110 -153 125 l-33 28 20 40 c19 36 21 57 21 246 0 113 -5 230 -10
259 -24 128 -101 228 -218 283 l-67 32 -270 2 c-221 2 -279 -1 -320 -13z m569
-265 c37 -29 56 -71 56 -124 l0 -45 -320 0 -320 0 0 45 c0 53 19 95 56 124 25
20 38 21 264 21 226 0 239 -1 264 -21z m-4 -489 l0 -60 -260 0 -260 0 0 60 0
60 260 0 260 0 0 -60z m1020 -3200 l0 -900 -1280 0 -1280 0 0 900 0 900 1280
0 1280 0 0 -900z m-2 -1647 l-3 -498 -27 -58 c-38 -80 -115 -158 -191 -193
l-62 -29 -995 0 -995 0 -57 27 c-80 37 -152 107 -191 187 l-32 66 -3 497 -3
498 1281 0 1281 0 -3 -497z"/>
<path d="M3233 3985 c-106 -32 -197 -116 -233 -211 -19 -51 -20 -77 -20 -414
0 -344 1 -362 22 -417 31 -85 121 -171 209 -201 63 -22 77 -23 328 -20 l263 3
34 37 c27 30 34 46 34 78 0 50 -20 91 -57 116 -25 17 -51 19 -263 22 -129 1
-245 5 -258 7 -12 3 -31 20 -42 38 -19 30 -20 51 -20 337 0 286 1 307 20 337
11 18 30 35 42 38 13 2 129 6 258 7 258 3 273 7 306 69 31 60 12 127 -45 166
-33 22 -40 23 -285 22 -178 0 -263 -4 -293 -14z"/>
<path d="M4194 3981 c-67 -41 -64 -8 -64 -623 l0 -558 34 -38 34 -37 364 -3
c331 -3 366 -2 396 14 51 27 62 58 62 179 0 116 -10 144 -61 171 -34 17 -96
18 -127 0 -28 -15 -62 -64 -62 -88 0 -17 -16 -18 -195 -18 l-195 0 0 466 c0
413 -2 469 -16 494 -35 58 -111 77 -170 41z"/>
</g>
</svg>
