<?xml version="1.0" standalone="no"?>
<!DOCTYPE svg PUBLIC "-//W3C//DTD SVG 20010904//EN"
 "http://www.w3.org/TR/2001/REC-SVG-20010904/DTD/svg10.dtd">
<svg version="1.0" xmlns="http://www.w3.org/2000/svg"
 width="600.000000pt" height="600.000000pt" viewBox="0 0 600.000000 600.000000"
 preserveAspectRatio="xMidYMid meet">
<metadata>
Created by potrace 1.16, written by Peter Selinger 2001-2019
</metadata>
<g transform="translate(0.000000,600.000000) scale(0.100000,-0.100000)"
fill="#000000" stroke="none">
<path d="M3485 5694 c-49 -7 -288 -38 -530 -69 -725 -92 -954 -127 -966 -147
-16 -25 -20 -111 -17 -340 l3 -237 -26 -28 c-39 -43 -60 -76 -141 -228 -79
-149 -335 -540 -451 -690 -38 -49 -85 -121 -103 -160 -31 -62 -34 -78 -34
-157 0 -105 23 -663 50 -1193 11 -214 24 -534 30 -710 19 -591 38 -683 165
-792 82 -71 290 -183 517 -278 73 -31 222 -97 332 -146 186 -85 491 -198 599
-222 37 -9 55 -8 80 2 18 7 53 17 78 21 25 5 77 27 115 51 38 23 99 55 135 70
54 23 763 260 1134 379 156 50 243 110 289 197 40 79 46 300 21 793 -23 442
-48 692 -140 1400 -19 146 -39 315 -45 375 -20 215 -24 229 -99 310 -36 39
-88 111 -116 159 -161 280 -379 638 -456 748 -144 205 -153 235 -164 548 -5
164 -19 268 -44 333 -10 25 -14 27 -68 26 -32 -1 -98 -8 -148 -15z m174 -136
c10 -73 31 -329 31 -383 0 -15 -7 -20 -27 -21 -16 0 -53 -2 -83 -5 l-55 -4 0
95 c0 52 -5 103 -11 113 -10 17 -11 17 -25 1 -10 -12 -13 -43 -11 -119 l3
-103 -52 -7 c-38 -5 -54 -4 -61 6 -5 8 -7 59 -3 119 4 82 3 109 -8 124 -14 19
-15 19 -28 -5 -10 -17 -13 -58 -12 -145 l2 -121 -50 -11 c-95 -22 -89 -33 -89
142 0 88 -4 157 -10 161 -5 3 -16 -5 -25 -18 -12 -18 -15 -51 -13 -148 0 -68
-2 -133 -5 -144 -5 -15 -24 -25 -71 -38 -86 -23 -105 -22 -110 6 -3 12 -7 69
-8 127 -4 116 -10 139 -35 118 -14 -11 -15 -33 -10 -150 l7 -137 -38 -11 c-20
-6 -55 -13 -78 -16 -39 -6 -41 -5 -47 22 -3 16 -1 76 5 134 10 105 3 160 -22
160 -16 0 -21 -41 -23 -189 l-2 -141 -35 -9 c-19 -6 -57 -11 -85 -13 l-50 -3
-5 125 c-3 69 -10 134 -16 144 -11 19 -12 18 -24 -3 -10 -19 -16 -232 -7 -273
2 -11 -181 -53 -191 -44 -2 3 -7 71 -12 153 -8 145 -14 183 -30 183 -23 0 -29
-66 -19 -197 5 -75 8 -142 5 -149 -4 -10 -29 -14 -96 -14 l-90 0 0 279 0 279
48 6 c459 57 772 97 1117 146 231 32 425 58 431 59 7 1 16 -31 23 -81z m35
-464 c3 -9 6 -35 6 -58 0 -34 9 -56 41 -102 178 -258 297 -446 513 -816 70
-119 125 -222 122 -227 -4 -5 -22 -7 -41 -4 -30 5 -36 2 -46 -20 -9 -21 -25
-29 -83 -43 -111 -27 -486 -134 -761 -217 -426 -130 -572 -168 -601 -157 -84
32 -1080 322 -1292 376 -64 16 -71 20 -55 32 33 24 199 70 383 107 102 21 255
57 340 81 207 60 229 62 257 32 21 -22 250 -382 321 -503 55 -95 92 -129 92
-85 0 29 -16 58 -118 211 -49 74 -137 213 -194 309 -142 238 -451 790 -445
796 2 2 67 14 143 25 189 27 290 47 709 139 328 71 461 98 696 139 4 0 10 -6
13 -15z m-1579 -368 c30 -46 91 -155 136 -242 45 -87 98 -181 117 -208 38 -54
66 -115 58 -124 -3 -3 -176 -44 -383 -92 -208 -48 -436 -104 -506 -125 -71
-20 -130 -35 -132 -33 -2 2 53 84 121 183 180 261 288 431 356 564 89 170 81
161 133 161 l45 0 55 -84z m2256 -912 l10 -27 23 22 c22 21 25 21 40 6 34 -34
47 -78 56 -185 6 -60 21 -178 35 -262 48 -299 112 -862 140 -1238 22 -291 37
-949 24 -1026 -21 -122 -63 -154 -299 -226 -289 -87 -1008 -337 -1257 -437
l-53 -21 -4 23 c-2 12 -21 267 -41 567 -20 300 -51 768 -70 1040 -64 921 -86
1333 -72 1342 18 11 124 42 262 77 66 17 215 59 330 95 287 88 369 111 520
146 171 40 314 89 326 112 13 24 18 23 30 -8z m-2768 -55 c284 -72 1228 -347
1244 -363 1 -1 7 -92 13 -201 6 -110 21 -362 35 -560 14 -198 32 -488 40 -645
9 -157 29 -436 45 -620 57 -652 67 -913 37 -967 -9 -18 -28 -35 -41 -39 -41
-10 -393 115 -657 234 -134 60 -294 130 -356 155 -302 124 -493 253 -540 365
-32 77 -43 188 -53 540 -5 194 -11 356 -14 361 -3 4 -10 138 -16 297 -6 159
-17 390 -25 514 -8 124 -15 367 -16 540 0 267 2 323 16 370 16 51 31 80 42 80
3 0 114 -27 246 -61z"/>
<path d="M4363 2991 c-42 -77 -74 -122 -82 -117 -5 3 -12 31 -16 61 -7 60 -16
66 -64 41 -40 -21 -93 -84 -87 -104 15 -46 46 -217 52 -283 l6 -75 -63 0 -63
1 -8 35 c-4 19 -17 104 -28 189 -11 85 -23 157 -25 160 -10 9 -116 -30 -137
-51 -24 -24 -24 -32 22 -345 l35 -233 25 0 c14 0 69 11 121 25 104 27 146 30
183 14 30 -14 87 -4 117 20 22 18 23 20 11 86 -7 37 -11 70 -8 73 10 9 34 -19
65 -72 30 -55 53 -72 76 -59 7 5 34 27 59 51 l47 43 -55 67 c-31 37 -74 88
-97 114 l-41 47 17 53 c10 29 28 74 41 100 13 26 24 56 24 66 0 10 -25 42 -55
72 l-54 53 -18 -32z m63 -84 c5 -15 -49 -169 -72 -205 -13 -20 -13 -25 5 -50
11 -15 45 -52 76 -82 61 -60 90 -104 81 -126 -10 -27 -33 -13 -86 52 -29 36
-68 77 -87 91 -32 24 -35 25 -51 10 -14 -15 -15 -23 -3 -74 34 -153 34 -159
-6 -169 -13 -4 -25 -5 -27 -3 -2 2 -16 83 -30 179 -15 96 -34 200 -42 231 -19
76 -18 113 5 133 22 20 27 15 36 -39 12 -69 15 -75 41 -75 18 0 32 12 54 48
16 26 36 57 45 70 18 24 53 30 61 9z m-473 -139 c9 -40 21 -122 28 -183 6 -60
17 -116 24 -123 10 -11 23 -12 69 -2 30 6 60 9 66 5 5 -3 10 -28 10 -56 0 -44
-2 -49 -22 -49 -13 0 -56 -7 -95 -17 -40 -9 -76 -14 -79 -10 -9 8 -49 276 -58
385 -7 72 -5 86 10 103 9 10 20 19 24 19 4 0 14 -33 23 -72z"/>
<path d="M3651 2813 l-22 -18 35 -190 c19 -104 37 -217 40 -250 l6 -60 -34 70
c-19 39 -70 149 -112 245 -43 96 -79 176 -80 178 -1 2 -11 -2 -22 -9 -25 -16
-46 -62 -67 -149 -9 -36 -20 -69 -25 -74 -12 -12 -65 73 -92 147 -20 56 -21
57 -60 57 -21 0 -54 -6 -72 -14 l-33 -14 -6 -322 c-3 -178 -4 -327 -1 -332 3
-4 40 -8 84 -8 85 0 90 3 90 63 0 42 19 109 29 103 4 -3 18 -34 31 -68 12 -35
26 -67 30 -71 10 -11 170 33 170 47 0 6 -5 28 -11 49 -14 52 -4 58 18 11 15
-33 23 -39 53 -42 19 -1 58 4 85 11 39 10 51 18 53 35 3 18 10 22 43 22 41 0
78 14 91 34 14 21 8 72 -22 176 -20 69 -34 145 -40 221 -5 64 -15 128 -21 143
-11 23 -18 26 -64 26 -35 0 -60 -6 -74 -17z m94 -80 c4 -27 20 -115 35 -198
43 -229 44 -241 26 -248 -29 -11 -52 67 -85 289 -12 77 -25 154 -30 172 -9 31
-8 32 19 32 27 0 29 -3 35 -47z m-488 -107 c48 -89 66 -112 105 -132 25 -13
28 -12 46 11 11 14 25 56 32 93 6 37 15 73 19 80 5 8 27 -28 60 -100 29 -62
78 -166 109 -231 60 -127 60 -137 0 -137 -21 0 -32 10 -57 53 -17 28 -41 65
-55 81 -21 25 -27 28 -40 17 -19 -16 -21 -96 -5 -154 6 -22 8 -41 6 -43 -3 -3
-20 -7 -39 -10 -34 -6 -35 -6 -62 57 -29 68 -66 129 -78 129 -14 0 -39 -60
-49 -118 -18 -107 -15 -102 -59 -102 l-39 0 5 283 c3 155 7 288 9 295 3 7 15
12 27 10 17 -2 34 -24 65 -82z"/>
<path d="M1506 1895 c-6 -17 10 -27 79 -48 28 -8 78 -26 112 -41 63 -26 127
-34 138 -17 10 17 -84 64 -184 93 -109 32 -137 34 -145 13z"/>
<path d="M1559 1774 c-16 -20 -2 -34 66 -65 74 -33 286 -92 296 -81 4 4 3 16
-1 28 -6 15 -29 26 -91 43 -46 13 -123 38 -171 55 -71 27 -90 31 -99 20z"/>
<path d="M1533 1682 c-11 -28 48 -67 138 -91 46 -13 98 -31 114 -41 52 -31 73
-33 85 -11 13 25 1 32 -191 105 -118 45 -141 52 -146 38z"/>
<path d="M1520 1532 c0 -37 13 -140 28 -229 l28 -163 94 -60 c92 -59 177 -95
192 -81 17 15 27 150 18 246 -5 55 -9 127 -10 160 l0 61 -157 61 c-87 34 -166
64 -175 67 -16 5 -18 -2 -18 -62z m195 -63 l100 -37 6 -89 c4 -48 7 -133 8
-189 l1 -101 -52 26 c-29 14 -72 34 -96 45 -57 24 -82 65 -82 133 0 29 -9 99
-20 155 -11 57 -20 106 -20 110 0 4 12 2 28 -4 15 -6 72 -28 127 -49z"/>
</g>
</svg>
