<?xml version="1.0" standalone="no"?>
<!DOCTYPE svg PUBLIC "-//W3C//DTD SVG 20010904//EN"
 "http://www.w3.org/TR/2001/REC-SVG-20010904/DTD/svg10.dtd">
<svg version="1.0" xmlns="http://www.w3.org/2000/svg"
 width="612.000000pt" height="505.000000pt" viewBox="0 0 612.000000 505.000000"
 preserveAspectRatio="xMidYMid meet">
<metadata>
Created by potrace 1.16, written by Peter Selinger 2001-2019
</metadata>
<g transform="translate(0.000000,505.000000) scale(0.100000,-0.100000)"
fill="#000000" stroke="none">
<path d="M3510 4328 c-90 -19 -116 -28 -165 -60 -27 -17 -54 -31 -58 -30 -13
4 -69 -46 -100 -89 -16 -22 -35 -39 -42 -39 -18 0 -65 -96 -65 -132 0 -18 -5
-28 -15 -28 -8 0 -15 -4 -15 -9 0 -4 -32 -6 -71 -3 -87 6 -265 -15 -338 -40
-82 -28 -143 -66 -137 -86 4 -13 -9 -23 -57 -43 -50 -22 -106 -32 -292 -53
-126 -15 -282 -33 -345 -41 -63 -8 -173 -22 -245 -31 -134 -16 -189 -33 -200
-62 -4 -9 -6 -124 -6 -254 l1 -238 -27 -6 c-55 -12 -63 -16 -93 -41 -41 -34
-60 -73 -60 -123 0 -46 -15 -52 -58 -20 -39 29 -131 36 -216 16 -197 -47 -344
-196 -392 -402 -28 -119 2 -231 70 -259 19 -8 47 -28 64 -45 17 -16 39 -30 49
-30 11 0 32 -14 48 -30 35 -36 70 -43 38 -7 -11 12 -33 44 -48 70 -46 80 -34
186 28 254 26 29 14 43 -14 17 -49 -44 -85 -154 -70 -210 13 -46 -7 -42 -32 7
-14 27 -17 50 -14 109 3 41 8 84 11 95 4 11 -1 7 -10 -10 -11 -19 -19 -59 -22
-107 -3 -43 -8 -78 -12 -78 -3 0 -17 12 -31 26 -22 23 -24 34 -24 117 0 82 3
98 30 150 42 82 117 171 187 223 103 75 239 103 322 66 l38 -17 -77 -23 c-43
-13 -75 -25 -73 -28 3 -3 39 4 79 16 76 21 169 27 169 11 0 -5 -6 -12 -12 -14
-7 -3 3 -6 23 -6 19 -1 44 -7 54 -15 18 -13 17 -15 -20 -25 -59 -16 -80 -34
-30 -25 22 4 69 10 105 14 36 4 57 8 48 9 -10 0 -42 17 -72 36 -43 27 -57 43
-69 77 l-15 43 -1 -38 c-1 -57 -21 -35 -21 23 0 92 81 143 187 120 57 -13 95
-36 188 -110 117 -93 254 -193 396 -287 119 -80 183 -120 437 -281 37 -23 128
-79 202 -123 74 -45 185 -114 245 -155 61 -40 152 -95 203 -122 52 -27 93 -53
92 -58 -1 -5 4 -10 11 -13 7 -2 9 1 5 8 -7 11 47 -16 269 -134 164 -87 542
-293 595 -325 110 -65 319 -179 510 -279 142 -74 205 -113 233 -143 52 -57 48
-79 -7 -31 -43 37 -165 107 -506 288 -487 260 -595 317 -666 358 -140 78 -179
99 -169 88 20 -20 600 -357 982 -570 329 -182 373 -214 373 -266 0 -17 -11
-27 -49 -44 -27 -11 -60 -20 -73 -20 -19 1 -18 3 7 8 25 6 18 8 -39 14 -125
14 -172 37 -834 409 -155 87 -290 162 -300 165 -56 19 317 -212 556 -344 306
-169 320 -179 120 -85 -173 80 -280 140 -578 321 -160 97 -238 174 -298 293
-57 113 -76 123 -211 114 -107 -7 -157 -1 -165 21 -4 11 -1 13 14 8 11 -3 62
-7 112 -7 154 -1 215 41 168 116 -26 44 -42 47 -27 6 15 -40 2 -60 -54 -82
-49 -19 -205 -25 -194 -8 3 5 -5 15 -19 21 -21 10 -44 39 -31 39 4 0 72 -32
107 -51 10 -5 23 -9 30 -9 7 0 -22 20 -64 43 -43 24 -81 46 -84 50 -10 9 118
-43 131 -53 6 -5 24 -14 39 -20 26 -9 27 -9 16 5 -7 8 -17 15 -22 15 -14 0
-200 102 -195 107 3 2 32 -9 66 -26 67 -34 91 -40 71 -17 -6 8 -44 31 -83 52
-40 20 -79 43 -87 51 -19 19 -12 17 77 -30 79 -40 92 -44 74 -23 -11 13 -41
32 -189 119 -18 11 -31 21 -29 24 3 2 76 -32 163 -76 88 -44 172 -85 188 -91
25 -9 27 -9 17 4 -14 17 -64 45 -236 136 -122 64 -297 174 -483 302 -114 78
-150 89 -47 13 36 -26 65 -48 65 -50 0 -1 -24 6 -52 16 -66 23 -217 25 -306 4
-60 -14 -148 -52 -140 -60 2 -2 33 5 68 16 86 26 249 42 321 30 61 -10 138
-45 179 -81 22 -19 22 -20 3 -11 -79 39 -288 55 -388 30 -84 -20 -191 -75
-244 -124 -124 -116 -145 -262 -55 -381 49 -64 104 -79 162 -44 44 27 60 62
42 95 -7 14 -11 27 -9 29 11 11 62 -9 76 -31 15 -22 15 -27 0 -59 -21 -42 -21
-44 -3 -44 22 0 46 40 46 77 0 49 -35 82 -93 89 -27 3 -63 14 -80 25 -18 10
-39 19 -48 19 -9 0 -24 9 -34 20 -10 11 -30 20 -44 20 l-26 0 33 -26 c37 -29
41 -50 11 -59 -13 -4 -17 -11 -12 -16 11 -11 57 3 68 21 4 7 16 5 36 -7 34
-21 35 -23 9 -53 -26 -30 -25 -32 7 -24 27 7 27 7 12 -17 -26 -38 -56 -36
-101 8 -74 71 -96 159 -58 234 78 151 319 242 562 211 89 -11 197 -59 276
-122 89 -70 222 -301 234 -405 3 -28 1 -30 -27 -27 -50 5 -128 33 -173 64 -67
44 -117 67 -171 79 -47 10 -92 36 -216 124 -30 22 -89 48 -148 66 -111 35
-136 34 -49 0 82 -34 156 -76 228 -131 61 -47 108 -67 212 -90 37 -9 66 -24
100 -54 67 -59 88 -71 163 -90 83 -20 94 -20 116 3 13 13 39 20 88 25 39 3 97
9 130 12 77 8 100 -9 155 -114 22 -42 53 -93 69 -113 34 -41 319 -239 465
-323 55 -32 193 -104 307 -162 415 -209 604 -238 716 -111 42 48 57 104 43
159 -16 56 -47 85 -165 147 -55 30 -158 87 -230 126 -71 40 -267 143 -435 230
-168 86 -343 177 -388 202 l-84 46 74 28 c40 16 145 43 233 60 310 59 452 90
660 144 116 31 280 73 365 95 175 45 281 80 292 95 11 14 9 258 -2 335 -23
165 -29 284 -22 453 8 196 0 348 -22 400 -10 26 -24 37 -62 51 -27 10 -103 42
-169 71 -66 30 -176 74 -245 98 -190 69 -553 218 -666 275 -132 66 -210 92
-279 92 l-55 0 0 38 c0 20 7 55 15 77 18 52 19 145 1 187 -8 18 -21 48 -28 66
-12 30 -15 32 -63 31 -27 -1 -70 -6 -95 -11z m104 -39 c-19 -22 -19 -22 7 -16
24 6 27 3 33 -24 3 -17 6 -45 6 -61 0 -19 4 -27 11 -22 20 12 0 -76 -31 -141
-30 -62 -31 -77 -5 -55 12 10 15 10 15 0 0 -25 -32 -78 -70 -115 -37 -36 -54
-65 -30 -50 25 15 7 -16 -26 -44 -60 -53 -107 -79 -156 -85 -45 -7 -46 -6 -53
23 -9 42 -3 47 56 54 47 6 147 52 136 64 -3 3 -19 -5 -35 -17 -21 -16 -50 -24
-97 -27 l-66 -6 6 39 c12 72 11 71 78 76 60 5 166 42 154 54 -3 3 -20 -2 -38
-12 -19 -9 -65 -19 -103 -22 l-69 -5 6 36 c3 20 15 56 26 81 l20 46 54 0 c29
0 75 7 101 16 61 21 55 28 -9 9 -56 -17 -135 -20 -135 -4 0 20 61 99 77 99 9
0 13 3 10 7 -4 3 -1 13 5 22 7 9 -9 -4 -34 -28 l-47 -44 -4 34 c-3 30 -4 29
-4 -7 1 -26 -9 -58 -26 -88 -15 -27 -27 -52 -27 -57 0 -24 -20 -4 -39 39 l-22
47 6 -40 c4 -21 13 -51 20 -65 11 -22 11 -35 -3 -85 -8 -33 -17 -62 -19 -64
-6 -8 -31 22 -68 84 -20 33 -34 49 -30 35 11 -35 54 -122 72 -142 11 -12 13
-28 9 -53 -6 -31 -9 -34 -26 -25 -10 5 -35 25 -54 44 -57 53 -42 22 19 -41 30
-31 55 -61 55 -65 0 -15 -55 4 -90 32 -59 46 -110 138 -82 148 7 2 12 20 12
41 0 47 28 131 44 131 7 0 17 15 24 33 14 40 80 119 92 112 5 -3 12 0 15 6 13
20 114 79 137 80 13 0 55 8 93 19 39 10 81 19 94 19 24 1 24 1 5 -20z m-609
-382 c46 -11 50 -15 56 -47 16 -89 80 -168 161 -197 45 -16 68 -36 56 -48 -3
-3 -37 7 -75 21 -59 22 -77 34 -102 69 -36 50 -95 100 -137 115 l-29 10 30
-22 c35 -25 127 -119 122 -124 -2 -2 -36 3 -77 12 -48 10 -84 24 -104 41 -34
28 -142 83 -165 83 -8 0 12 -14 45 -30 59 -30 110 -67 103 -74 -7 -7 -242 -9
-289 -2 -43 5 -40 4 20 -11 l25 -6 -25 -7 c-14 -5 13 -6 60 -3 l85 6 -30 -33
c-21 -23 -24 -30 -10 -22 11 5 29 20 39 31 15 16 31 21 74 21 64 0 182 -19
182 -29 0 -13 -130 -92 -192 -116 -35 -13 -58 -24 -51 -25 27 -1 174 60 228
95 63 40 76 41 150 10 l40 -17 -29 -23 c-15 -12 -52 -31 -82 -41 -29 -10 -52
-20 -50 -21 8 -8 103 21 144 43 41 22 45 23 74 8 l31 -16 -29 -24 c-16 -13
-69 -44 -119 -68 -86 -43 -94 -46 -180 -47 -132 -1 -126 -3 -119 26 l6 25 -84
0 c-113 0 -198 17 -198 40 0 13 -16 20 -72 30 -81 15 -178 47 -178 59 0 15
104 114 149 143 25 15 55 28 67 28 29 0 39 16 23 36 -15 19 5 35 81 65 42 17
77 22 150 23 70 1 94 4 93 14 -4 15 62 15 132 -1z m800 -22 c32 -9 126 -49
209 -89 197 -96 295 -137 441 -181 198 -59 368 -121 462 -169 l88 -44 -30 -12
c-106 -41 -448 -123 -605 -145 -25 -4 -88 -15 -140 -26 -52 -11 -300 -50 -550
-88 -251 -39 -514 -81 -585 -96 -71 -14 -140 -23 -155 -20 -52 11 -52 12 -48
-465 2 -242 1 -439 -2 -438 -3 2 -63 37 -134 78 l-129 74 7 89 c5 61 4 87 -4
82 -5 -3 -11 -27 -11 -53 -1 -26 -4 -60 -8 -75 l-6 -28 -175 109 c-196 122
-268 171 -485 325 -141 101 -195 143 -333 260 -58 50 -162 107 -194 107 -17 0
-18 15 -18 178 0 190 11 287 34 311 10 9 64 21 148 32 73 9 203 27 288 39 426
61 485 68 489 64 3 -2 -17 -26 -43 -53 l-48 -49 34 -25 c34 -26 115 -57 148
-57 28 0 50 -11 50 -25 0 -7 7 -16 16 -19 27 -10 196 -36 236 -36 33 0 37 -3
35 -22 -2 -19 6 -25 48 -36 30 -8 85 -12 136 -9 73 2 97 8 150 35 35 17 91 53
123 80 l60 48 55 -23 c43 -17 74 -22 131 -22 138 2 167 21 101 66 -29 20 -47
23 -127 23 -77 0 -94 3 -94 15 0 8 -4 15 -10 15 -5 0 -10 4 -10 9 0 15 65 22
109 12 24 -5 39 -5 35 0 -3 5 -16 9 -30 9 -33 0 -30 15 6 30 37 15 106 90 128
138 34 75 53 91 102 92 25 0 72 -7 105 -15z m1304 -557 c4 -13 11 -140 15
-283 6 -247 9 -301 36 -525 12 -104 15 -267 6 -298 -4 -11 -23 -27 -44 -35
-66 -25 -454 -125 -570 -146 -62 -12 -165 -39 -230 -60 -64 -22 -162 -47 -217
-56 -136 -22 -354 -71 -445 -99 -144 -46 -152 -45 -281 19 -63 32 -142 73
-176 92 l-62 34 46 77 c133 222 245 423 240 428 -11 11 -147 -207 -264 -423
l-39 -73 -36 25 c-19 13 -39 36 -42 50 -8 30 2 878 10 899 8 21 47 33 164 51
130 21 648 120 910 175 107 23 240 47 295 55 175 23 337 53 450 83 61 17 136
30 168 31 51 1 58 -2 66 -21z m-2133 -375 c20 -31 21 -44 26 -449 3 -229 3
-425 1 -435 -5 -18 -8 -17 -45 5 l-40 24 -5 447 -5 447 23 -4 c13 -1 33 -17
45 -35z"/>
<path d="M3668 3849 c4 -4 61 -22 127 -39 87 -23 143 -45 205 -80 96 -55 220
-108 328 -140 84 -26 110 -21 30 6 -114 37 -196 77 -298 143 -58 39 -129 76
-160 85 -59 17 -245 37 -232 25z"/>
<path d="M1723 3493 c-10 -3 -13 -42 -12 -146 0 -105 3 -134 10 -112 5 17 9
77 7 135 l-2 105 25 -3 c52 -8 52 -10 51 -163 -2 -169 12 -161 23 12 7 114 8
116 31 111 12 -2 31 -13 41 -24 15 -17 17 -37 15 -157 -2 -75 0 -150 4 -166
l8 -30 7 40 c5 22 8 98 8 169 l1 129 33 -7 c30 -5 31 -5 13 9 -11 8 -27 16
-35 17 -9 0 -21 2 -28 2 -6 1 -19 9 -30 18 -18 16 -135 69 -150 67 -4 0 -14
-3 -20 -6z"/>
<path d="M2766 3014 c-3 -26 -5 -167 -4 -313 1 -293 9 -248 24 137 l7 203 26
-6 c14 -4 34 -14 44 -22 19 -18 30 -13 22 9 -8 20 -48 38 -84 38 -26 0 -29 -4
-35 -46z"/>
<path d="M5078 2870 c-3 -195 -1 -229 22 -345 11 -55 25 -127 31 -160 17 -87
24 -47 11 64 -30 264 -36 326 -39 441 -6 177 -23 177 -25 0z"/>
<path d="M1295 3004 c-16 -8 -34 -20 -40 -26 -5 -6 4 -3 22 6 42 21 110 20
153 -2 19 -10 80 -53 135 -97 55 -44 114 -91 130 -104 47 -37 -4 -3 -125 83
-61 43 -113 76 -115 74 -13 -12 249 -193 265 -183 4 3 57 -28 116 -69 224
-151 202 -123 -41 54 -93 68 -199 148 -234 178 -109 93 -198 121 -266 86z"/>
<path d="M1006 2392 c-79 -89 -110 -158 -109 -239 0 -35 -3 -63 -7 -63 -13 0
-58 74 -68 113 -13 45 -8 76 19 129 11 22 18 42 15 45 -11 11 -35 -19 -52 -63
-37 -98 5 -217 91 -255 22 -10 54 -28 70 -39 40 -26 53 -25 28 3 -43 46 -58
89 -57 162 1 88 29 147 113 238 19 20 31 37 26 37 -6 0 -37 -31 -69 -68z"/>
<path d="M1505 2429 c-5 -5 -46 -44 -91 -87 -63 -61 -89 -94 -120 -156 -34
-70 -39 -90 -43 -163 -4 -96 -14 -104 -58 -46 -24 32 -28 45 -28 102 1 72 25
131 84 205 41 52 39 68 -3 27 -55 -53 -95 -138 -108 -229 -13 -92 -24 -97 -59
-25 -31 64 -23 133 25 225 20 39 35 73 32 75 -9 9 -76 -92 -96 -145 -47 -123
-7 -252 78 -252 14 0 40 -13 58 -30 19 -16 47 -33 62 -36 15 -4 36 -14 47 -24
27 -24 60 -40 81 -40 9 0 32 -11 49 -24 18 -14 45 -28 61 -32 16 -3 50 -19 75
-35 25 -16 51 -29 58 -29 7 0 29 -14 50 -31 78 -62 266 -93 338 -56 41 22 54
41 18 27 -43 -16 -146 -12 -191 9 -92 42 -150 153 -142 270 6 77 31 133 91
199 50 53 19 41 -35 -15 -96 -99 -114 -265 -42 -376 35 -53 25 -56 -19 -8 -77
86 -113 187 -96 277 22 121 119 263 210 309 44 23 64 45 40 45 -14 0 -157
-114 -185 -148 -15 -16 -40 -60 -58 -97 -46 -100 -50 -202 -11 -330 5 -18 4
-19 -12 -5 -45 37 -85 190 -74 279 4 31 23 86 43 125 l35 71 -29 -35 c-57 -65
-74 -130 -74 -267 0 -68 -3 -123 -8 -123 -4 0 -22 13 -40 29 -31 28 -33 32
-38 123 -5 93 -5 93 -19 54 -8 -23 -12 -62 -9 -97 2 -32 1 -59 -2 -59 -13 0
-48 46 -59 79 -6 19 -11 60 -11 91 0 89 50 178 165 295 51 52 87 95 81 95 -6
-1 -15 -5 -21 -11z"/>
</g>
</svg>
