<?xml version="1.0" standalone="no"?>
<!DOCTYPE svg PUBLIC "-//W3C//DTD SVG 20010904//EN"
 "http://www.w3.org/TR/2001/REC-SVG-20010904/DTD/svg10.dtd">
<svg version="1.0" xmlns="http://www.w3.org/2000/svg"
 width="778.000000pt" height="600.000000pt" viewBox="0 0 778.000000 600.000000"
 preserveAspectRatio="xMidYMid meet">
<metadata>
Created by potrace 1.16, written by Peter Selinger 2001-2019
</metadata>
<g transform="translate(0.000000,600.000000) scale(0.100000,-0.100000)"
fill="#000000" stroke="none">
<path d="M4050 5004 c-136 -26 -334 -106 -347 -141 -3 -7 -11 -13 -18 -13 -7
0 -18 -6 -24 -14 -7 -8 -40 -29 -74 -45 -110 -55 -140 -82 -190 -178 -54 -102
-70 -257 -43 -431 l12 -84 -40 7 c-165 28 -289 31 -448 10 -108 -14 -304 -65
-317 -82 -3 -4 -40 -24 -81 -43 -41 -19 -117 -60 -169 -92 -51 -32 -97 -58
-102 -58 -5 0 -9 -4 -9 -9 0 -5 -65 -53 -145 -106 -80 -53 -158 -108 -173
-122 -15 -14 -47 -37 -72 -51 -51 -29 -202 -132 -210 -143 -3 -4 -39 -30 -80
-57 -42 -27 -91 -62 -110 -79 -19 -16 -40 -32 -47 -34 -28 -9 -193 -213 -193
-238 0 -6 -5 -11 -11 -11 -17 0 -76 -138 -105 -246 -23 -86 -27 -119 -28 -249
-1 -137 2 -159 28 -250 30 -103 89 -235 105 -235 6 0 13 -10 17 -22 10 -33
109 -153 158 -191 22 -17 47 -37 54 -44 29 -28 105 -76 160 -100 31 -15 60
-31 64 -37 4 -6 8 -42 8 -81 0 -94 24 -237 56 -332 31 -94 94 -224 112 -230 7
-3 22 -23 33 -44 21 -42 163 -189 182 -189 7 0 22 -10 33 -23 31 -33 143 -86
227 -108 117 -31 247 -34 447 -9 121 15 274 24 495 30 202 6 356 15 419 25
107 17 268 55 276 65 3 3 61 25 130 48 142 47 391 148 399 161 4 5 53 32 111
60 148 71 231 120 287 167 26 23 77 66 112 95 35 30 71 66 80 80 9 14 35 54
58 88 23 35 45 72 48 82 4 10 10 19 14 19 5 0 40 -18 79 -41 38 -22 114 -54
168 -72 95 -30 106 -31 274 -31 169 0 178 1 272 32 96 31 304 125 310 141 2 4
28 24 58 44 164 107 180 122 257 236 32 47 61 88 65 91 19 15 71 160 95 268
27 117 24 383 -6 522 -26 125 -80 323 -90 330 -4 3 -13 19 -18 35 -57 158 -84
226 -103 260 -13 22 -31 56 -41 75 -10 19 -50 69 -88 110 -39 41 -71 79 -71
84 0 20 -517 536 -537 536 -5 0 -40 31 -78 68 -39 37 -88 81 -110 97 -52 39
-173 135 -199 159 -31 28 -217 159 -248 175 -16 8 -28 18 -28 22 0 10 -111 80
-208 131 -46 25 -92 52 -104 62 -31 27 -201 93 -313 123 -82 21 -127 26 -250
28 -82 2 -161 1 -175 -1z m330 -120 c41 -9 77 -20 80 -23 3 -4 37 -17 75 -30
95 -30 308 -135 347 -172 18 -16 42 -32 53 -35 11 -4 64 -37 118 -75 54 -38
102 -69 107 -69 5 0 15 -8 22 -18 13 -17 146 -121 199 -154 15 -10 47 -37 71
-60 24 -24 78 -70 120 -101 42 -32 89 -72 105 -90 16 -18 67 -66 113 -107 102
-90 237 -225 329 -329 38 -42 94 -102 124 -134 31 -32 62 -69 69 -82 18 -33
89 -137 105 -153 7 -7 16 -25 20 -40 3 -15 16 -50 29 -77 44 -100 144 -464
144 -525 0 -15 6 -30 13 -32 9 -4 12 -49 12 -183 0 -134 -3 -179 -12 -183 -7
-2 -13 -13 -13 -25 0 -25 -28 -119 -55 -187 -26 -65 -78 -142 -122 -184 -21
-20 -51 -49 -68 -65 -42 -40 -135 -98 -240 -151 -50 -25 -91 -48 -93 -52 -2
-4 -46 -21 -97 -38 -112 -35 -245 -47 -358 -31 -84 12 -237 58 -237 72 0 5 -5
9 -10 9 -6 0 -39 18 -74 40 l-64 40 14 45 c26 88 37 244 24 341 -16 126 -53
253 -79 274 -4 3 -19 32 -35 65 -74 153 -216 288 -398 376 -48 24 -88 46 -88
50 0 8 -306 159 -321 159 -12 0 -92 40 -99 49 -7 10 -94 44 -182 72 -43 13
-78 27 -78 32 0 4 5 7 10 7 6 0 15 12 21 27 12 32 -10 67 -98 159 -32 33 -89
109 -128 170 -38 60 -75 114 -81 119 -35 30 -159 360 -184 490 -8 39 -17 72
-21 75 -11 8 -29 152 -29 230 0 74 17 170 30 170 4 0 13 12 19 28 19 46 96
122 124 122 14 0 54 22 93 51 74 55 154 99 179 99 8 0 15 4 15 9 0 8 98 35
165 45 58 9 241 -3 315 -20z m-1205 -879 c44 -3 111 -14 150 -24 l69 -17 34
-110 c19 -60 38 -111 43 -114 4 -3 25 -47 48 -98 22 -51 54 -117 72 -145 18
-29 41 -68 52 -87 10 -19 27 -44 38 -55 39 -43 109 -134 109 -142 0 -5 18 -26
40 -48 22 -21 38 -40 37 -41 -2 -2 -45 5 -97 16 -210 43 -426 36 -654 -21
-116 -29 -314 -101 -325 -117 -3 -5 -57 -34 -118 -65 -127 -64 -243 -134 -243
-148 0 -5 -6 -9 -12 -9 -7 0 -55 -32 -106 -70 -52 -39 -96 -70 -100 -70 -3 0
-49 -43 -101 -95 -53 -52 -106 -102 -119 -111 -12 -8 -56 -61 -97 -117 -42
-56 -83 -111 -93 -123 -51 -63 -134 -259 -162 -386 -8 -36 -18 -58 -27 -58 -7
0 -13 5 -13 10 0 6 -5 10 -10 10 -43 0 -226 155 -296 250 -44 60 -123 219
-124 248 0 6 -4 12 -9 12 -14 0 -32 95 -37 205 -6 99 14 261 33 274 5 3 15 26
22 51 16 55 94 201 135 253 16 20 52 55 80 76 28 21 72 58 98 83 26 24 60 51
75 58 48 24 174 111 191 131 9 10 20 19 25 19 5 0 50 29 101 64 50 35 105 70
121 79 17 8 42 26 55 39 27 26 92 71 230 159 47 30 87 57 88 62 2 4 49 29 105
56 114 55 243 94 362 110 131 18 168 19 330 6z m480 -955 c80 -12 198 -40 205
-49 3 -3 59 -24 125 -45 66 -22 167 -61 224 -88 57 -26 110 -48 117 -48 8 0
22 -8 33 -19 10 -10 79 -48 152 -85 143 -70 231 -117 239 -127 3 -3 32 -28 65
-54 72 -58 144 -130 165 -166 8 -14 28 -47 44 -73 41 -67 84 -205 97 -307 26
-216 -55 -483 -186 -608 -19 -19 -35 -38 -35 -42 0 -10 -148 -129 -160 -129
-11 0 -77 -42 -103 -64 -18 -17 -296 -150 -389 -187 -32 -12 -58 -26 -58 -30
0 -8 -261 -95 -365 -123 -145 -38 -303 -55 -518 -57 -233 -2 -469 -16 -477
-29 -8 -12 -189 -30 -309 -30 -103 0 -210 14 -221 29 -3 4 -38 19 -78 35 -160
62 -332 233 -399 398 -14 35 -28 65 -32 68 -11 8 -29 60 -48 140 -14 57 -18
117 -18 250 0 166 2 180 30 270 16 52 32 97 36 100 3 3 20 32 38 65 51 98 77
142 106 182 61 82 239 262 306 310 24 17 62 49 85 70 22 21 53 45 69 53 38 20
186 115 205 132 46 41 401 198 448 198 11 0 22 4 24 10 4 11 100 37 184 49 83
12 316 12 399 1z"/>
<path d="M5033 4253 c-13 -2 -23 -9 -23 -14 0 -5 -7 -9 -16 -9 -31 0 -140 -59
-179 -97 -95 -92 -119 -135 -84 -154 20 -10 25 -8 46 17 13 16 23 34 23 41 0
6 23 31 50 56 61 55 151 88 260 96 l75 6 0 30 0 30 -65 1 c-36 1 -75 0 -87 -3z"/>
<path d="M1491 2236 c-24 -29 -6 -46 51 -46 29 0 58 -4 64 -8 20 -13 32 -47
27 -75 -4 -22 -2 -27 15 -27 52 0 62 92 16 140 -20 20 -36 25 -92 28 -53 3
-71 1 -81 -12z"/>
<path d="M2165 1398 c-27 -15 -33 -27 -28 -49 5 -19 43 -27 43 -9 0 18 32 11
51 -12 23 -26 23 -28 3 -56 -9 -13 -13 -29 -10 -37 15 -41 75 12 83 74 5 35 2
44 -25 71 -33 32 -79 40 -117 18z"/>
</g>
</svg>
