<?xml version="1.0" standalone="no"?>
<!DOCTYPE svg PUBLIC "-//W3C//DTD SVG 20010904//EN"
 "http://www.w3.org/TR/2001/REC-SVG-20010904/DTD/svg10.dtd">
<svg version="1.0" xmlns="http://www.w3.org/2000/svg"
 width="348.000000pt" height="276.000000pt" viewBox="0 0 348.000000 276.000000"
 preserveAspectRatio="xMidYMid meet">

<g transform="translate(0.000000,276.000000) scale(0.100000,-0.100000)"
fill="#000000" stroke="none">
<path d="M2445 2601 c-80 -50 -113 -128 -255 -601 -17 -58 -45 -147 -61 -197
-30 -92 -31 -93 -71 -103 -50 -14 -65 -46 -74 -159 -5 -56 -11 -81 -20 -81 -7
0 -16 5 -19 10 -10 16 -42 12 -87 -11 -33 -17 -46 -19 -60 -10 -29 18 -73 13
-101 -13 -25 -24 -26 -24 -57 -5 -39 24 -58 24 -86 -2 l-23 -21 -34 26 c-43
33 -67 33 -107 -1 -30 -25 -35 -26 -77 -15 -50 14 -73 6 -98 -32 -11 -17 -29
-25 -61 -30 -54 -7 -134 -58 -134 -86 0 -12 -8 -20 -22 -22 -27 -4 -88 -89
-88 -123 0 -16 -9 -26 -29 -35 -16 -6 -50 -33 -75 -58 -86 -89 -96 -95 -156
-100 -113 -7 -142 -35 -111 -104 11 -24 25 -58 32 -76 17 -46 50 -66 99 -59
l39 5 39 -67 c70 -116 150 -218 185 -234 78 -38 187 -45 717 -52 560 -7 701 0
770 35 56 29 107 83 189 204 l69 102 72 0 c82 -1 102 13 93 67 -4 25 2 40 26
70 64 81 50 105 -80 133 -53 11 -83 23 -87 33 -4 9 -35 60 -70 113 -55 85 -68
98 -112 117 -27 12 -53 21 -58 21 -5 0 -17 9 -27 20 -10 11 -26 20 -37 20 -10
0 -18 6 -18 13 0 8 -10 23 -22 34 -54 49 -136 70 -208 54 -25 -5 -46 -8 -48
-7 -2 2 6 41 18 86 15 59 18 86 11 93 -19 19 -38 -14 -55 -97 -16 -82 -26
-103 -45 -92 -17 11 -13 64 14 154 29 101 28 99 66 107 41 9 60 44 99 178 60
206 140 455 180 559 40 105 99 194 100 153 1 -49 -241 -828 -261 -840 -31 -20
10 -85 54 -85 26 0 29 -19 13 -95 -13 -62 -13 -73 0 -93 31 -47 58 -5 81 125
13 75 13 87 -1 108 -9 13 -25 27 -37 30 -13 5 -19 13 -16 23 3 10 40 132 82
272 42 140 98 325 125 410 51 157 60 216 38 238 -18 18 -89 14 -123 -7z m-489
-1206 c31 -41 25 -53 -31 -74 -34 -12 -37 -11 -56 13 -11 14 -27 26 -35 26
-26 0 -14 28 19 43 36 16 59 25 69 26 4 1 19 -15 34 -34z m-186 11 c0 -3 -10
-21 -22 -42 -20 -34 -22 -35 -35 -18 -18 24 -16 41 5 53 17 11 52 15 52 7z
m-301 -20 c15 -8 44 -33 65 -56 38 -42 110 -149 104 -154 -12 -10 -49 -26 -61
-26 -9 0 -32 30 -53 67 -20 37 -55 86 -77 110 -54 59 -42 92 22 59z m179 -34
c71 -71 252 -392 239 -425 -3 -7 -23 -14 -46 -15 -32 -2 -43 1 -47 15 -45 143
-106 276 -170 374 -24 37 -44 72 -44 78 0 22 31 10 68 -27z m-266 -29 c23 -21
58 -63 77 -93 45 -69 147 -298 137 -307 -4 -4 -51 -9 -105 -11 l-97 -4 -12 39
c-7 22 -21 48 -32 58 -19 17 -19 18 0 43 11 13 20 33 20 43 0 60 43 1 69 -94
11 -42 22 -63 34 -65 29 -6 31 27 8 99 -28 87 -84 171 -167 248 -36 34 -62 66
-59 71 3 6 24 10 46 10 31 0 47 -8 81 -37z m897 -20 c20 -7 30 -17 25 -22 -5
-4 -49 -17 -99 -29 -113 -27 -221 -78 -280 -133 -25 -23 -47 -40 -50 -38 -12
13 -43 94 -39 103 10 23 102 81 164 104 112 41 204 46 279 15z m-1062 -14 c29
-11 93 -67 93 -81 0 -4 -10 -8 -21 -8 -12 0 -37 -9 -55 -21 l-34 -21 0 21 c0
24 -33 48 -92 66 l-43 12 35 22 c39 23 74 26 117 10z m1097 -88 c-18 -11 -57
-31 -88 -46 -32 -15 -77 -42 -102 -61 -52 -40 -54 -40 -54 -14 0 10 -8 23 -17
29 -12 6 -15 13 -8 19 19 19 131 61 201 75 94 21 104 20 68 -2z m-1208 -11
c37 -14 82 -66 86 -98 2 -21 14 -33 52 -52 49 -25 105 -90 106 -122 0 -14 -8
-18 -37 -18 -46 0 -53 5 -81 52 -13 20 -39 51 -59 69 -45 39 -149 89 -185 89
-36 0 -37 27 -3 64 26 28 72 34 121 16z m1307 -20 c-4 -4 -43 -31 -85 -59 -72
-49 -132 -105 -168 -158 -13 -18 -28 -22 -107 -28 -62 -4 -93 -3 -93 4 0 6 7
8 16 4 24 -9 94 28 140 73 64 64 275 190 297 177 5 -3 5 -9 0 -13z m139 -37
c21 -18 24 -53 6 -53 -7 0 -23 -3 -35 -6 -18 -5 -23 -2 -23 14 0 11 -7 25 -15
32 -13 11 -13 15 -3 21 21 14 50 10 70 -8z m-1522 -99 c64 -19 120 -53 150
-91 l22 -28 -53 -9 c-50 -8 -54 -7 -69 15 -36 57 -83 99 -116 105 -19 3 -34
10 -34 15 0 14 40 11 100 -7z m685 -36 c35 -75 33 -88 -12 -88 -21 0 -43 4
-48 8 -10 7 -39 102 -33 107 47 36 66 31 93 -27z m642 21 c7 -17 21 -33 32
-36 12 -3 21 -9 21 -13 0 -15 -31 -20 -113 -20 l-82 1 55 49 c30 27 60 50 65
50 6 0 16 -14 22 -31z m-435 -1 c-7 -7 -12 -8 -12 -2 0 14 12 26 19 19 2 -3
-1 -11 -7 -17z m718 -13 c23 -27 5 -36 -83 -41 -95 -5 -102 1 -43 37 37 23
108 25 126 4z m-1671 -44 c20 -11 44 -27 52 -37 13 -16 8 -16 -71 -12 -47 3
-97 11 -113 18 -26 13 -26 14 -11 32 23 24 93 24 143 -1z m1816 -102 c3 -3 -3
-24 -13 -47 -11 -28 -22 -40 -31 -37 -8 3 -100 13 -205 21 -162 13 -247 14
-556 5 -201 -6 -587 -12 -859 -13 l-494 -3 -8 23 c-14 38 21 43 173 25 106
-12 200 -14 458 -9 483 9 1042 26 1150 36 99 9 376 8 385 -1z m-1590 -164 c44
0 350 4 680 8 330 5 626 5 659 0 l58 -8 -69 -87 c-78 -98 -127 -141 -181 -159
-28 -10 -184 -13 -637 -13 -650 1 -664 2 -747 57 -34 23 -138 168 -138 192 0
21 26 24 165 17 72 -4 166 -7 210 -7z"/>
<path d="M2420 611 c-40 -47 -43 -48 -106 -54 -70 -5 -90 -16 -81 -41 5 -12
22 -16 72 -16 80 0 92 6 144 71 71 89 44 127 -29 40z"/>
<path d="M2196 1504 c-20 -60 -21 -104 -1 -104 16 0 49 97 43 127 -6 33 -26
23 -42 -23z"/>
</g>
</svg>
