<?xml version="1.0" standalone="no"?>
<!DOCTYPE svg PUBLIC "-//W3C//DTD SVG 20010904//EN"
 "http://www.w3.org/TR/2001/REC-SVG-20010904/DTD/svg10.dtd">
<svg version="1.0" xmlns="http://www.w3.org/2000/svg"
 width="612.000000pt" height="356.000000pt" viewBox="0 0 612.000000 356.000000"
 preserveAspectRatio="xMidYMid meet">
<metadata>
Created by potrace 1.16, written by Peter Selinger 2001-2019
</metadata>
<g transform="translate(0.000000,356.000000) scale(0.100000,-0.100000)"
fill="#000000" stroke="none">
<path d="M2916 3049 c-607 -39 -1090 -231 -1219 -486 -14 -27 -33 -85 -42
-128 -21 -104 -35 -483 -26 -751 l6 -210 37 -75 c74 -149 239 -322 363 -381
l60 -28 366 0 367 0 4 -60 c3 -38 10 -67 21 -77 25 -26 104 -31 459 -32 l327
-1 3 -195 c2 -142 6 -197 16 -207 10 -10 50 -12 165 -10 163 4 215 12 76 12
-58 0 -79 3 -69 10 8 5 78 10 155 10 196 1 265 17 85 20 -223 3 -119 18 140
21 242 2 239 15 -5 19 -222 4 -65 18 209 19 143 1 262 3 264 6 3 3 -90 5 -207
5 -139 0 -210 3 -206 10 4 6 105 10 268 11 144 1 287 4 317 9 37 5 -24 8 -185
10 -342 3 -243 17 150 20 232 2 305 5 245 11 -47 4 -166 7 -264 8 -309 2 -185
12 206 18 205 2 375 7 377 9 4 4 -276 9 -506 9 -44 0 -79 3 -76 8 2 4 151 8
331 8 180 1 359 5 397 9 43 4 -63 8 -270 9 -224 1 -335 5 -325 11 9 6 189 10
450 11 273 1 403 5 350 10 -47 4 -232 7 -412 8 -212 1 -328 5 -328 11 0 6 125
10 353 11 193 1 381 5 417 9 37 4 -110 8 -343 8 -322 2 -408 5 -404 15 3 9 39
12 133 12 71 0 260 2 419 4 l290 5 -230 7 c-126 3 -314 7 -417 8 -118 1 -188
5 -188 11 0 6 126 10 358 10 213 0 363 4 372 10 10 6 -113 10 -357 10 -242 0
-373 4 -373 10 0 6 70 11 188 11 103 1 279 5 392 9 l205 6 -305 5 c-168 2
-334 3 -370 1 -73 -3 -110 3 -110 18 0 6 133 11 363 12 213 0 335 4 297 8 -36
4 -199 8 -362 9 -191 1 -298 5 -298 11 0 6 63 10 168 10 93 0 252 3 353 8 184
7 184 7 -165 12 -267 4 -350 8 -354 18 -3 9 66 12 320 14 233 1 294 3 218 8
-58 4 -203 8 -322 9 -138 1 -218 5 -218 11 0 6 76 10 208 11 114 1 245 4 292
8 60 6 0 8 -207 9 -266 2 -326 7 -277 26 9 3 131 7 272 8 l257 1 -272 10
c-150 5 -273 13 -273 18 0 5 89 9 198 10 108 1 208 5 222 9 14 5 -70 8 -197 9
-142 1 -223 5 -223 11 0 6 12 11 28 11 15 1 110 5 212 8 l185 7 -140 2 c-285
4 -389 31 -122 33 94 0 144 4 132 9 -11 5 -80 9 -152 9 -100 1 -133 4 -133 14
0 9 28 13 103 16 56 1 104 5 106 7 2 2 -44 4 -102 4 l-107 0 0 130 c0 140 -7
172 -56 235 -62 82 -232 158 -411 186 l-83 12 0 236 c0 396 -18 468 -149 601
-273 278 -759 401 -1415 359z m489 -39 c324 -30 604 -125 798 -271 76 -57 163
-156 173 -195 36 -145 -187 -308 -551 -403 -95 -25 -431 -68 -677 -86 l-183
-14 180 4 c217 5 546 38 670 67 279 64 513 195 573 321 15 29 21 36 22 21 0
-28 -68 -121 -122 -165 -99 -81 -239 -148 -408 -194 -112 -31 -69 -32 52 -1
182 46 318 117 420 219 40 40 47 44 35 21 -20 -38 -97 -116 -153 -155 -97 -66
-281 -141 -428 -174 -15 -3 -26 -8 -24 -10 8 -9 186 34 266 64 120 44 204 94
285 169 58 55 67 61 51 33 -10 -18 -50 -62 -87 -96 -84 -79 -242 -160 -407
-210 -124 -37 -131 -43 -23 -21 104 22 256 80 337 127 39 23 101 72 138 109
71 71 70 49 -2 -33 -98 -111 -276 -206 -499 -267 -79 -21 -106 -34 -50 -24 76
13 222 56 291 85 99 42 226 128 284 192 42 47 45 48 29 17 -28 -55 -136 -154
-222 -205 -85 -50 -240 -112 -346 -140 -37 -10 -66 -20 -64 -22 7 -6 146 26
223 52 153 51 271 122 368 219 49 50 56 55 40 27 -73 -130 -272 -256 -528
-337 -125 -39 -77 -38 60 2 173 50 321 134 433 245 46 46 51 49 35 21 -24 -43
-147 -162 -167 -162 -8 0 -42 -20 -74 -45 -70 -52 -117 -74 -273 -127 -81 -27
-102 -37 -70 -33 25 3 90 21 145 39 55 19 101 33 102 32 2 -1 -10 -17 -25 -34
-28 -33 -69 -51 -227 -98 -71 -21 -74 -23 -30 -18 28 3 84 17 125 30 41 13 75
22 77 20 1 -1 -14 -19 -35 -38 -29 -28 -57 -42 -126 -62 -133 -38 -121 -46 17
-11 l49 12 -37 -37 c-24 -24 -56 -44 -89 -54 -37 -12 -42 -15 -16 -11 l35 5
-72 -68 c-107 -101 -116 -134 -89 -335 9 -70 10 -100 2 -102 -31 -11 -229 -35
-359 -46 -169 -13 -370 -5 -387 16 -18 22 9 1053 31 1170 5 28 52 139 105 248
53 109 98 216 101 237 3 22 4 40 2 40 -36 0 -379 -127 -609 -225 -199 -85
-289 -132 -300 -158 -21 -49 -31 -189 -40 -537 -13 -525 -19 -630 -39 -630 -9
0 -45 14 -80 31 -118 55 -312 272 -365 408 -25 63 -27 729 -3 900 9 62 19 116
21 118 3 3 11 -10 19 -29 30 -71 152 -152 336 -223 128 -49 137 -44 15 9 -311
133 -399 234 -311 362 132 193 516 351 987 408 138 17 512 20 665 6z m-315
-474 c0 -2 -167 -75 -370 -162 -204 -86 -368 -159 -366 -161 2 -2 160 62 352
143 192 80 354 148 361 151 7 3 10 -3 6 -16 -4 -14 -35 -33 -114 -65 -59 -25
-114 -46 -120 -46 -7 0 -20 -6 -28 -13 -9 -7 -121 -58 -249 -112 -127 -54
-231 -100 -229 -102 2 -1 117 44 256 102 139 58 257 105 262 105 5 0 9 -6 9
-14 0 -8 -106 -59 -275 -131 -151 -65 -273 -120 -271 -122 1 -2 73 26 159 62
166 69 172 71 182 55 10 -16 -162 -91 -190 -84 -18 4 -30 -1 -47 -19 -13 -13
-36 -32 -53 -41 -16 -10 -21 -14 -10 -11 51 18 55 18 55 -2 0 -15 -13 -25 -46
-38 -25 -9 -43 -19 -41 -21 2 -3 25 5 51 16 27 11 52 17 58 14 5 -3 18 2 29
13 19 17 490 223 497 217 20 -16 -57 -56 -338 -178 -176 -76 -319 -141 -317
-142 2 -2 135 52 296 121 347 147 336 143 322 118 -6 -13 -124 -69 -326 -158
-173 -76 -314 -139 -312 -141 2 -2 136 53 298 122 162 69 299 128 306 131 7 3
10 -2 6 -15 -3 -14 -42 -36 -136 -77 -329 -143 -427 -188 -424 -191 2 -2 124
48 271 111 148 63 269 115 271 115 2 0 1 -8 -2 -18 -5 -22 -503 -245 -526
-236 -8 3 -21 -3 -28 -13 -8 -11 -29 -25 -47 -32 -18 -8 -31 -16 -29 -18 3 -2
16 2 30 8 21 9 30 9 42 -1 15 -12 14 -15 -7 -27 -35 -21 -12 -13 126 46 69 30
129 51 132 48 17 -16 -16 -37 -150 -96 -80 -36 -144 -66 -142 -68 2 -2 71 26
153 62 83 36 160 65 171 65 11 0 22 5 24 11 4 12 229 111 236 104 16 -15 -34
-43 -272 -149 -147 -65 -265 -121 -263 -123 3 -2 122 48 266 112 144 63 264
115 266 115 3 0 5 -7 5 -15 0 -17 -50 -45 -80 -45 -11 0 -20 -4 -20 -10 0 -5
-5 -10 -11 -10 -5 0 -7 6 -4 13 4 6 -2 2 -12 -9 -10 -12 -127 -70 -260 -130
-134 -59 -241 -109 -239 -111 2 -2 112 43 243 101 132 59 247 106 256 106 8 0
22 6 29 13 12 11 83 47 93 47 3 0 5 -7 5 -16 0 -9 -28 -28 -72 -48 -40 -18
-176 -79 -301 -136 -125 -56 -226 -104 -224 -106 3 -4 554 237 580 253 4 2 7
-4 7 -14 0 -15 -64 -48 -305 -157 -168 -77 -304 -140 -302 -142 2 -2 139 56
305 130 239 106 302 130 302 117 0 -13 -42 -36 -152 -85 -84 -38 -174 -79
-200 -92 -33 -17 -48 -20 -48 -12 0 8 -4 7 -10 -3 -5 -9 -52 -36 -105 -59 -52
-24 -93 -45 -91 -47 2 -2 45 15 96 37 65 29 96 38 104 30 14 -14 6 -19 -126
-80 -65 -30 -116 -55 -114 -57 2 -2 64 24 138 57 103 45 141 58 158 52 18 -7
-1 -18 -114 -72 -75 -35 -135 -65 -133 -67 2 -2 133 55 292 127 158 71 292
130 296 130 5 0 9 -6 9 -13 0 -16 -505 -251 -520 -242 -5 3 -13 0 -16 -8 -3
-8 -23 -23 -45 -32 -21 -10 -37 -20 -35 -22 2 -3 18 3 36 12 31 16 60 15 60
-3 0 -5 -27 -21 -60 -37 -81 -39 -70 -43 13 -5 37 16 78 30 91 30 14 0 29 6
33 14 8 14 71 48 109 60 14 4 23 2 27 -7 4 -10 -49 -39 -184 -102 -104 -48
-188 -90 -186 -91 4 -4 259 110 520 232 76 35 140 64 142 64 3 0 5 -7 5 -15 0
-10 -31 -30 -82 -54 -228 -105 -518 -244 -515 -248 2 -2 136 57 297 132 161
74 294 135 296 135 2 0 4 -10 4 -23 0 -20 -9 -26 -55 -41 -31 -9 -140 -59
-243 -110 -193 -96 -293 -139 -349 -151 -45 -9 -42 10 5 34 20 11 33 20 29 21
-4 0 -21 -7 -37 -15 l-30 -16 0 51 c0 33 4 50 13 51 10 0 10 2 0 6 -7 2 -13
13 -13 24 0 10 6 19 13 20 10 0 10 2 0 6 -27 10 -13 40 27 58 22 10 38 20 36
22 -2 3 -18 -3 -35 -12 l-31 -16 0 51 c0 33 4 50 13 50 9 0 9 2 -1 8 -24 16
-2 683 27 801 11 44 200 132 621 287 202 75 260 93 260 80z m-100 -223 c0 -5
-4 -13 -8 -20 -7 -11 -534 -243 -552 -243 -21 0 -9 30 18 45 26 15 26 16 2 10
-21 -5 -22 -4 -7 5 9 6 22 8 27 5 12 -7 98 26 345 134 169 73 175 75 175 64z
m-120 -316 c0 -8 -37 -30 -82 -50 -46 -19 -110 -47 -142 -62 -41 -18 -55 -21
-47 -11 8 10 9 16 3 16 -6 0 -18 -10 -26 -21 -21 -31 -207 -113 -218 -97 -6
10 -8 10 -8 1 0 -7 -4 -13 -10 -13 -5 0 -10 7 -10 15 0 8 6 15 13 15 9 0 9 2
-1 8 -8 6 -3 9 15 9 15 0 132 46 258 101 127 56 236 101 243 102 6 0 12 -6 12
-13z m1735 -201 c127 -34 248 -91 303 -144 61 -61 57 -74 -30 -101 -88 -27
-497 -144 -703 -202 -162 -45 -464 -144 -474 -155 -3 -4 3 -4 14 0 51 19 260
80 465 136 124 34 347 97 496 141 150 43 277 79 283 79 6 0 11 -4 11 -10 0 -5
-81 -35 -180 -67 -99 -31 -178 -59 -176 -61 4 -3 304 86 350 104 14 5 17 3 15
-11 -2 -10 -15 -22 -29 -26 -206 -64 -350 -112 -348 -115 2 -2 86 21 185 51
100 30 184 55 187 55 3 0 6 -6 6 -13 0 -18 -333 -122 -379 -119 -40 3 -81 -21
-80 -46 0 -10 3 -12 6 -4 2 6 11 12 19 12 9 0 13 4 10 9 -3 5 9 8 26 6 39 -3
48 -21 16 -35 -23 -10 -23 -11 0 -6 27 5 29 -10 3 -24 -25 -13 -61 -13 -61 0
0 6 -6 10 -12 10 -7 -1 -2 -10 11 -20 20 -17 20 -20 5 -20 -9 0 -15 -2 -12 -5
3 -4 100 21 216 55 116 33 213 60 216 60 4 0 6 -7 6 -15 0 -8 -15 -18 -34 -23
-165 -46 -397 -117 -390 -119 5 -2 103 23 217 55 172 49 207 56 207 43 0 -12
-53 -31 -225 -80 -124 -35 -224 -66 -221 -68 3 -3 312 78 429 113 11 3 17 0
17 -10 0 -8 -14 -19 -32 -24 -222 -62 -438 -126 -434 -129 2 -2 41 6 86 18 69
19 83 20 90 8 8 -11 -11 -20 -97 -44 -58 -16 -102 -30 -97 -32 7 -2 376 95
467 123 11 3 17 0 17 -10 0 -17 -17 -22 -320 -106 -102 -28 -187 -54 -190 -57
-6 -7 6 -4 271 67 129 34 227 56 232 51 14 -14 -12 -24 -295 -101 -147 -41
-266 -75 -264 -77 3 -3 388 95 496 127 46 13 60 13 60 -3 0 -13 -371 -115
-419 -116 -13 0 -31 -6 -40 -14 -9 -8 -40 -20 -69 -27 -29 -7 -51 -14 -49 -17
3 -2 24 1 47 7 24 6 53 9 66 6 17 -5 23 -2 22 6 -2 8 8 13 25 13 35 0 36 -18
0 -27 -80 -19 -223 -62 -219 -65 2 -2 49 7 104 21 55 14 108 27 118 29 11 2
26 7 34 10 23 9 94 27 108 27 6 0 12 -6 12 -13 0 -9 -60 -30 -180 -62 -99 -26
-180 -51 -180 -55 0 -5 -8 -7 -17 -5 -10 1 -12 0 -5 -2 10 -4 11 -8 1 -19 -10
-12 -9 -18 3 -30 12 -12 20 -13 41 -3 32 14 25 33 -9 25 -13 -4 -24 -2 -24 3
0 14 41 21 59 9 13 -8 41 -4 111 15 249 67 462 118 467 113 16 -15 -32 -31
-325 -108 -171 -45 -310 -84 -307 -86 2 -2 138 30 303 72 164 42 304 76 310
76 7 0 12 -6 12 -12 0 -8 -111 -42 -307 -92 -168 -44 -302 -81 -296 -83 6 -2
134 28 285 67 283 72 337 82 283 53 -39 -21 -76 -31 -440 -113 -170 -38 -415
-101 -544 -140 -128 -38 -239 -70 -246 -70 -22 0 -25 26 -25 213 0 101 -7 226
-14 282 -8 55 -18 137 -21 182 -10 117 6 147 143 261 59 49 143 129 186 178
141 158 250 262 287 273 58 18 242 6 354 -23z m-1755 -305 c0 -16 -24 -29
-230 -124 -169 -78 -209 -93 -225 -84 -18 9 -18 8 -7 -6 11 -13 10 -16 -7 -22
-11 -3 -29 -2 -38 4 -15 8 -3 17 72 51 50 22 162 74 250 115 161 74 185 82
185 66z m2117 -597 c-3 -3 -133 -40 -288 -81 -241 -64 -284 -73 -296 -61 -11
12 12 20 164 57 98 24 192 47 208 53 85 28 201 54 209 47 5 -5 7 -11 3 -15z"/>
<path d="M914 1349 c-32 -17 -70 -39 -84 -49 -69 -46 -149 -83 -242 -110 -81
-23 -109 -36 -130 -60 -38 -42 -35 -66 15 -116 l43 -43 -104 -103 c-106 -105
-132 -144 -132 -197 0 -38 36 -67 109 -87 362 -99 554 -169 779 -285 90 -46
166 -79 183 -79 55 0 101 29 208 133 58 57 140 126 181 154 85 57 107 79 110
108 5 47 -2 66 -35 99 l-35 36 50 48 c54 53 62 80 35 132 -20 38 -43 53 -230
150 -88 46 -226 121 -307 167 -203 115 -243 133 -304 133 -38 0 -66 -8 -110
-31z m225 -24 c29 -14 107 -60 173 -101 66 -42 197 -118 290 -169 170 -92 238
-137 238 -156 0 -16 -44 -53 -99 -82 -47 -26 -51 -27 -88 -13 -21 8 -90 31
-154 51 -64 19 -163 58 -220 86 -102 50 -389 150 -468 164 -54 9 -135 -15
-202 -61 l-53 -35 -42 30 c-24 16 -41 24 -38 18 2 -7 18 -21 34 -32 17 -11 30
-24 30 -28 0 -9 -51 25 -67 45 -15 18 -9 78 8 89 8 5 32 14 54 20 124 34 181
55 242 91 192 114 205 119 259 114 28 -2 75 -16 103 -31z m-150 -299 c86 -29
208 -79 271 -111 63 -32 180 -80 260 -107 214 -73 291 -118 274 -162 -3 -9
-45 -44 -93 -78 -47 -35 -132 -106 -187 -160 -56 -53 -113 -100 -127 -103 -33
-9 -45 -4 -186 62 -234 111 -486 198 -723 252 -131 29 -178 46 -178 64 0 30
56 99 166 202 238 225 262 231 523 141z m-269 -491 c176 -58 281 -99 451 -181
111 -52 167 -74 195 -74 29 0 35 -3 24 -10 -29 -19 -60 -9 -182 54 -212 110
-382 172 -683 250 -149 38 -215 59 -215 70 0 6 302 -74 410 -109z"/>
</g>
</svg>
