<?xml version="1.0" standalone="no"?>
<!DOCTYPE svg PUBLIC "-//W3C//DTD SVG 20010904//EN"
 "http://www.w3.org/TR/2001/REC-SVG-20010904/DTD/svg10.dtd">
<svg version="1.0" xmlns="http://www.w3.org/2000/svg"
 width="890.000000pt" height="512.000000pt" viewBox="0 0 890.000000 512.000000"
 preserveAspectRatio="xMidYMid meet">
<metadata>
Created by potrace 1.16, written by Peter Selinger 2001-2019
</metadata>
<g transform="translate(0.000000,512.000000) scale(0.100000,-0.100000)"
fill="#000000" stroke="none">
<path d="M2793 4469 c-24 -12 -52 -37 -65 -57 l-23 -37 -5 -1400 -5 -1400
-345 -5 c-312 -5 -348 -7 -375 -23 -44 -27 -75 -77 -81 -133 -6 -47 -2 -58 96
-252 110 -218 149 -272 263 -358 81 -61 201 -118 307 -146 l85 -23 1805 0
1805 0 85 22 c170 45 345 154 440 275 23 28 84 137 136 242 92 182 96 193 90
240 -6 56 -37 106 -81 133 -27 16 -63 18 -375 23 l-345 5 -5 1400 c-6 1563 1
1438 -75 1485 -53 33 -100 35 -201 10 -358 -90 -760 -308 -1044 -567 -148
-135 -351 -369 -421 -483 -8 -13 -10 -13 -18 0 -69 114 -291 368 -428 491
-282 252 -672 464 -1022 555 -114 29 -144 30 -198 3z m483 -484 c84 -40 194
-101 245 -135 256 -170 497 -412 656 -658 83 -128 81 -114 30 -233 -24 -57
-46 -111 -49 -119 -4 -11 -8 -8 -16 11 -15 38 -66 76 -110 84 -95 16 -185 -76
-167 -171 8 -47 58 -101 103 -113 34 -9 95 -3 120 13 5 3 -3 -38 -19 -92 -71
-241 -123 -538 -140 -807 -6 -93 -13 -176 -15 -183 -3 -10 -95 -12 -436 -10
l-433 3 -3 1257 -2 1258 42 -16 c24 -9 111 -49 194 -89z m2582 -1157 l-3
-1253 -588 0 -589 0 -2 51 c-4 140 -158 194 -255 90 -19 -20 -26 -40 -29 -86
l-4 -60 -59 0 c-32 0 -60 3 -62 8 -2 4 -1 65 4 135 43 658 239 1226 566 1641
81 102 264 286 363 366 162 128 341 235 550 326 41 18 83 33 93 33 16 1 17
-63 15 -1251z m692 -1607 c0 -5 -15 -31 -32 -57 -37 -55 -126 -120 -215 -156
l-58 -23 -1795 0 -1795 0 -58 23 c-89 36 -178 101 -214 156 -18 26 -33 52 -33
57 0 5 885 9 2100 9 1215 0 2100 -4 2100 -9z"/>
<path d="M3247 3579 c-78 -41 -97 -155 -38 -220 77 -87 222 -56 252 54 13 49
4 89 -29 129 -49 58 -119 72 -185 37z"/>
<path d="M3629 3287 c-123 -82 -64 -267 84 -267 37 0 90 31 119 70 24 33 26
106 4 149 -36 70 -139 94 -207 48z"/>
<path d="M5508 3602 c-36 -34 -42 -45 -45 -93 -4 -45 -1 -60 19 -89 103 -154
331 -22 252 146 -23 48 -70 74 -133 74 -46 0 -56 -4 -93 -38z"/>
<path d="M5170 3371 c-135 -71 -90 -275 60 -275 156 0 208 201 70 272 -54 27
-84 28 -130 3z"/>
<path d="M4870 3032 c-136 -68 -88 -274 65 -274 81 0 136 52 143 136 3 41 -1
58 -20 86 -27 40 -79 70 -123 70 -16 0 -46 -8 -65 -18z"/>
<path d="M4653 2634 c-44 -22 -76 -76 -76 -128 0 -154 202 -203 274 -66 35 66
14 143 -51 188 -39 26 -100 29 -147 6z"/>
<path d="M4535 2206 c-87 -39 -114 -140 -60 -222 39 -61 141 -75 201 -29 64
49 80 121 41 189 -38 67 -114 92 -182 62z"/>
</g>
</svg>
