<?xml version="1.0" standalone="no"?>
<!DOCTYPE svg PUBLIC "-//W3C//DTD SVG 20010904//EN"
 "http://www.w3.org/TR/2001/REC-SVG-20010904/DTD/svg10.dtd">
<svg version="1.0" xmlns="http://www.w3.org/2000/svg"
 width="920.000000pt" height="920.000000pt" viewBox="0 0 920.000000 920.000000"
 preserveAspectRatio="xMidYMid meet">

<g transform="translate(0.000000,920.000000) scale(0.100000,-0.100000)"
fill="#000000" stroke="none">
<path d="M3755 8766 c-93 -29 -149 -75 -193 -160 -26 -50 -27 -54 -30 -287 -3
-209 -2 -238 13 -252 14 -14 40 -17 171 -17 l154 0 0 -54 0 -54 -107 -3 c-94
-4 -116 -8 -165 -32 -64 -31 -125 -95 -160 -165 -22 -45 -23 -58 -26 -344 l-3
-296 -72 -22 c-102 -31 -270 -120 -368 -194 -331 -251 -560 -641 -652 -1111
l-21 -110 -4 -2205 c-2 -1650 0 -2224 9 -2280 26 -169 92 -294 223 -426 77
-77 106 -98 186 -138 173 -85 515 -150 975 -188 193 -15 813 -15 1020 0 433
33 762 96 940 181 178 84 317 248 389 455 l21 61 3 2180 c2 1543 0 2212 -8
2290 -28 275 -125 563 -271 802 -191 312 -519 603 -776 687 l-52 17 -3 307 -3
307 -28 56 c-32 66 -99 132 -165 162 -37 17 -72 22 -164 25 l-118 4 0 54 0 53
147 3 148 3 32 65 c60 122 153 176 298 173 87 -2 344 -62 716 -167 206 -59
253 -65 297 -42 66 35 122 125 122 198 0 33 -23 82 -53 115 -37 41 -420 176
-682 242 -187 47 -423 87 -625 106 -195 19 -1055 20 -1115 1z m1140 -91 c337
-39 752 -141 1084 -266 120 -45 151 -68 151 -114 0 -47 -39 -99 -75 -103 -17
-2 -147 29 -290 69 -351 96 -585 149 -665 149 -159 0 -299 -79 -359 -203 l-23
-47 -544 0 -544 0 0 185 c0 145 3 194 15 223 21 49 52 81 100 103 37 17 75 19
530 19 374 0 521 -4 620 -15z m-505 -660 l0 -55 -211 0 -211 0 6 31 c3 17 6
42 6 55 l0 24 205 0 205 0 0 -55z m332 -172 c27 -12 64 -39 83 -60 58 -63 65
-103 65 -394 l0 -258 -52 7 c-29 4 -335 7 -679 7 l-627 0 3 277 c3 235 6 281
20 310 34 65 91 111 160 129 17 4 244 7 505 6 466 -2 476 -2 522 -24z m49
-803 c158 -18 347 -95 489 -198 41 -31 127 -107 190 -171 295 -298 477 -685
520 -1110 14 -143 14 -4291 -1 -4381 -22 -137 -105 -289 -206 -379 -117 -104
-276 -159 -624 -216 -276 -44 -434 -56 -844 -62 -615 -9 -1048 31 -1405 129
-236 65 -403 230 -477 473 -17 57 -18 159 -18 2280 0 2106 1 2226 18 2329 69
406 231 724 503 986 179 172 390 280 617 315 101 16 1109 20 1238 5z"/>
<path d="M4095 6371 c-42 -19 -95 -72 -118 -119 -22 -43 -28 -92 -17 -157 24
-148 168 -229 324 -183 60 18 132 95 151 163 18 59 10 137 -19 193 -19 37 -80
90 -122 108 -48 20 -151 17 -199 -5z m172 -98 c55 -26 75 -66 69 -137 -5 -62
-31 -102 -88 -132 -92 -48 -198 26 -198 138 0 115 110 182 217 131z"/>
<path d="M3443 5325 c-37 -19 -62 -41 -90 -82 -36 -53 -38 -59 -38 -137 0 -73
3 -86 30 -129 34 -54 100 -103 152 -113 49 -9 135 1 173 21 180 93 169 373
-17 452 -55 22 -151 17 -210 -12z m173 -85 c55 -27 79 -74 70 -139 -19 -145
-194 -191 -273 -72 -42 62 -19 152 50 202 48 35 93 37 153 9z"/>
<path d="M4670 4981 c-166 -54 -266 -155 -306 -311 -39 -151 28 -330 159 -426
169 -125 394 -108 542 40 199 200 144 542 -108 665 -105 52 -195 62 -287 32z
m257 -117 c107 -55 173 -167 173 -294 0 -72 -13 -111 -63 -182 -89 -129 -252
-178 -393 -118 -59 26 -130 93 -162 155 -24 44 -27 62 -27 145 0 105 9 129 72
208 97 119 265 155 400 86z"/>
<path d="M3160 4104 c-14 -2 -59 -9 -100 -15 -99 -14 -239 -51 -338 -89 -91
-35 -143 -83 -162 -147 -8 -27 -10 -400 -8 -1308 l3 -1270 23 -61 c92 -246
355 -416 759 -493 196 -38 282 -48 503 -61 297 -17 733 -9 1099 20 245 20 472
97 628 214 84 63 142 131 186 214 74 139 71 93 71 1187 l1 980 -22 40 c-54
101 -160 140 -272 100 -118 -41 -404 -66 -542 -46 -195 27 -339 103 -604 317
-93 75 -215 167 -270 203 -167 111 -349 181 -542 210 -66 10 -354 13 -413 5z
m458 -109 c117 -23 242 -69 347 -127 105 -60 181 -114 364 -264 169 -139 280
-212 385 -258 139 -59 184 -68 376 -73 191 -5 324 9 458 49 69 20 75 20 107 5
19 -9 42 -31 52 -49 16 -31 17 -94 17 -983 0 -855 -2 -957 -17 -1018 -23 -93
-57 -155 -123 -226 -151 -164 -381 -257 -696 -283 -217 -18 -1107 -17 -1253 0
-339 42 -549 104 -728 215 -134 84 -222 203 -247 336 -6 35 -10 484 -10 1268
0 1382 -8 1263 87 1308 91 43 244 83 423 111 108 17 346 11 458 -11z"/>
<path d="M6259 7929 c-12 -12 -18 -27 -15 -36 42 -110 55 -533 22 -733 -46
-284 -50 -320 -38 -406 27 -201 145 -319 331 -331 100 -7 175 20 241 87 75 74
94 136 95 300 0 151 -15 238 -69 403 -91 275 -272 550 -454 688 -36 27 -71 49
-78 49 -8 0 -23 -9 -35 -21z m262 -332 c121 -176 209 -396 264 -663 35 -170
10 -309 -67 -364 -148 -107 -359 -17 -399 170 -15 70 -6 214 20 342 33 156 44
307 38 492 -3 94 -8 180 -12 191 -15 39 96 -80 156 -168z"/>
<path d="M3841 180 c-1 -18 16 -46 23 -40 2 3 -2 16 -9 30 -8 15 -14 19 -14
10z"/>
<path d="M3871 183 c-2 -17 10 -43 19 -43 4 0 10 12 13 27 5 25 4 26 -8 10
-13 -18 -13 -18 -18 0 -3 10 -5 13 -6 6z"/>
<path d="M3926 170 c7 -28 12 -35 18 -29 2 2 -2 15 -10 29 l-15 25 7 -25z"/>
<path d="M3970 171 c-12 -24 -13 -31 -1 -31 5 0 11 11 13 25 6 30 2 32 -12 6z"/>
<path d="M4022 169 c-14 -23 -15 -29 -3 -29 5 0 12 8 14 18 4 16 5 16 6 0 0
-10 6 -18 11 -18 13 0 12 11 -3 32 -12 15 -14 15 -25 -3z"/>
<path d="M4111 168 c-1 -22 4 -28 19 -28 15 0 20 6 19 28 -2 23 -2 24 -6 5 -2
-13 -8 -23 -13 -23 -5 0 -11 10 -13 23 -4 19 -4 18 -6 -5z"/>
<path d="M4170 165 c0 -20 5 -25 23 -24 18 1 19 2 4 6 -13 3 -17 11 -14 24 3
10 1 19 -4 19 -5 0 -9 -11 -9 -25z"/>
<path d="M4216 182 c7 -4 14 -16 16 -27 3 -17 5 -15 10 8 4 23 2 27 -16 27
-13 0 -16 -3 -10 -8z"/>
<path d="M4271 163 c0 -16 3 -22 6 -15 3 8 9 10 16 3 9 -6 12 -2 13 15 1 17
-3 24 -17 24 -14 0 -19 -7 -18 -27z"/>
<path d="M4333 173 c-3 -10 -7 -20 -9 -23 -1 -3 9 -5 22 -5 25 0 28 4 18 29
-8 21 -23 20 -31 -1z"/>
<path d="M4390 165 c0 -20 5 -25 23 -24 16 1 18 2 5 6 -10 2 -18 11 -18 18 0
7 8 16 18 18 13 4 11 5 -5 6 -18 1 -23 -4 -23 -24z"/>
<path d="M4444 175 c-8 -19 3 -35 26 -35 19 0 30 17 23 38 -6 17 -42 15 -49
-3z m41 -4 c7 -12 -12 -24 -25 -16 -11 7 -4 25 10 25 5 0 11 -4 15 -9z"/>
<path d="M4564 175 c-4 -9 -2 -21 4 -27 15 -15 44 -1 40 19 -4 23 -36 29 -44
8z m36 -10 c0 -8 -7 -15 -15 -15 -8 0 -15 7 -15 15 0 8 7 15 15 15 8 0 15 -7
15 -15z"/>
<path d="M4631 163 c0 -15 3 -22 6 -15 3 9 9 10 17 3 10 -8 12 -5 11 12 -1 12
-9 23 -18 25 -13 3 -17 -4 -16 -25z"/>
<path d="M4690 165 c0 -14 3 -25 8 -25 4 0 7 11 7 25 0 14 -3 25 -7 25 -5 0
-8 -11 -8 -25z"/>
<path d="M4728 163 c5 -24 6 -25 12 -8 8 21 4 35 -9 35 -5 0 -6 -12 -3 -27z"/>
<path d="M4756 172 c-4 -13 -5 -26 -2 -29 10 -11 18 4 14 29 l-4 23 -8 -23z"/>
<path d="M4790 165 c0 -20 5 -25 25 -25 16 0 25 6 25 15 0 8 -5 15 -11 15 -5
0 -7 -4 -4 -10 3 -5 -1 -10 -9 -10 -25 0 -19 28 7 33 19 4 18 4 -5 6 -24 1
-28 -3 -28 -24z"/>
<path d="M4865 180 c11 -5 14 -9 8 -9 -7 -1 -13 -5 -13 -11 0 -5 7 -7 15 -4
23 9 18 34 -7 33 -22 0 -22 -1 -3 -9z"/>
<path d="M4910 182 c0 -6 -2 -16 -5 -24 -3 -8 3 -13 19 -13 19 0 22 4 16 19
-7 21 -30 34 -30 18z"/>
<path d="M4964 175 c-3 -8 -3 -19 1 -25 10 -16 45 -12 45 5 0 8 -5 15 -11 15
-5 0 -7 -4 -4 -10 3 -5 2 -10 -4 -10 -21 0 -21 21 1 29 l23 10 -23 0 c-12 1
-25 -6 -28 -14z"/>
<path d="M5030 165 c0 -17 5 -25 18 -25 14 0 15 2 2 10 -8 5 -10 10 -4 10 6 0
11 7 11 15 0 8 -6 15 -14 15 -7 0 -13 -11 -13 -25z"/>
<path d="M5085 180 c-3 -6 2 -13 11 -17 16 -6 16 -7 -2 -14 -18 -7 -17 -8 3
-8 27 -1 40 17 18 25 -13 6 -14 8 -3 15 10 7 9 9 -4 9 -9 0 -20 -5 -23 -10z"/>
<path d="M5178 178 c-8 -22 3 -38 25 -37 22 0 22 0 0 9 -13 5 -23 12 -23 15 0
3 10 10 23 15 22 9 22 9 1 9 -12 1 -24 -5 -26 -11z"/>
<path d="M5234 175 c-8 -20 4 -35 27 -35 14 0 19 7 19 25 0 18 -5 25 -20 25
-11 0 -23 -7 -26 -15z m36 -11 c0 -17 -22 -14 -28 4 -2 7 3 12 12 12 9 0 16
-7 16 -16z"/>
<path d="M5301 163 c0 -25 1 -26 9 -8 12 27 12 35 0 35 -5 0 -10 -12 -9 -27z"/>
<path d="M5327 177 c-2 -6 1 -17 8 -24 10 -9 13 -6 13 13 0 25 -13 32 -21 11z"/>
<path d="M4518 143 c6 -2 18 -2 25 0 6 3 1 5 -13 5 -14 0 -19 -2 -12 -5z"/>
</g>
</svg>
