<?xml version="1.0" standalone="no"?>
<!DOCTYPE svg PUBLIC "-//W3C//DTD SVG 20010904//EN"
 "http://www.w3.org/TR/2001/REC-SVG-20010904/DTD/svg10.dtd">
<svg version="1.0" xmlns="http://www.w3.org/2000/svg"
 width="800.000000pt" height="800.000000pt" viewBox="0 0 800.000000 800.000000"
 preserveAspectRatio="xMidYMid meet">

<g transform="translate(0.000000,800.000000) scale(0.100000,-0.100000)"
fill="#000000" stroke="none">
<path d="M4070 6556 c-267 -57 -498 -233 -618 -471 -17 -33 -81 -193 -143
-355 -61 -162 -113 -296 -114 -298 -1 -1 -62 21 -136 49 -218 83 -247 91 -315
86 -103 -8 -214 -71 -263 -150 -18 -30 -67 -153 -216 -547 -36 -96 -72 -191
-80 -210 -8 -19 -81 -208 -161 -420 -145 -378 -148 -386 -148 -465 0 -86 18
-143 69 -209 42 -55 94 -84 277 -156 119 -46 172 -72 170 -81 -2 -8 -52 -142
-111 -299 -127 -333 -138 -371 -150 -483 -26 -264 59 -513 242 -704 327 -340
846 -380 1215 -92 l62 49 0 -77 c0 -43 5 -95 10 -115 16 -56 68 -117 130 -152
l55 -31 1045 0 1045 0 55 31 c60 34 113 100 130 164 7 26 9 383 8 1067 l-3
1028 -22 41 c-29 54 -101 117 -151 132 -27 8 -144 12 -366 12 -179 0 -326 2
-326 4 0 2 29 80 65 172 83 215 93 267 71 354 -18 71 -51 127 -100 172 -42 40
-67 52 -246 120 -85 33 -158 62 -162 66 -4 4 47 147 112 319 66 172 126 346
135 387 19 97 19 266 -1 364 -31 154 -109 302 -223 424 -117 125 -268 214
-447 264 -81 22 -308 28 -394 10z m390 -122 c73 -21 187 -74 247 -115 233
-160 365 -445 333 -721 -14 -118 -20 -136 -200 -608 -315 -825 -372 -975 -387
-1020 -9 -25 -20 -51 -26 -57 -14 -18 -367 -19 -367 -1 0 7 84 232 186 500
117 307 184 497 182 514 -4 36 -29 51 -64 39 -25 -9 -42 -49 -220 -515 -105
-278 -196 -514 -200 -525 -7 -15 -22 -22 -59 -26 -27 -3 -62 -11 -77 -17 -46
-19 -110 -84 -134 -137 l-24 -50 0 -867 0 -867 -57 -59 c-302 -306 -796 -312
-1117 -12 -181 169 -274 444 -232 687 15 89 64 222 421 1158 30 77 167 437
305 800 138 363 319 838 402 1055 83 217 166 424 184 460 118 228 358 388 613
409 92 7 216 -3 291 -25z m-1484 -1038 c93 -35 170 -68 171 -73 2 -5 -56 -164
-128 -353 -72 -190 -230 -606 -351 -925 -121 -319 -224 -584 -229 -589 -4 -5
-80 18 -176 54 -150 57 -173 69 -214 110 -51 52 -75 116 -67 178 3 21 33 109
66 197 361 953 517 1355 537 1381 14 18 48 44 77 58 81 41 120 36 314 -38z
m2041 -778 c175 -66 221 -95 255 -161 41 -79 33 -135 -53 -357 l-76 -195 -296
-3 c-253 -2 -297 0 -297 12 0 13 274 738 287 759 7 11 9 11 180 -55z m763
-822 c0 -2 -33 -28 -72 -57 -366 -269 -679 -542 -774 -676 -107 -148 -148
-315 -124 -493 21 -154 90 -287 217 -416 135 -138 417 -373 650 -544 l103 -75
-938 -3 c-614 -2 -949 1 -972 7 -20 6 -51 27 -70 46 l-35 36 -3 1027 c-2 728
1 1035 9 1054 6 14 21 36 34 48 53 50 35 49 1038 50 515 0 937 -2 937 -4z
m207 -63 l28 -36 3 -1016 c1 -559 0 -1026 -3 -1038 -3 -13 -19 -38 -36 -58
l-31 -35 -46 32 c-103 69 -394 292 -517 394 -275 230 -393 362 -446 499 -19
50 -23 79 -23 180 -1 139 13 194 71 295 85 145 440 454 918 798 41 29 50 28
82 -15z"/>
<path d="M3608 5238 c-9 -7 -56 -119 -106 -248 -469 -1231 -672 -1768 -672
-1783 0 -27 46 -52 74 -39 26 12 29 19 204 482 66 173 224 588 351 921 127
333 231 618 231 632 0 40 -49 61 -82 35z"/>
</g>
</svg>
