<?xml version="1.0" standalone="no"?>
<!DOCTYPE svg PUBLIC "-//W3C//DTD SVG 20010904//EN"
 "http://www.w3.org/TR/2001/REC-SVG-20010904/DTD/svg10.dtd">
<svg version="1.0" xmlns="http://www.w3.org/2000/svg"
 width="360.000000pt" height="360.000000pt" viewBox="0 0 360.000000 360.000000"
 preserveAspectRatio="xMidYMid meet">
<metadata>
Created by potrace 1.16, written by Peter Selinger 2001-2019
</metadata>
<g transform="translate(0.000000,360.000000) scale(0.100000,-0.100000)"
fill="#000000" stroke="none">
<path d="M1383 2883 c-23 -8 -14 -42 27 -107 45 -72 47 -76 23 -76 -10 0 -66
-16 -124 -36 l-106 -36 -99 25 c-55 13 -105 22 -111 20 -7 -3 -13 -15 -13 -28
0 -18 11 -27 55 -46 30 -13 55 -27 55 -30 0 -3 -24 -21 -52 -40 -72 -46 -201
-171 -253 -244 -178 -251 -214 -577 -96 -880 121 -315 424 -571 786 -667 114
-30 130 -31 315 -32 158 -1 210 3 275 18 266 62 468 175 637 355 315 335 367
818 129 1182 -57 86 -184 212 -272 269 l-61 39 56 25 c60 27 77 49 55 71 -12
11 -31 9 -113 -12 l-99 -25 -107 36 c-59 20 -115 36 -124 36 -24 0 -20 13 24
82 75 116 38 126 -109 29 -95 -63 -112 -71 -155 -71 -46 0 -48 1 -42 25 7 29
-15 79 -39 89 -9 3 -33 6 -54 6 -44 0 -72 -26 -91 -82 -19 -60 -55 -54 -182
30 -124 83 -120 80 -135 75z m317 -293 c17 -63 41 -85 94 -85 57 0 90 29 90
79 0 32 5 37 71 75 38 22 85 51 104 63 33 21 32 20 -24 -64 -80 -121 -79 -123
75 -121 69 1 120 -1 114 -3 -7 -3 -63 -17 -125 -33 -87 -21 -115 -31 -117 -45
-2 -9 16 -42 40 -72 24 -31 51 -67 62 -80 l18 -25 -48 20 c-27 10 -93 40 -148
65 -54 25 -105 46 -113 46 -7 0 -42 -14 -76 -31 -80 -41 -217 -100 -217 -93 0
2 27 38 61 78 35 43 59 82 57 92 -2 14 -31 24 -122 46 -66 15 -122 30 -124 33
-2 2 51 3 119 2 150 -2 152 0 81 105 -26 40 -52 78 -56 85 -3 7 34 -13 84 -43
79 -49 91 -60 100 -94z m-330 -115 c69 -20 133 -40 143 -43 15 -6 5 -22 -63
-106 -78 -97 -94 -131 -66 -142 17 -7 180 54 314 116 l102 49 113 -53 c61 -30
151 -68 199 -86 145 -54 153 -30 38 111 -44 53 -80 100 -80 103 0 3 19 10 43
16 23 6 93 27 155 46 l113 35 58 -31 c141 -76 287 -222 356 -360 66 -132 80
-197 80 -375 -1 -153 -2 -164 -33 -255 -45 -135 -112 -248 -207 -348 -106
-112 -187 -173 -320 -238 -312 -153 -699 -157 -1010 -10 -129 61 -195 106
-298 205 -97 93 -160 181 -211 293 -58 127 -71 195 -71 363 0 129 3 160 23
225 47 148 140 293 245 383 83 71 209 149 232 143 11 -3 76 -21 145 -41z"/>
</g>
</svg>
