<?xml version="1.0" standalone="no"?>
<!DOCTYPE svg PUBLIC "-//W3C//DTD SVG 20010904//EN"
 "http://www.w3.org/TR/2001/REC-SVG-20010904/DTD/svg10.dtd">
<svg version="1.0" xmlns="http://www.w3.org/2000/svg"
 width="980.000000pt" height="980.000000pt" viewBox="0 0 980.000000 980.000000"
 preserveAspectRatio="xMidYMid meet">
<metadata>
Created by potrace 1.16, written by Peter Selinger 2001-2019
</metadata>
<g transform="translate(0.000000,980.000000) scale(0.100000,-0.100000)"
fill="#000000" stroke="none">
<path d="M4953 8885 c-19 -13 -199 -243 -553 -705 -53 -69 -118 -154 -146
-190 -470 -607 -514 -667 -514 -697 0 -35 42 -73 83 -73 43 0 43 0 273 300
103 135 208 272 234 305 138 179 653 849 693 902 57 74 63 119 21 152 -32 25
-61 27 -91 6z"/>
<path d="M6663 8868 c-17 -18 -167 -211 -334 -428 -166 -217 -414 -539 -549
-715 -307 -399 -310 -403 -310 -432 0 -36 42 -73 84 -73 29 0 41 8 79 53 24
28 284 365 577 747 294 382 546 710 562 728 38 45 39 102 2 131 -39 31 -75 27
-111 -11z"/>
<path d="M3383 8847 c-12 -7 -63 -67 -115 -133 -51 -67 -226 -292 -389 -500
-821 -1053 -779 -997 -779 -1028 0 -8 12 -28 26 -45 27 -32 59 -39 94 -21 10
5 153 182 316 392 164 211 330 424 369 473 80 101 502 644 558 718 44 58 48
97 12 132 -26 27 -58 31 -92 12z"/>
<path d="M1553 6696 l-28 -24 -3 -1814 c-2 -1780 -2 -1814 17 -1845 16 -25 29
-33 63 -38 24 -3 409 -5 856 -3 l814 3 24 28 c29 34 31 66 3 101 l-20 26 -795
2 -794 3 0 1710 0 1710 2100 3 2100 2 0 -624 0 -624 26 -31 c31 -37 69 -41
108 -10 l26 20 0 694 0 694 -26 20 -27 21 -2208 0 -2208 0 -28 -24z"/>
<path d="M4648 6081 c-77 -25 -118 -52 -177 -116 -43 -48 -91 -140 -91 -175 0
-20 -16 -8 -120 94 -60 59 -128 115 -156 129 -253 128 -554 -47 -568 -330 l-3
-64 -65 -4 c-330 -19 -493 -410 -273 -654 40 -44 42 -51 18 -51 -36 0 -144
-60 -188 -105 -26 -25 -61 -76 -78 -113 -29 -61 -32 -75 -32 -167 0 -172 -37
-124 638 -801 l589 -591 -103 -1 c-207 0 -369 -62 -501 -193 -59 -57 -85 -93
-109 -145 -64 -138 -47 -272 44 -350 63 -53 115 -64 311 -64 442 -1 914 -49
1176 -121 57 -16 84 -30 115 -59 155 -147 410 -273 640 -315 l90 -17 485 -484
c443 -441 488 -484 518 -484 44 0 82 38 82 82 0 30 -44 76 -497 530 -273 273
-508 501 -522 506 -15 5 -60 15 -101 21 -214 33 -437 141 -600 292 -55 50 -78
61 -206 93 -272 68 -605 103 -1092 115 l-274 6 -24 28 c-82 96 59 295 263 369
79 30 269 37 366 14 38 -9 82 -16 100 -16 27 0 54 -22 202 -170 174 -173 189
-183 240 -164 25 10 48 62 40 93 -4 17 -302 322 -843 863 -562 562 -843 849
-854 875 -36 78 -10 202 53 260 37 34 110 63 159 63 93 0 103 -8 655 -560 475
-475 523 -520 553 -520 44 0 82 38 82 82 0 29 -58 90 -659 693 l-659 660 -11
54 c-14 65 -7 112 26 169 59 103 192 146 298 95 17 -8 323 -307 680 -664 596
-594 653 -649 683 -649 44 0 82 38 82 82 0 30 -55 87 -649 683 -357 357 -656
664 -664 680 -61 126 10 280 148 320 61 18 107 15 160 -12 16 -8 323 -307 680
-664 596 -594 653 -649 683 -649 44 0 82 38 82 82 0 29 -42 75 -458 493 -484
485 -482 483 -482 572 0 117 116 233 234 233 93 0 48 41 1084 -993 611 -610
997 -1003 1036 -1055 111 -146 184 -309 221 -492 l15 -75 519 -518 518 -518
44 3 c39 3 46 7 61 37 12 25 14 40 7 60 -6 14 -233 249 -505 521 l-494 495
-19 80 c-52 217 -151 410 -291 570 -29 33 -483 491 -1008 1017 -1077 1078
-1006 1017 -1166 1024 -61 3 -95 0 -138 -15z"/>
</g>
</svg>
