<?xml version="1.0" standalone="no"?>
<!DOCTYPE svg PUBLIC "-//W3C//DTD SVG 20010904//EN"
 "http://www.w3.org/TR/2001/REC-SVG-20010904/DTD/svg10.dtd">
<svg version="1.0" xmlns="http://www.w3.org/2000/svg"
 width="450.000000pt" height="300.000000pt" viewBox="0 0 450.000000 300.000000"
 preserveAspectRatio="xMidYMid meet">
<metadata>
Created by potrace 1.16, written by Peter Selinger 2001-2019
</metadata>
<g transform="translate(0.000000,300.000000) scale(0.100000,-0.100000)"
fill="#000000" stroke="none">
<path d="M1863 2653 c-7 -2 -13 -20 -13 -38 0 -19 -4 -37 -10 -40 -5 -3 -10
-26 -10 -50 0 -24 5 -47 10 -50 11 -7 14 -372 4 -399 -3 -9 -35 -39 -71 -67
-35 -28 -78 -71 -94 -97 l-30 -47 6 -610 c3 -335 8 -619 10 -630 4 -18 0 -20
-38 -19 l-42 2 40 -6 c33 -6 41 -11 43 -32 3 -23 0 -25 -39 -25 -25 0 -44 -5
-46 -12 -6 -16 21 -17 46 -1 15 9 22 8 36 -5 15 -16 14 -17 -19 -17 -19 0 -38
-4 -41 -10 -4 -6 9 -10 32 -10 27 0 34 -3 23 -10 -10 -6 0 -10 35 -13 43 -3
39 -4 -25 -7 l-75 -3 110 -9 c61 -5 200 -12 310 -16 l200 -8 -180 -3 c-99 -2
-225 -7 -280 -11 -68 -6 -2 -7 205 -5 265 2 283 2 140 -6 -91 -4 -176 -10
-190 -13 -32 -6 259 2 415 12 l120 7 -85 6 -85 5 90 4 c82 3 85 4 40 10 -47 6
-44 7 35 10 l85 4 -80 6 -80 6 80 4 80 4 -100 6 -100 6 80 4 80 3 -60 7 -60 7
55 1 c30 1 77 -5 104 -13 79 -24 205 -15 290 20 16 7 18 5 13 -10 -6 -15 -5
-16 7 -6 9 7 44 16 78 19 53 5 58 7 33 13 -24 5 -25 7 -7 8 12 0 22 6 22 11 0
6 15 10 34 10 52 0 55 20 4 21 l-43 2 35 7 c31 6 27 8 -30 10 l-65 3 65 7 65
7 -65 2 c-36 2 -56 5 -45 8 51 12 31 22 -36 18 -50 -3 -66 -2 -49 4 24 9 23 9
-10 12 -19 2 19 6 85 9 l120 6 -162 2 -161 2 -12 32 c-7 20 -14 115 -17 243
-6 263 -2 279 78 309 114 43 189 158 189 290 0 69 -30 259 -58 371 -17 67 -20
71 -58 85 -49 18 -344 20 -387 2 -35 -15 -41 -32 -78 -216 -37 -184 -38 -322
-2 -391 30 -58 102 -120 163 -142 29 -10 59 -28 67 -40 44 -67 36 -522 -10
-535 -7 -2 -68 -1 -137 2 l-125 4 85 6 85 6 -97 2 -97 2 -1 581 c0 549 -1 582
-19 617 -17 34 -57 74 -149 152 l-30 26 -7 177 c-4 97 -4 189 0 204 9 33 9 90
0 156 l-7 47 -102 -1 c-55 0 -107 -3 -113 -6z m71 -214 c-3 -5 3 -9 13 -9 15
0 16 -2 3 -10 -13 -9 -13 -10 0 -10 13 0 13 -1 0 -10 -18 -11 -22 -130 -5
-142 5 -4 33 -8 60 -9 l50 -1 -42 -10 c-25 -7 -60 -7 -90 -2 l-48 9 -3 98 c-4
123 -2 130 38 116 16 -6 27 -15 24 -20z m-28 -217 c18 -11 28 -72 12 -72 -10
0 -9 -3 2 -10 8 -5 10 -10 5 -10 -6 0 -12 -23 -13 -52 -1 -29 -8 -55 -14 -59
-13 -8 -5 -13 37 -22 11 -3 2 -6 -20 -7 -35 -2 -37 -3 -15 -10 23 -6 22 -8
-15 -14 -60 -11 -66 -17 -12 -11 55 5 61 0 15 -14 l-33 -9 30 -2 c26 -1 27 -3
10 -10 -18 -8 -18 -9 5 -10 19 -2 20 -4 7 -7 -18 -5 -18 -5 0 -20 16 -13 13
-14 -32 -9 -34 4 -45 3 -35 -4 11 -7 11 -10 2 -10 -7 0 -11 -4 -8 -9 4 -5 0
-12 -6 -14 -7 -3 2 -8 19 -12 18 -4 30 -12 27 -17 -3 -5 5 -7 18 -5 12 2 17 2
11 0 -7 -3 -13 -8 -13 -13 0 -4 -15 -4 -34 0 -43 9 -53 0 -48 -45 4 -31 7 -35
36 -36 31 -1 31 -1 -8 -12 -21 -7 -38 -16 -37 -21 2 -5 -3 -13 -11 -17 -10 -6
-8 -9 7 -9 14 0 7 -8 -24 -26 l-43 -26 7 -326 c8 -329 11 -352 45 -352 6 0 8
-4 5 -10 -4 -6 5 -10 20 -10 30 0 25 -17 -9 -30 -17 -7 -14 -9 19 -10 l40 -2
-35 -11 c-24 -7 -30 -12 -17 -14 9 -3 15 -9 12 -14 -4 -5 -1 -9 4 -9 6 0 11
-7 11 -16 0 -14 10 -16 68 -11 l67 6 -65 -13 c-61 -12 -64 -18 -15 -29 14 -3
11 -5 -10 -7 -30 -2 -30 -2 -5 -10 17 -5 19 -8 7 -9 -16 -1 -16 -3 -2 -31 11
-21 12 -30 4 -30 -21 0 -1 -12 33 -20 33 -8 33 -8 -9 -9 l-43 -1 0 -44 c0 -25
-5 -48 -10 -51 -13 -8 13 -35 34 -35 9 0 16 7 16 15 0 17 18 19 38 6 10 -6 8
-10 -10 -16 -23 -8 -22 -8 5 -12 19 -3 27 -9 23 -18 -3 -9 5 -15 22 -19 15 -2
-9 -3 -54 0 -91 5 -171 25 -204 52 -20 16 -22 31 -30 157 -5 77 -11 376 -15
665 l-7 525 32 48 c18 26 58 65 89 87 31 22 62 44 69 50 8 7 12 41 12 100 0
90 6 102 36 82z m829 -222 c131 -19 135 -32 15 -51 -91 -14 -297 1 -285 21 3
5 -5 6 -17 3 -17 -4 -20 -3 -12 6 23 25 187 37 299 21z m-225 -61 c31 -6 109
-9 178 -7 69 3 122 1 122 -4 0 -5 4 -7 8 -4 5 3 19 -28 32 -69 13 -41 25 -73
27 -71 4 4 -21 130 -33 161 -5 14 -4 17 4 10 6 -6 25 -78 41 -160 35 -173 40
-286 14 -360 -21 -64 -93 -136 -158 -160 -28 -10 -59 -26 -69 -36 -17 -16 -21
-16 -43 -2 -22 15 -23 14 -17 -3 7 -18 6 -18 -13 1 -17 17 -18 21 -4 24 13 3
12 5 -4 12 -13 5 3 8 46 8 53 1 78 7 128 32 33 17 72 45 86 63 32 42 55 108
55 157 l0 38 -46 -20 c-43 -19 -238 -42 -282 -34 -9 2 -43 6 -74 9 l-58 5 1
-32 c0 -18 3 -26 6 -18 4 10 9 8 19 -10 12 -22 13 -22 14 -4 0 14 7 7 19 -20
17 -36 20 -37 21 -15 2 24 2 24 12 -5 6 -16 15 -36 21 -42 17 -23 -33 -15 -78
12 -48 28 -68 54 -86 114 -7 23 -20 46 -30 52 -15 8 -18 4 -22 -28 -3 -21 -3
-3 -2 39 2 42 18 147 36 233 30 147 33 156 53 150 12 -3 46 -10 76 -16z m-530
-280 c-95 -11 -108 -17 -45 -20 48 -2 49 -2 15 -9 -30 -6 -26 -8 30 -10 36 -1
76 -5 90 -9 l25 -7 -30 -17 -30 -18 35 6 c26 5 31 4 20 -4 -8 -6 -23 -11 -32
-11 -9 0 -20 -5 -24 -11 -4 -7 0 -9 13 -5 11 4 31 2 44 -3 24 -10 23 -10 -6
-12 l-30 -2 35 -7 c29 -6 31 -8 9 -9 -16 0 -26 -7 -26 -16 0 -8 4 -15 9 -15 5
0 6 -4 3 -10 -3 -5 3 -10 15 -10 11 0 23 7 26 15 8 19 21 19 21 1 0 -8 -11
-17 -25 -21 -15 -4 -22 -11 -18 -20 3 -8 1 -17 -4 -20 -9 -6 -14 8 -11 27 0 4
-6 5 -15 1 -13 -5 -12 -9 7 -29 17 -18 25 -21 30 -12 6 10 11 10 20 1 30 -30
-30 -45 -65 -15 -20 16 -20 16 -6 -2 8 -11 13 -28 12 -39 -3 -16 1 -19 22 -15
29 6 36 -8 9 -15 -14 -4 -13 -5 4 -6 29 -1 37 -17 16 -31 -15 -9 -13 -10 12
-5 33 7 24 -10 -10 -18 -16 -4 -15 -5 6 -6 26 -1 26 -2 32 -98 8 -126 0 -164
-38 -183 -45 -22 -210 -26 -276 -7 -29 9 -55 14 -57 12 -2 -2 20 -11 49 -19
107 -32 327 -12 343 31 5 13 8 297 6 561 0 35 -4 44 -22 52 -14 5 -17 9 -8 10
20 1 -11 19 -65 37 -38 13 -38 13 -6 8 19 -3 54 -17 78 -31 l43 -25 -2 -317
-3 -317 -46 -23 c-105 -52 -253 -52 -357 0 l-47 23 -5 305 c-4 179 -2 310 3
318 26 35 168 81 247 80 53 -1 52 -1 -20 -9z m668 -671 c-3 -79 -2 -123 2 -98
7 43 7 43 8 -20 0 -45 -2 -59 -8 -45 -6 15 -9 7 -11 -32 -1 -29 -2 -57 -3 -63
-2 -20 19 -10 26 12 6 22 6 22 7 2 1 -12 3 -37 6 -55 5 -31 4 -32 -6 -11 -7
12 -18 22 -26 22 -15 0 -14 -30 2 -43 6 -5 -1 -5 -14 -2 -16 5 -21 4 -17 -4 4
-6 0 -11 -8 -11 -21 0 -21 -16 0 -24 34 -13 73 -6 89 17 13 19 17 20 25 7 5
-8 8 -19 7 -24 -4 -14 -113 -19 -136 -6 -17 9 -20 8 -15 -5 4 -8 1 -15 -5 -15
-27 0 -22 33 9 64 40 42 49 104 50 324 0 107 3 152 11 152 9 0 11 -39 7 -142z
m-60 -437 c62 -16 157 -8 183 14 12 11 19 14 14 6 -5 -10 -4 -12 3 -7 7 4 12
14 12 22 0 20 30 14 44 -9 41 -66 -241 -113 -357 -60 -54 25 -67 47 -43 71 14
14 16 15 11 1 -6 -17 19 -43 52 -53 23 -7 26 10 7 35 -27 35 -25 42 4 17 18
-15 50 -32 70 -37z"/>
<path d="M2480 1631 l-35 -8 36 -2 c25 -1 36 -6 36 -17 0 -12 -7 -14 -29 -10
-21 4 -30 1 -35 -10 -11 -28 14 -36 114 -37 l98 0 -80 -7 c-62 -6 -46 -7 70
-5 101 1 160 7 180 16 l30 13 -42 4 c-45 3 -60 21 -20 23 44 2 -38 19 -139 28
l-99 10 110 -5 c61 -2 136 -10 167 -18 63 -14 70 -4 10 14 -45 14 -323 22
-372 11z"/>
</g>
</svg>
