<?xml version="1.0" standalone="no"?>
<!DOCTYPE svg PUBLIC "-//W3C//DTD SVG 20010904//EN"
 "http://www.w3.org/TR/2001/REC-SVG-20010904/DTD/svg10.dtd">
<svg version="1.0" xmlns="http://www.w3.org/2000/svg"
 width="736.000000pt" height="900.000000pt" viewBox="0 0 736.000000 900.000000"
 preserveAspectRatio="xMidYMid meet">
<metadata>
Created by potrace 1.16, written by Peter Selinger 2001-2019
</metadata>
<g transform="translate(0.000000,900.000000) scale(0.100000,-0.100000)"
fill="#000000" stroke="none">
<path d="M6664 8554 c-157 -94 -418 -308 -1094 -894 -201 -175 -437 -380 -525
-456 -221 -192 -398 -343 -540 -459 -66 -54 -153 -127 -192 -162 l-73 -64
-182 60 c-338 110 -452 131 -735 131 -293 0 -501 -33 -793 -126 -189 -60 -416
-150 -665 -264 -110 -50 -227 -100 -259 -111 -33 -10 -193 -46 -355 -79 -424
-85 -583 -144 -701 -260 -69 -67 -93 -112 -125 -233 -149 -569 -57 -1643 256
-2962 179 -755 421 -1521 535 -1694 106 -161 328 -311 574 -390 388 -124 922
-190 1440 -178 711 17 1151 103 1533 299 206 106 280 171 384 339 263 423 540
1346 668 2224 66 461 85 694 92 1142 12 840 -69 1331 -253 1526 -56 59 -126
101 -326 196 l-177 84 28 26 c21 20 31 45 45 108 22 103 48 140 163 229 48 38
245 195 438 349 192 154 413 327 489 385 360 271 474 375 566 517 133 203 155
396 64 575 -44 87 -146 178 -199 178 -12 0 -48 -16 -81 -36z m119 -202 c47
-45 60 -79 54 -144 -12 -132 -128 -299 -392 -564 -283 -283 -626 -566 -1125
-927 -92 -66 -141 -96 -155 -93 -11 2 -49 16 -84 31 -35 15 -127 39 -204 54
l-141 27 125 105 c68 58 212 177 319 264 107 87 227 187 266 222 l72 63 88 1
c49 1 127 4 174 7 l85 7 -42 17 c-23 10 -79 20 -125 24 -46 4 -89 10 -96 14
-17 8 78 96 453 415 154 131 343 292 419 358 192 165 241 184 309 119z m-1820
-1771 c46 -15 80 -34 108 -61 40 -38 41 -41 37 -91 -7 -65 -38 -98 -165 -171
-125 -71 -330 -216 -513 -359 -117 -92 -158 -119 -181 -119 -69 0 -362 69
-441 103 l-51 22 139 116 c76 63 218 186 314 274 201 181 340 293 379 301 14
3 31 8 36 10 6 2 69 2 140 0 98 -3 147 -9 198 -25z m-1563 -152 c118 -14 197
-31 404 -87 l179 -49 -84 -70 c-46 -38 -127 -104 -179 -146 l-95 -76 -22 27
c-20 25 -27 38 -48 97 -7 17 -9 15 -16 -15 -34 -144 122 -297 363 -359 186
-48 551 -54 696 -12 74 22 166 63 176 79 3 5 -24 1 -60 -9 -36 -10 -93 -21
-127 -25 l-62 -7 48 42 c64 55 182 144 290 219 l89 61 91 -33 c121 -44 340
-134 448 -184 58 -27 95 -51 112 -73 28 -37 62 -142 53 -164 -7 -18 -145 -61
-255 -80 -47 -8 -184 -26 -304 -40 -322 -38 -450 -76 -583 -170 -149 -107
-234 -266 -323 -607 -61 -231 -98 -299 -185 -339 -73 -33 -139 -20 -209 41
-64 57 -93 126 -133 316 -19 90 -55 225 -79 301 -64 196 -113 262 -229 314
-90 40 -184 49 -586 60 -212 5 -538 21 -725 35 -363 27 -825 71 -834 79 -7 8
93 108 192 191 200 168 549 368 787 449 151 52 526 159 660 188 231 51 398 65
550 46z m-2190 -565 c0 -3 -16 -24 -35 -47 -44 -51 -93 -148 -102 -199 -3 -21
-8 -40 -12 -42 -8 -5 -271 40 -278 48 -13 13 135 142 199 174 77 38 228 82
228 66z m-260 -468 c766 -108 1579 -176 2104 -176 l169 0 66 -67 c84 -86 125
-169 186 -373 73 -245 99 -303 191 -426 159 -214 328 -241 488 -79 77 79 139
207 216 446 70 218 118 327 183 416 l45 60 79 7 c338 31 719 102 923 175 55
19 83 25 85 17 14 -40 27 -293 32 -612 l6 -372 -154 -50 c-602 -197 -1276
-297 -2094 -309 -740 -11 -1430 49 -2100 182 -320 63 -715 166 -751 196 -15
13 -25 411 -13 584 13 205 55 415 82 415 7 0 122 -16 257 -34z m4754 -1268
c-26 -438 -70 -784 -143 -1138 -20 -96 -11 -92 -126 -66 -156 35 -308 6 -421
-80 l-42 -32 -63 25 c-49 20 -75 24 -121 21 -57 -4 -58 -4 -58 21 0 36 9 45
55 59 52 15 120 73 147 126 47 90 19 207 -63 257 -37 23 -38 25 -33 69 15 115
-63 220 -162 220 -25 0 -26 -1 -22 -65 1 -36 0 -65 -3 -65 -3 0 -14 27 -24 60
-10 33 -24 60 -31 60 -7 0 -39 -10 -71 -21 -74 -28 -129 -80 -151 -144 -15
-40 -23 -51 -49 -58 -27 -8 -36 -5 -73 24 -36 29 -50 34 -108 37 -51 3 -80 -1
-120 -17 -51 -20 -54 -20 -85 -4 -47 25 -150 23 -203 -5 -33 -17 -52 -20 -90
-16 -37 5 -67 0 -121 -18 l-71 -24 -7 41 c-8 56 -49 110 -102 136 -127 61
-317 -37 -414 -214 -19 -34 -56 -83 -84 -109 l-49 -48 -36 34 c-67 65 -113 81
-225 81 l-100 0 -94 -50 c-62 -33 -118 -72 -162 -115 l-68 -65 -5 29 c-4 16
-6 46 -6 68 0 37 7 48 88 132 109 115 137 167 137 257 0 56 -4 71 -27 101 -37
48 -83 68 -160 68 -107 0 -220 -71 -248 -156 l-12 -34 -63 50 c-35 28 -80 57
-101 66 -73 30 -187 2 -257 -64 -116 -109 -82 -299 62 -347 28 -9 66 -35 97
-65 l51 -49 6 -197 c12 -350 10 -434 -13 -479 -23 -46 -26 -121 -6 -168 18
-44 77 -94 128 -108 119 -32 295 57 314 159 4 18 9 31 13 29 79 -42 130 -59
194 -64 39 -3 90 -1 112 4 l40 10 0 -121 c0 -113 2 -125 28 -176 35 -68 67
-103 132 -145 211 -137 584 -72 816 143 80 73 135 158 161 248 21 70 22 72 59
78 20 3 69 22 108 43 l72 36 16 -22 c21 -31 89 -61 139 -61 59 0 135 25 191
64 87 60 125 173 89 260 -11 27 -12 57 -4 157 10 134 13 153 26 145 5 -3 7
-72 4 -154 -3 -114 -1 -167 12 -230 l17 -82 -31 -60 c-46 -91 -88 -226 -96
-309 -7 -70 -7 -72 -22 -49 -8 13 -30 35 -50 49 -29 20 -48 24 -103 24 -60 0
-71 -3 -106 -30 -21 -17 -47 -49 -57 -72 -19 -39 -20 -40 -61 -35 -60 6 -109
-13 -147 -58 -30 -34 -37 -38 -84 -38 -28 0 -64 -7 -81 -16 -95 -49 -109 -183
-28 -255 64 -56 158 -50 213 14 29 33 33 34 81 28 31 -3 62 -1 81 7 29 12 32
11 68 -29 20 -24 55 -48 77 -56 22 -8 38 -14 35 -15 -3 0 -68 -9 -145 -19
-249 -35 -407 -44 -635 -38 -579 17 -1172 95 -1675 222 -267 67 -426 118 -438
140 -19 36 -96 276 -148 460 -28 99 -67 232 -86 295 -19 63 -57 221 -84 350
-93 438 -138 743 -155 1058 -7 140 -13 133 87 102 286 -88 649 -151 1265 -219
482 -54 616 -63 1086 -68 745 -9 1303 36 1911 153 160 31 481 112 597 152 123
42 118 43 114 -30z m-3545 -597 c28 -18 -18 -90 -124 -196 l-101 -100 8 -200
c5 -110 7 -311 6 -446 -3 -222 -5 -249 -21 -267 -33 -36 -129 -47 -141 -16 -6
16 10 54 28 66 12 8 12 398 1 650 l-7 147 -101 88 c-76 66 -110 89 -136 93
-58 8 -52 67 9 103 56 33 86 18 227 -116 l62 -60 71 68 c48 47 73 80 80 105
11 42 36 67 76 80 39 11 46 11 63 1z m2511 -122 c0 -16 -10 -39 -24 -54 -17
-18 -25 -42 -30 -88 -4 -34 -10 -72 -12 -83 -5 -21 -4 -21 46 -12 28 5 70 8
93 6 37 -3 42 -6 45 -29 6 -54 -91 -107 -116 -63 -6 10 -19 14 -42 12 -42 -4
-45 -16 -58 -188 l-9 -125 -61 -61 -62 -61 0 101 c0 56 5 143 10 195 6 52 9
96 7 97 -2 2 -19 -1 -37 -6 -26 -8 -38 -7 -48 4 -12 12 -11 17 7 35 12 12 35
24 52 28 16 3 32 9 35 14 2 4 14 64 25 131 11 68 25 129 32 135 17 17 119 51
135 46 6 -3 12 -18 12 -34z m-1392 -46 c18 -34 -21 -88 -70 -98 -31 -7 -53
-33 -63 -77 -6 -24 -4 -28 14 -28 34 0 88 -26 100 -49 23 -42 32 -123 20 -185
-20 -110 -75 -188 -165 -232 -103 -50 -239 -32 -304 42 -25 29 -30 43 -30 85
0 30 8 65 20 89 25 49 143 176 182 196 15 8 28 19 28 25 0 24 54 120 91 163
67 75 156 110 177 69z m866 -99 c20 -19 20 -34 2 -59 -7 -11 -16 -40 -20 -64
l-7 -43 33 21 c55 37 171 91 194 91 39 0 54 -11 54 -40 0 -51 -85 -101 -117
-69 -8 8 -32 -3 -88 -41 -42 -28 -78 -57 -80 -63 -2 -7 -10 -100 -17 -207 -13
-182 -13 -197 3 -218 23 -30 13 -60 -31 -89 -38 -27 -97 -40 -112 -25 -7 7 -5
77 6 218 8 115 20 284 27 376 13 185 14 188 86 214 49 17 49 17 67 -2z m-276
-6 c13 -13 16 -51 5 -62 -4 -4 -6 -100 -4 -214 1 -114 0 -241 -4 -282 -7 -75
-8 -75 -64 -130 -64 -63 -168 -120 -218 -120 -50 0 -72 16 -96 68 -19 41 -22
70 -25 218 -4 196 11 407 33 440 16 25 93 58 121 52 28 -5 29 -51 3 -88 -22
-29 -23 -37 -23 -278 -1 -251 8 -322 38 -322 8 0 33 17 57 39 l44 39 0 299 c1
164 5 304 9 312 10 16 64 40 92 41 11 0 25 -5 32 -12z m-1257 -164 c84 -43
136 -200 109 -331 -52 -253 -364 -438 -525 -311 -68 54 -87 209 -41 339 44
125 105 198 226 269 103 61 162 70 231 34z m2833 -255 l49 -12 -26 -23 c-37
-32 -88 -44 -184 -44 -80 0 -180 15 -196 29 -10 10 77 49 133 61 54 11 157 6
224 -11z m-520 -98 c50 -21 115 -41 145 -45 30 -4 66 -13 81 -21 118 -61 178
-312 107 -451 -102 -201 -420 -364 -711 -364 l-94 0 -11 47 c-14 55 -72 118
-117 128 -56 13 -55 11 -48 67 20 166 155 438 280 562 68 68 163 112 248 115
16 1 70 -16 120 -38z m576 -33 c0 -17 -108 -435 -157 -608 l-39 -135 -134 -67
c-176 -87 -363 -161 -514 -202 -120 -33 -524 -112 -532 -104 -2 3 6 10 19 17
12 6 31 25 42 41 18 27 25 30 73 30 63 0 121 27 151 69 l21 29 113 0 c337 1
693 193 799 432 45 99 33 276 -26 392 l-33 65 74 11 c41 7 86 18 101 27 34 18
42 18 42 3z m-2223 -78 c66 -29 107 -65 139 -122 26 -48 29 -62 29 -143 0 -79
-4 -97 -29 -149 -56 -115 -194 -222 -351 -272 -110 -36 -256 -38 -330 -5 -103
46 -139 102 -138 211 1 92 27 165 88 250 54 73 112 117 230 175 183 89 259
101 362 55z m786 -574 c46 -19 68 -48 74 -97 6 -39 5 -42 -13 -34 -40 18 -125
17 -166 -1 -34 -15 -41 -16 -49 -3 -24 38 11 111 64 134 41 18 50 18 90 1z
m257 -91 c36 -19 60 -62 60 -110 0 -26 -9 -45 -33 -72 -28 -30 -40 -36 -77
-37 l-44 -1 -7 42 c-4 23 -12 50 -18 61 -9 16 -3 60 15 120 5 17 69 15 104 -3z
m-517 -44 c71 -27 91 -114 38 -165 -24 -23 -36 -27 -71 -24 -45 3 -46 4 -76
76 -21 53 -9 86 39 107 39 17 40 17 70 6z m295 -61 c45 -28 68 -82 53 -130
-31 -104 -172 -121 -217 -27 -14 30 -14 38 1 89 13 45 22 59 48 72 43 21 75
20 115 -4z m-499 -45 c56 -29 63 -106 14 -145 -49 -38 -115 -22 -139 35 -17
43 -3 90 35 110 34 18 55 18 90 0z m1642 -107 c-56 -147 -244 -545 -284 -603
-130 -187 -332 -299 -666 -369 -156 -33 -487 -81 -716 -103 -250 -24 -778 -24
-995 1 -652 73 -968 201 -1147 466 -42 63 -111 202 -177 359 -31 73 -56 134
-56 136 0 2 33 -7 72 -21 40 -14 150 -45 243 -69 888 -229 1942 -264 2834 -94
173 34 573 173 821 288 80 36 82 36 71 9z"/>
<path d="M4689 4867 c-70 -47 -99 -117 -99 -237 0 -214 114 -386 255 -384 68
1 111 26 147 84 82 132 46 392 -69 502 -63 60 -172 77 -234 35z m134 -118 c61
-40 85 -82 104 -178 14 -68 14 -87 3 -126 -13 -47 -66 -115 -90 -115 -28 0
-78 67 -98 132 -83 268 -52 376 81 287z"/>
<path d="M3055 3076 c-67 -29 -145 -137 -148 -205 -2 -53 26 -90 87 -115 61
-26 93 -15 124 41 49 89 52 224 7 269 -28 27 -30 28 -70 10z"/>
<path d="M2395 2998 c-88 -78 -135 -185 -135 -310 0 -92 13 -137 47 -170 35
-32 67 -40 117 -28 76 17 139 106 166 235 31 149 -34 315 -123 315 -14 0 -43
-17 -72 -42z"/>
<path d="M3020 2571 c-113 -44 -222 -139 -265 -233 -30 -64 -41 -163 -25 -212
61 -184 346 -189 510 -9 82 90 104 228 52 329 -40 79 -136 145 -207 143 -11 0
-40 -8 -65 -18z m120 -151 c36 -38 43 -70 29 -123 -25 -95 -182 -178 -260
-137 -40 22 -13 145 44 198 25 24 136 92 150 92 5 0 22 -13 37 -30z"/>
</g>
</svg>
